{
.formatVersion = 3;
classes = (
{
code = "A B C D E F G H I J K L M N O P Q R S T U V W X Y Z quoteleft";
name = aalt;
},
{
code = "A.alt1 B.alt1 C.alt1 D.alt1 E.alt1 F.alt1 G.alt1 H.alt1 I.alt1 J.alt1 K.alt1 L.alt1 M.alt1 N.alt1 O.alt1 P.alt1 Q.alt1 R.alt1 S.alt1 T.alt1 U.alt1 V.alt1 W.alt1 X.alt1 Y.alt1 Z.alt1 quoteleft.alt1";
name = aalt2;
}
);
familyName = Oceane;
customParameters = (
{
name = glyphOrder;
value = (
.notdef,
.null,
controlLF,
controlCR,
space,
exclam,
quotedbl,
numbersign,
dollar,
percent,
ampersand,
quotesingle,
parenleft,
parenright,
asterisk,
plus,
comma,
hyphen,
period,
slash,
zero,
one,
two,
three,
four,
five,
six,
seven,
eight,
nine,
colon,
semicolon,
less,
equal,
greater,
question,
at,
A,
B,
C,
D,
E,
F,
G,
H,
I,
J,
K,
L,
M,
N,
O,
P,
Q,
R,
S,
T,
U,
V,
W,
X,
Y,
Z,
bracketleft,
backslash,
bracketright,
asciicircum,
underscore,
grave,
a,
b,
c,
d,
e,
f,
g,
h,
i,
j,
k,
l,
m,
n,
o,
p,
q,
r,
s,
t,
u,
v,
w,
x,
y,
z,
braceleft,
verticalbar,
braceright,
asciitilde,
nonbreakingspace,
exclamdown,
cent,
sterling,
currency,
yen,
section,
dieresis,
copyright,
guillemotleft,
softhyphen,
registered,
degree,
plusminus,
twosuperior,
threesuperior,
acute,
paragraph,
cedilla,
onesuperior,
guillemotright,
questiondown,
Agrave,
Aacute,
Acircumflex,
Atilde,
Adieresis,
Aring,
AE,
Ccedilla,
Egrave,
Eacute,
Ecircumflex,
Edieresis,
Igrave,
Iacute,
Icircumflex,
Idieresis,
Eth,
Ntilde,
Ograve,
Oacute,
Ocircumflex,
Otilde,
Odieresis,
multiply,
Oslash,
Ugrave,
Uacute,
Ucircumflex,
Udieresis,
Yacute,
Thorn,
germandbls,
agrave,
aacute,
acircumflex,
atilde,
adieresis,
aring,
ae,
ccedilla,
egrave,
eacute,
ecircumflex,
edieresis,
igrave,
iacute,
icircumflex,
idieresis,
eth,
ntilde,
ograve,
oacute,
ocircumflex,
otilde,
divide,
oslash,
ugrave,
uacute,
ucircumflex,
udieresis,
yacute,
thorn,
ydieresis,
dotlessi,
Lslash,
lslash,
OE,
oe,
Scaron,
scaron,
Ydieresis,
Zcaron,
zcaron,
circumflex,
caron,
ilde,
endash,
emdash,
quoteleft,
quoteright,
quotesinglbase,
quoteleftreversed,

glyphs = (
{
glyphname = .notdef;
layers = (
{
layerId = "DBD9F252-B0AF-4540-AABD-DA467279EDBA";
shapes = (
{
closed = 1;
nodes = (
(50,700,l),
(50,0,l),
(477,0,l),
(477,700,l)
);
},
{
closed = 1;
nodes = (
(78,680,l),
(449,680,l),
(263,371,l)
);
},
{
closed = 1;
nodes = (
(251,350,l),
(71,49,l),
(71,650,l)
);
},
{
closed = 1;
nodes = (
(264,329,l),
(449,21,l),
(79,21,l)
);
},
{
closed = 1;
nodes = (
(276,350,l),
(457,652,l),
(457,47,l)
);
}
);
width = 527;
}
);
},
{
glyphname = exclam;
layers = (
{
layerId = "DBD9F252-B0AF-4540-AABD-DA467279EDBA";
shapes = (
{
closed = 1;
nodes = (
(91,80,o),
(73,62,o),
(73,40,cs),
(73,18,o),
(91,0,o),
(113,0,cs),
(135,0,o),
(153,18,o),
(153,40,cs),
(153,62,o),
(135,80,o),
(113,80,cs)
);
},
{
closed = 1;
nodes = (
(134,640,l),
(111,640,o),
(92,621,o),
(92,598,cs),
(92,160,l),
(115,160,o),
(134,179,o),
(134,202,c)
);
}
);
width = 226;
}
);
unicode = 33;
},
{
glyphname = quotedbl;
layers = (
{
layerId = "DBD9F252-B0AF-4540-AABD-DA467279EDBA";
shapes = (
{
closed = 1;
nodes = (
(40,480,l),
(63,480,o),
(82,499,o),
(82,522,cs),
(82,640,l),
(59,640,o),
(40,621,o),
(40,597,cs)
);
},
{
closed = 1;
nodes = (
(161,480,l),
(184,480,o),
(203,499,o),
(203,522,cs),
(203,640,l),
(180,640,o),
(161,621,o),
(161,597,cs)
);
}
);
width = 242;
}
);
rightKerningGroup = quotedbl;
unicode = 34;
},
{
glyphname = numbersign;
layers = (
{
layerId = "DBD9F252-B0AF-4540-AABD-DA467279EDBA";
shapes = (
{
closed = 1;
nodes = (
(533,629,l),
(511,636,o),
(487,624,o),
(479,602,cs),
(417,417,l),
(249,417,l),
(319,629,l),
(297,636,o),
(273,624,o),
(266,602,cs),
(204,417,l),
(157,417,ls),
(134,417,o),
(115,398,o),
(115,374,c),
(190,374,l),
(151,257,l),
(117,257,ls),
(94,257,o),
(75,238,o),
(75,214,c),
(137,214,l),
(66,2,l),
(88,-5,o),
(112,7,o),
(120,29,cs),
(181,214,l),
(350,214,l),
(279,2,l),
(301,-5,o),
(325,7,o),
(333,29,cs),
(395,214,l),
(433,214,ls),
(456,214,o),
(475,233,o),
(475,257,c),
(409,257,l),
(448,374,l),
(473,374,ls),
(496,374,o),
(515,393,o),
(515,417,c),
(462,417,l)
);
},
{
closed = 1;
nodes = (
(195,257,l),
(235,374,l),
(403,374,l),
(364,257,l)
);
}
);
width = 598;
}
);
unicode = 35;
},
{
glyphname = dollar;
layers = (
{
layerId = "DBD9F252-B0AF-4540-AABD-DA467279EDBA";
shapes = (
{
closed = 1;
nodes = (
(330,544,l),
(379,542,o),
(427,532,o),
(461,512,cs),
(479,502,o),
(491,490,o),
(498,477,cs),
(507,460,o),
(523,448,o),
(542,448,c),
(547,448,l),
(548,489,o),
(525,524,o),
(482,549,cs),
(442,572,o),
(387,584,o),
(330,586,c),
(330,640,l),
(307,640,o),
(288,621,o),
(288,598,cs),
(288,586,l),
(232,583,o),
(178,570,o),
(138,547,cs),
(93,521,o),
(70,485,o),
(70,444,cs),
(70,442,ls),
(78,338,o),
(186,318,o),
(288,303,c),
(288,96,l),
(238,97,o),
(191,108,o),
(157,127,cs),
(139,138,o),
(126,150,o),
(119,163,cs),
(110,180,o),
(94,192,o),
(75,192,c),
(70,192,l),
(70,151,o),
(93,116,o),
(136,91,cs),
(176,68,o),
(231,55,o),
(288,54,c),
(288,0,l),
(311,0,o),
(330,19,o),
(330,42,cs),
(330,54,l),
(385,57,o),
(439,70,o),
(478,93,cs),
(524,120,o),
(548,156,o),
(547,198,cs),
(547,200,ls),
(540,304,o),
(432,326,o),
(330,340,c)
);
},
{
closed = 1;
nodes = (
(113,470,o),
(128,492,o),
(159,510,cs),
(193,530,o),
(239,541,o),
(288,544,c),
(288,346,l),
(184,361,o),
(118,379,o),
(112,445,c)
);
},
{
closed = 1;
nodes = (
(424,111,o),
(378,99,o),
(330,96,c),
(330,297,l),
(433,282,o),
(500,263,o),
(505,197,c),
(505,171,o),
(489,148,o),
(457,130,cs)
);
}
);
width = 618;
}
);
unicode = 36;
},
{
glyphname = percent;
layers = (
{
layerId = "DBD9F252-B0AF-4540-AABD-DA467279EDBA";
shapes = (
{
closed = 1;
nodes = (
(198,480,o),
(234,515,o),
(234,560,cs),
(234,604,o),
(198,640,o),
(154,640,cs),
(110,640,o),
(74,604,o),
(74,560,cs),
(74,515,o),
(110,480,o),
(154,480,cs)
);
},
{
closed = 1;
nodes = (
(175,597,o),
(192,580,o),
(192,560,cs),
(192,539,o),
(175,522,o),
(154,522,cs),
(133,522,o),
(116,539,o),
(116,560,cs),
(116,580,o),
(133,597,o),
(154,597,cs)
);
},
{
closed = 1;
nodes = (
(585,160,o),
(549,124,o),
(549,80,cs),
(549,35,o),
(585,0,o),
(629,0,cs),
(673,0,o),
(709,35,o),
(709,80,cs),
(709,124,o),
(673,160,o),
(629,160,cs)
);
},
{
closed = 1;
nodes = (
(608,42,o),
(591,59,o),
(591,80,cs),
(591,100,o),
(608,117,o),
(629,117,cs),
(650,117,o),
(667,100,o),
(667,80,cs),
(667,59,o),
(650,42,o),
(629,42,cs)
);
},
{
closed = 1;
nodes = (
(59,17,l),
(76,0,o),
(102,0,o),
(119,17,cs),
(729,628,l),
(712,645,o),
(686,645,o),
(669,628,c)
);
}
);
width = 771;
}
);
unicode = 37;
},
{
glyphname = ampersand;
layers = (
{
layerId = "DBD9F252-B0AF-4540-AABD-DA467279EDBA";
shapes = (
{
closed = 1;
nodes = (
(456,80,l),
(489,118,o),
(510,169,o),
(510,223,c),
(507,223,ls),
(485,223,o),
(468,208,o),
(463,187,cs),
(458,159,o),
(446,134,o),
(429,113,c),
(191,397,ls),
(174,420,o),
(164,447,o),
(164,476,cs),
(164,547,o),
(224,605,o),
(296,602,cs),
(366,599,o),
(421,536,o),
(416,466,cs),
(415,453,o),
(412,440,o),
(407,428,cs),
(399,408,o),
(405,384,o),
(422,371,c),
(446,401,o),
(459,437,o),
(459,476,cs),
(459,572,o),
(378,650,o),
(280,644,cs),
(188,639,o),
(116,557,o),
(122,464,cs),
(124,437,o),
(132,411,o),
(146,388,c),
(99,347,o),
(71,287,o),
(71,223,cs),
(71,102,o),
(169,4,o),
(290,4,cs),
(341,4,o),
(388,21,o),
(425,51,c),
(455,15,ls),
(470,-3,o),
(497,-5,o),
(515,10,c)
);
},
{
closed = 1;
nodes = (
(213,52,o),
(157,91,o),
(131,147,cs),
(95,222,o),
(116,304,o),
(172,355,c),
(398,83,l),
(365,57,o),
(322,43,o),
(275,47,cs)
);
}
);
width = 582;
}
);
unicode = 38;
},
{
glyphname = quotesingle;
layers = (
{
layerId = "DBD9F252-B0AF-4540-AABD-DA467279EDBA";
shapes = (
{
closed = 1;
nodes = (
(39,480,l),
(62,480,o),
(81,499,o),
(81,522,cs),
(81,640,l),
(58,640,o),
(39,621,o),
(39,598,cs)
);
}
);
width = 120;
}
);
rightKerningGroup = quotedbl;
unicode = 39;
},
{
glyphname = parenleft;
layers = (
{
layerId = "DBD9F252-B0AF-4540-AABD-DA467279EDBA";
shapes = (
{
closed = 1;
nodes = (
(235,633,ls),
(222,646,o),
(201,645,o),
(189,631,cs),
(34,454,o),
(34,188,o),
(189,11,cs),
(201,-3,o),
(222,-4,o),
(235,9,cs),
(241,16,l),
(73,184,o),
(73,457,o),
(241,626,c)
);
}
);
width = 307;
}
);
unicode = 40;
},
{
glyphname = parenright;
layers = (
{
layerId = "DBD9F252-B0AF-4540-AABD-DA467279EDBA";
shapes = (
{
closed = 1;
nodes = (
(105,645,o),
(84,646,o),
(71,633,cs),
(64,626,l),
(232,457,o),
(232,184,o),
(64,16,c),
(71,9,ls),
(84,-4,o),
(105,-3,o),
(117,11,cs),
(271,188,o),
(271,454,o),
(117,631,cs)
);
}
);
width = 306;
}
);
unicode = 41;
},
{
glyphname = asterisk;
layers = (
{
layerId = "DBD9F252-B0AF-4540-AABD-DA467279EDBA";
shapes = (
{
closed = 1;
nodes = (
(219,568,l),
(212,590,o),
(188,603,o),
(166,597,cs),
(135,588,l),
(135,662,l),
(112,662,o),
(93,643,o),
(93,620,cs),
(93,588,l),
(63,597,ls),
(40,603,o),
(17,590,o),
(10,568,c),
(80,548,l),
(37,488,l),
(56,475,o),
(83,479,o),
(97,498,cs),
(114,523,l),
(132,498,ls),
(146,479,o),
(172,475,o),
(191,488,c),
(149,548,l)
);
}
);
width = 229;
}
);
leftKerningGroup = asterisk;
rightKerningGroup = quotedbl;
unicode = 42;
},
{
glyphname = plus;
layers = (
{
layerId = "DBD9F252-B0AF-4540-AABD-DA467279EDBA";
shapes = (
{
closed = 1;
nodes = (
(196,341,l),
(196,440,l),
(173,440,o),
(154,421,o),
(154,398,cs),
(154,341,l),
(97,341,ls),
(74,341,o),
(55,322,o),
(55,299,c),
(154,299,l),
(154,200,l),
(177,200,o),
(196,219,o),
(196,242,cs),
(196,299,l),
(253,299,ls),
(276,299,o),
(295,318,o),
(295,341,c)
);
}
);
width = 350;
}
);
unicode = 43;
},
{
glyphname = comma;
layers = (
{
layerId = "DBD9F252-B0AF-4540-AABD-DA467279EDBA";
shapes = (
{
closed = 1;
nodes = (
(6,-66,l),
(27,-76,o),
(52,-68,o),
(63,-47,cs),
(124,76,l),
(103,86,o),
(78,78,o),
(67,57,cs)
);
}
);
width = 167;
}
);
leftKerningGroup = comma2;
rightKerningGroup = comma;
unicode = 44;
},
{
glyphname = hyphen;
layers = (
{
layerId = "DBD9F252-B0AF-4540-AABD-DA467279EDBA";
shapes = (
{
closed = 1;
nodes = (
(82,342,ls),
(59,342,o),
(40,323,o),
(40,300,c),
(158,300,ls),
(181,300,o),
(200,319,o),
(200,342,c)
);
}
);
width = 239;
}
);
unicode = 45;
},
{
glyphname = period;
layers = (
{
layerId = "DBD9F252-B0AF-4540-AABD-DA467279EDBA";
shapes = (
{
closed = 1;
nodes = (
(108,0,o),
(126,18,o),
(126,40,cs),
(126,62,o),
(108,80,o),
(86,80,cs),
(64,80,o),
(46,62,o),
(46,40,cs),
(46,18,o),
(64,0,o),
(86,0,cs)
);
}
);
width = 172;
}
);
leftKerningGroup = period;
rightKerningGroup = comma;
unicode = 46;
},
{
glyphname = slash;
layers = (
{
layerId = "DBD9F252-B0AF-4540-AABD-DA467279EDBA";
shapes = (
{
closed = 1;
nodes = (
(63,1,l),
(86,-4,o),
(109,9,o),
(114,32,cs),
(264,628,l),
(241,634,o),
(218,620,o),
(213,598,c)
);
}
);
width = 329;
}
);
unicode = 47;
},
{
glyphname = zero;
layers = (
{
layerId = "DBD9F252-B0AF-4540-AABD-DA467279EDBA";
shapes = (
{
closed = 1;
nodes = (
(163,640,o),
(73,497,o),
(73,320,cs),
(73,144,o),
(163,0,o),
(273,0,cs),
(383,0,o),
(473,144,o),
(473,320,cs),
(473,497,o),
(383,640,o),
(273,640,cs)
);
},
{
closed = 1;
nodes = (
(188,43,o),
(115,170,o),
(115,320,cs),
(115,471,o),
(188,598,o),
(273,598,cs),
(358,598,o),
(431,471,o),
(431,320,cs),
(431,170,o),
(358,43,o),
(273,43,cs)
);
}
);
width = 546;
}
);
unicode = 48;
},
{
glyphname = one;
layers = (
{
layerId = "DBD9F252-B0AF-4540-AABD-DA467279EDBA";
shapes = (
{
closed = 1;
nodes = (
(284,643,o),
(275,641,o),
(268,635,cs),
(57,423,l),
(74,407,o),
(100,407,o),
(117,423,cs),
(262,569,l),
(262,42,ls),
(262,19,o),
(281,0,o),
(305,0,c),
(305,620,ls),
(305,628,o),
(299,636,o),
(292,639,c)
);
}
);
width = 385;
}
);
unicode = 49;
},
{
glyphname = two;
layers = (
{
layerId = "DBD9F252-B0AF-4540-AABD-DA467279EDBA";
shapes = (
{
closed = 1;
nodes = (
(137,42,l),
(415,320,ls),
(468,373,o),
(484,450,o),
(458,521,cs),
(432,589,o),
(372,634,o),
(300,639,cs),
(295,640,o),
(290,640,o),
(285,640,cs),
(185,640,o),
(97,572,o),
(72,475,c),
(93,469,o),
(116,479,o),
(126,499,cs),
(155,558,o),
(217,597,o),
(285,597,cs),
(290,597,o),
(294,597,o),
(298,597,cs),
(353,593,o),
(398,559,o),
(418,506,cs),
(439,451,o),
(426,391,o),
(385,350,cs),
(71,36,ls),
(65,30,o),
(63,21,o),
(67,13,cs),
(70,5,o),
(78,0,o),
(86,0,cs),
(485,0,l),
(485,23,o),
(466,42,o),
(442,42,c)
);
}
);
width = 553;
}
);
unicode = 50;
},
{
glyphname = three;
layers = (
{
layerId = "DBD9F252-B0AF-4540-AABD-DA467279EDBA";
shapes = (
{
closed = 1;
nodes = (
(384,368,o),
(416,422,o),
(414,483,cs),
(412,567,o),
(343,636,o),
(259,640,cs),
(167,644,o),
(91,571,o),
(90,480,c),
(103,480,ls),
(118,480,o),
(132,491,o),
(135,506,cs),
(149,563,o),
(204,604,o),
(266,597,cs),
(320,591,o),
(364,548,o),
(371,494,cs),
(379,429,o),
(335,372,o),
(275,360,cs),
(267,359,o),
(262,352,o),
(262,345,cs),
(262,329,ls),
(262,321,o),
(268,315,o),
(275,314,cs),
(343,303,o),
(395,247,o),
(395,179,cs),
(395,104,o),
(331,43,o),
(252,43,cs),
(187,43,o),
(133,83,o),
(115,139,cs),
(111,152,o),
(98,160,o),
(84,160,cs),
(67,160,l),
(77,70,o),
(156,0,o),
(252,0,cs),
(354,0,o),
(438,80,o),
(438,179,cs),
(438,249,o),
(396,309,o),
(335,339,c)
);
}
);
width = 510;
}
);
rightKerningGroup = three;
unicode = 51;
},
{
glyphname = four;
layers = (
{
layerId = "DBD9F252-B0AF-4540-AABD-DA467279EDBA";
shapes = (
{
closed = 1;
nodes = (
(405,223,l),
(405,620,ls),
(405,629,o),
(399,637,o),
(390,640,cs),
(381,643,o),
(372,640,o),
(366,632,cs),
(63,214,ls),
(58,208,o),
(58,200,o),
(61,192,cs),
(65,185,o),
(72,181,o),
(80,181,cs),
(362,181,l),
(362,0,l),
(386,0,o),
(405,19,o),
(405,43,cs),
(405,181,l),
(488,181,l),
(488,204,o),
(469,223,o),
(446,223,c)
);
},
{
closed = 1;
nodes = (
(362,223,l),
(122,223,l),
(362,554,l)
);
}
);
width = 551;
}
);
unicode = 52;
},
{
glyphname = five;
layers = (
{
layerId = "DBD9F252-B0AF-4540-AABD-DA467279EDBA";
shapes = (
{
closed = 1;
nodes = (
(198,419,o),
(166,412,o),
(137,398,c),
(137,597,l),
(383,597,ls),
(407,597,o),
(426,616,o),
(426,639,c),
(116,639,ls),
(105,639,o),
(95,630,o),
(95,618,cs),
(95,362,ls),
(95,354,o),
(99,347,o),
(106,343,cs),
(113,340,o),
(122,340,o),
(128,345,cs),
(158,365,o),
(194,376,o),
(231,376,cs),
(327,376,o),
(405,301,o),
(405,209,cs),
(405,117,o),
(327,42,o),
(231,42,cs),
(194,42,o),
(160,52,o),
(130,72,cs),
(130,73,o),
(129,73,o),
(128,74,cs),
(109,87,o),
(85,85,o),
(68,70,c),
(80,58,o),
(93,46,o),
(107,37,cs),
(143,12,o),
(186,0,o),
(231,0,cs),
(350,0,o),
(448,94,o),
(448,209,cs),
(448,325,o),
(350,419,o),
(231,419,c)
);
}
);
width = 518;
}
);
unicode = 53;
},
{
glyphname = six;
layers = (
{
layerId = "DBD9F252-B0AF-4540-AABD-DA467279EDBA";
shapes = (
{
closed = 1;
nodes = (
(424,284,o),
(360,350,o),
(279,361,cs),
(221,370,o),
(168,350,o),
(130,315,c),
(166,462,o),
(256,559,o),
(304,602,cs),
(321,617,o),
(325,643,o),
(312,662,c),
(302,656,o),
(71,496,o),
(71,182,c),
(71,182,o),
(71,182,o),
(71,182,c),
(71,181,o),
(71,181,o),
(71,181,c),
(71,181,o),
(71,181,o),
(71,181,c),
(71,181,l),
(71,81,o),
(153,0,o),
(253,0,cs),
(360,0,o),
(446,93,o),
(434,202,cs)
);
},
{
closed = 1;
nodes = (
(167,48,o),
(112,114,o),
(113,189,cs),
(115,239,o),
(142,285,o),
(187,306,cs),
(291,354,o),
(392,280,o),
(392,182,cs),
(392,101,o),
(324,36,o),
(242,42,cs)
);
}
);
width = 501;
}
);
unicode = 54;
},
{
glyphname = seven;
layers = (
{
layerId = "DBD9F252-B0AF-4540-AABD-DA467279EDBA";
shapes = (
{
closed = 1;
nodes = (
(475,644,o),
(469,648,o),
(461,648,c),
(49,648,l),
(49,625,o),
(68,606,o),
(91,606,cs),
(430,606,l),
(200,55,ls),
(191,34,o),
(202,9,o),
(223,0,c),
(481,619,ls),
(484,625,o),
(483,633,o),
(479,639,c)
);
}
);
width = 541;
}
);
unicode = 55;
},
{
glyphname = eight;
layers = (
{
layerId = "DBD9F252-B0AF-4540-AABD-DA467279EDBA";
shapes = (
{
closed = 1;
nodes = (
(386,368,o),
(419,420,o),
(419,480,cs),
(419,568,o),
(347,640,o),
(259,640,cs),
(170,640,o),
(99,568,o),
(99,480,cs),
(99,420,o),
(132,368,o),
(180,341,c),
(116,312,o),
(72,251,o),
(72,179,cs),
(72,80,o),
(156,0,o),
(259,0,cs),
(362,0,o),
(445,80,o),
(445,179,cs),
(445,251,o),
(401,312,o),
(337,341,c)
);
},
{
closed = 1;
nodes = (
(141,545,o),
(194,598,o),
(259,598,cs),
(324,598,o),
(376,545,o),
(376,480,cs),
(376,415,o),
(324,362,o),
(259,362,cs),
(194,362,o),
(141,415,o),
(141,480,cs)
);
},
{
closed = 1;
nodes = (
(179,43,o),
(114,104,o),
(114,179,cs),
(114,254,o),
(179,315,o),
(259,315,cs),
(338,315,o),
(403,254,o),
(403,179,cs),
(403,104,o),
(338,43,o),
(259,43,cs)
);
}
);
width = 518;
}
);
rightKerningGroup = three;
unicode = 56;
},
{
glyphname = nine;
layers = (
{
layerId = "DBD9F252-B0AF-4540-AABD-DA467279EDBA";
shapes = (
{
closed = 1;
nodes = (
(430,461,l),
(429,561,o),
(348,642,o),
(248,642,cs),
(141,642,o),
(55,549,o),
(67,440,cs),
(76,359,o),
(141,292,o),
(221,281,cs),
(279,272,o),
(333,292,o),
(371,327,c),
(334,180,o),
(245,83,o),
(197,40,cs),
(179,25,o),
(176,-1,o),
(189,-20,c),
(199,-14,o),
(429,146,o),
(430,460,c),
(430,460,o),
(430,460,o),
(430,461,c),
(430,461,o),
(430,461,o),
(430,461,c),
(430,461,o),
(430,461,o),
(430,461,c)
);
},
{
closed = 1;
nodes = (
(210,288,o),
(108,363,o),
(108,461,cs),
(108,541,o),
(177,606,o),
(258,600,cs),
(333,594,o),
(389,528,o),
(387,453,cs),
(386,403,o),
(358,357,o),
(313,336,cs)
);
}
);
width = 501;
}
);
unicode = 57;
},
{
glyphname = colon;
layers = (
{
layerId = "DBD9F252-B0AF-4540-AABD-DA467279EDBA";
shapes = (
{
closed = 1;
nodes = (
(142,224,o),
(160,242,o),
(160,264,cs),
(160,286,o),
(142,304,o),
(120,304,cs),
(98,304,o),
(80,286,o),
(80,264,cs),
(80,242,o),
(98,224,o),
(120,224,cs)
);
},
{
closed = 1;
nodes = (
(142,464,o),
(160,482,o),
(160,504,cs),
(160,526,o),
(142,544,o),
(120,544,cs),
(98,544,o),
(80,526,o),
(80,504,cs),
(80,482,o),
(98,464,o),
(120,464,cs)
);
}
);
width = 240;
}
);
unicode = 58;
},
{
glyphname = semicolon;
layers = (
{
layerId = "DBD9F252-B0AF-4540-AABD-DA467279EDBA";
shapes = (
{
closed = 1;
nodes = (
(91,245,o),
(73,227,o),
(73,205,cs),
(73,183,o),
(91,165,o),
(113,165,cs),
(135,165,o),
(153,183,o),
(153,205,cs),
(153,227,o),
(135,245,o),
(113,245,cs)
);
},
{
closed = 1;
nodes = (
(15,-66,l),
(36,-76,o),
(61,-68,o),
(72,-47,cs),
(133,76,l),
(112,86,o),
(87,78,o),
(76,57,cs)
);
}
);
width = 206;
}
);
unicode = 59;
},
{
glyphname = less;
layers = (
{
layerId = "DBD9F252-B0AF-4540-AABD-DA467279EDBA";
shapes = (
{
closed = 1;
nodes = (
(488,506,l),
(477,527,o),
(452,535,o),
(431,525,cs),
(69,343,ls),
(62,340,o),
(57,332,o),
(57,324,cs),
(57,316,o),
(62,309,o),
(69,306,cs),
(431,124,ls),
(452,114,o),
(477,122,o),
(488,143,c),
(125,324,l)
);
}
);
width = 545;
}
);
unicode = 60;
},
{
glyphname = equal;
layers = (
{
layerId = "DBD9F252-B0AF-4540-AABD-DA467279EDBA";
shapes = (
{
closed = 1;
nodes = (
(47,272,l),
(47,249,o),
(66,230,o),
(89,230,cs),
(287,230,l),
(287,253,o),
(268,272,o),
(245,272,cs)
);
},
{
closed = 1;
nodes = (
(287,380,l),
(287,403,o),
(268,422,o),
(245,422,cs),
(47,422,l),
(47,398,o),
(66,380,o),
(89,380,cs)
);
}
);
width = 334;
}
);
unicode = 61;
},
{
glyphname = greater;
layers = (
{
layerId = "DBD9F252-B0AF-4540-AABD-DA467279EDBA";
shapes = (
{
closed = 1;
nodes = (
(114,525,ls),
(93,535,o),
(67,527,o),
(57,506,c),
(419,324,l),
(57,143,l),
(67,122,o),
(93,114,o),
(114,124,cs),
(476,305,ls),
(483,309,o),
(488,316,o),
(488,324,cs),
(488,332,o),
(483,340,o),
(476,343,c)
);
}
);
width = 545;
}
);
unicode = 62;
},
{
glyphname = question;
layers = (
{
layerId = "DBD9F252-B0AF-4540-AABD-DA467279EDBA";
shapes = (
{
closed = 1;
nodes = (
(210,80,o),
(192,62,o),
(192,40,cs),
(192,18,o),
(210,0,o),
(232,0,cs),
(254,0,o),
(272,18,o),
(272,40,cs),
(272,62,o),
(254,80,o),
(232,80,cs)
);
},
{
closed = 1;
nodes = (
(147,638,o),
(61,590,o),
(58,490,c),
(80,489,o),
(99,502,o),
(106,523,cs),
(124,573,o),
(176,597,o),
(228,598,cs),
(289,600,o),
(358,567,o),
(364,493,c),
(365,462,o),
(348,433,o),
(309,399,cs),
(308,398,ls),
(209,301,o),
(210,251,o),
(211,198,cs),
(212,186,o),
(212,174,o),
(211,162,c),
(215,161,ls),
(236,160,o),
(254,177,o),
(254,198,c),
(254,199,o),
(254,199,o),
(254,199,c),
(253,246,o),
(252,283,o),
(337,367,c),
(368,394,o),
(409,436,o),
(406,496,c),
(398,598,o),
(308,642,o),
(227,640,cs)
);
}
);
width = 470;
}
);
unicode = 63;
},
{
glyphname = at;
layers = (
{
layerId = "DBD9F252-B0AF-4540-AABD-DA467279EDBA";
shapes = (
{
closed = 1;
nodes = (
(361,332,o),
(333,345,o),
(302,345,cs),
(242,345,o),
(193,296,o),
(193,235,cs),
(193,175,o),
(242,126,o),
(302,126,cs),
(332,126,o),
(359,138,o),
(379,157,c),
(379,126,l),
(402,126,o),
(421,145,o),
(421,168,cs),
(421,341,l),
(402,341,o),
(387,328,o),
(381,312,c)
);
},
{
closed = 1;
nodes = (
(265,168,o),
(235,198,o),
(235,235,cs),
(235,272,o),
(265,303,o),
(302,303,cs),
(339,303,o),
(370,272,o),
(370,235,cs),
(370,198,o),
(339,168,o),
(302,168,cs)
);
},
{
closed = 1;
nodes = (
(170,467,o),
(81,378,o),
(69,268,cs),
(52,123,o),
(166,0,o),
(308,0,cs),
(335,0,o),
(362,5,o),
(388,14,c),
(380,35,o),
(358,47,o),
(335,44,cs),
(326,43,o),
(317,42,o),
(308,42,cs),
(191,42,o),
(97,144,o),
(111,263,cs),
(121,354,o),
(194,427,o),
(285,437,cs),
(404,451,o),
(506,357,o),
(506,241,cs),
(506,219,o),
(502,197,o),
(495,177,cs),
(488,155,o),
(496,132,o),
(515,121,c),
(516,120,l),
(537,157,o),
(548,198,o),
(548,241,c),
(548,382,o),
(425,496,o),
(280,480,cs)
);
}
);
width = 616;
}
);
unicode = 64;
},
{
glyphname = A;
layers = (
{
layerId = "DBD9F252-B0AF-4540-AABD-DA467279EDBA";
shapes = (
{
closed = 1;
nodes = (
(367,627,ls),
(364,634,o),
(356,639,o),
(348,639,cs),
(340,639,o),
(333,634,o),
(330,627,cs),
(16,0,l),
(45,0,o),
(72,17,o),
(85,43,cs),
(168,210,l),
(529,210,l),
(612,43,ls),
(625,17,o),
(652,0,o),
(681,0,c)
);
},
{
closed = 1;
nodes = (
(189,252,l),
(348,570,l),
(508,252,l)
);
}
);
width = 697;
}
);
leftKerningGroup = A2;
rightKerningGroup = A;
unicode = 65;
},
{
glyphname = B;
layers = (
{
layerId = "DBD9F252-B0AF-4540-AABD-DA467279EDBA";
shapes = (
{
closed = 1;
nodes = (
(466,368,o),
(490,415,o),
(490,467,cs),
(490,469,ls),
(490,562,o),
(414,638,o),
(321,638,cs),
(100,638,ls),
(88,638,o),
(79,628,o),
(79,617,cs),
(79,21,ls),
(79,10,o),
(88,0,o),
(100,0,cs),
(394,0,ls),
(488,0,o),
(563,76,o),
(563,169,cs),
(563,171,ls),
(563,253,o),
(505,321,o),
(428,337,c)
);
},
{
closed = 1;
nodes = (
(121,596,l),
(321,596,ls),
(391,596,o),
(447,539,o),
(447,469,cs),
(447,467,ls),
(447,397,o),
(391,340,o),
(321,340,cs),
(121,340,l)
);
},
{
closed = 1;
nodes = (
(521,169,l),
(521,99,o),
(464,43,o),
(394,43,cs),
(121,43,l),
(121,298,l),
(394,298,ls),
(464,298,o),
(521,241,o),
(521,171,c)
);
}
);
width = 606;
}
);
leftKerningGroup = B;
unicode = 66;
},
{
glyphname = C;
layers = (
{
layerId = "DBD9F252-B0AF-4540-AABD-DA467279EDBA";
shapes = (
{
closed = 1;
nodes = (
(438,50,o),
(402,43,o),
(366,43,cs),
(213,43,o),
(89,167,o),
(89,319,cs),
(89,472,o),
(213,596,o),
(366,596,cs),
(402,596,o),
(438,589,o),
(471,575,cs),
(492,566,o),
(516,574,o),
(528,594,c),
(479,623,o),
(423,638,o),
(366,638,cs),
(190,638,o),
(47,495,o),
(47,319,cs),
(47,143,o),
(190,0,o),
(366,0,cs),
(423,0,o),
(479,15,o),
(528,44,c),
(516,64,o),
(492,72,o),
(471,63,c)
);
}
);
width = 555;
}
);
leftKerningGroup = C2;
rightKerningGroup = C;
unicode = 67;
},
{
glyphname = D;
layers = (
{
layerId = "DBD9F252-B0AF-4540-AABD-DA467279EDBA";
shapes = (
{
closed = 1;
nodes = (
(79,640,l),
(79,0,l),
(239,0,ls),
(416,0,o),
(559,143,o),
(559,320,cs),
(559,497,o),
(416,640,o),
(239,640,c)
);
},
{
closed = 1;
nodes = (
(121,42,l),
(121,598,l),
(239,598,ls),
(392,598,o),
(517,473,o),
(517,320,cs),
(517,167,o),
(392,42,o),
(239,42,c)
);
}
);
width = 606;
}
);
rightKerningGroup = D;
unicode = 68;
},
{
glyphname = E;
layers = (
{
layerId = "DBD9F252-B0AF-4540-AABD-DA467279EDBA";
shapes = (
{
closed = 1;
nodes = (
(121,43,l),
(121,299,l),
(357,299,ls),
(380,299,o),
(399,318,o),
(399,341,c),
(121,341,l),
(121,597,l),
(428,597,ls),
(451,597,o),
(470,616,o),
(470,640,c),
(100,640,ls),
(88,640,o),
(79,630,o),
(79,618,cs),
(79,21,ls),
(79,10,o),
(88,0,o),
(100,0,cs),
(470,0,l),
(470,24,o),
(451,43,o),
(428,43,c)
);
}
);
width = 500;
}
);
leftKerningGroup = B;
rightKerningGroup = E;
unicode = 69;
},
{
glyphname = F;
layers = (
{
layerId = "DBD9F252-B0AF-4540-AABD-DA467279EDBA";
shapes = (
{
closed = 1;
nodes = (
(256,640,l),
(155,640,o),
(74,558,o),
(74,458,cs),
(74,0,l),
(97,0,o),
(116,19,o),
(116,42,cs),
(116,278,l),
(293,278,ls),
(316,278,o),
(335,297,o),
(335,320,c),
(116,320,l),
(116,458,ls),
(116,535,o),
(179,598,o),
(256,598,cs),
(373,598,ls),
(396,598,o),
(415,617,o),
(415,640,c)
);
}
);
width = 433;
}
);
unicode = 70;
},
{
glyphname = G;
layers = (
{
layerId = "DBD9F252-B0AF-4540-AABD-DA467279EDBA";
shapes = (
{
closed = 1;
nodes = (
(431,271,l),
(431,248,o),
(450,229,o),
(474,229,cs),
(635,229,l),
(596,118,o),
(491,42,o),
(370,42,cs),
(215,42,o),
(89,167,o),
(89,320,cs),
(89,473,o),
(215,597,o),
(370,597,cs),
(483,597,o),
(584,530,o),
(628,429,cs),
(635,412,o),
(652,402,o),
(670,402,cs),
(674,402,o),
(678,402,o),
(682,403,c),
(644,542,o),
(515,640,o),
(370,640,cs),
(192,640,o),
(47,496,o),
(47,320,cs),
(47,143,o),
(192,0,o),
(370,0,cs),
(519,0,o),
(649,101,o),
(684,244,cs),
(684,246,o),
(684,248,o),
(684,250,cs),
(684,262,o),
(675,271,o),
(663,271,c)
);
}
);
width = 730;
}
);
leftKerningGroup = C2;
unicode = 71;
},
{
glyphname = H;
layers = (
{
layerId = "DBD9F252-B0AF-4540-AABD-DA467279EDBA";
shapes = (
{
closed = 1;
nodes = (
(517,341,l),
(121,341,l),
(121,640,l),
(98,640,o),
(79,621,o),
(79,598,cs),
(79,0,l),
(102,0,o),
(121,19,o),
(121,42,cs),
(121,299,l),
(517,299,l),
(517,0,l),
(540,0,o),
(559,19,o),
(559,42,cs),
(559,640,l),
(536,640,o),
(517,621,o),
(517,598,cs)
);
}
);
width = 638;
}
);
leftKerningGroup = B;
rightKerningGroup = H;
unicode = 72;
},
{
glyphname = I;
layers = (
{
layerId = "DBD9F252-B0AF-4540-AABD-DA467279EDBA";
shapes = (
{
closed = 1;
nodes = (
(79,0,l),
(102,0,o),
(121,19,o),
(121,42,cs),
(121,640,l),
(98,640,o),
(79,621,o),
(79,598,cs)
);
}
);
width = 201;
}
);
leftKerningGroup = B;
rightKerningGroup = H;
unicode = 73;
},
{
glyphname = J;
layers = (
{
layerId = "DBD9F252-B0AF-4540-AABD-DA467279EDBA";
shapes = (
{
closed = 1;
nodes = (
(195,639,l),
(195,616,o),
(214,597,o),
(238,597,cs),
(323,597,l),
(323,175,ls),
(323,107,o),
(272,47,o),
(204,43,cs),
(142,39,o),
(89,79,o),
(72,135,cs),
(66,156,o),
(47,170,o),
(25,170,c),
(25,71,o),
(110,-9,o),
(212,1,cs),
(300,9,o),
(366,87,o),
(366,175,cs),
(366,618,ls),
(366,629,o),
(356,639,o),
(344,639,cs)
);
}
);
width = 440;
}
);
unicode = 74;
},
{
glyphname = K;
layers = (
{
layerId = "DBD9F252-B0AF-4540-AABD-DA467279EDBA";
shapes = (
{
closed = 1;
nodes = (
(600,640,l),
(552,640,o),
(505,625,o),
(465,598,cs),
(121,358,l),
(121,640,l),
(98,640,o),
(79,621,o),
(79,598,cs),
(79,0,l),
(102,0,o),
(121,19,o),
(121,42,cs),
(121,277,l),
(463,42,ls),
(503,15,o),
(551,0,o),
(599,0,c),
(137,317,l)
);
}
);
width = 619;
}
);
leftKerningGroup = B;
unicode = 75;
},
{
glyphname = L;
layers = (
{
layerId = "DBD9F252-B0AF-4540-AABD-DA467279EDBA";
shapes = (
{
closed = 1;
nodes = (
(121,42,l),
(121,598,ls),
(121,621,o),
(102,640,o),
(79,640,c),
(79,21,ls),
(79,9,o),
(88,0,o),
(100,0,cs),
(399,0,l),
(399,23,o),
(380,42,o),
(357,42,c)
);
}
);
width = 412;
}
);
unicode = 76;
},
{
glyphname = M;
layers = (
{
layerId = "DBD9F252-B0AF-4540-AABD-DA467279EDBA";
shapes = (
{
closed = 1;
nodes = (
(543,625,l),
(540,634,o),
(533,640,o),
(523,641,cs),
(514,641,o),
(506,636,o),
(502,627,cs),
(364,252,l),
(226,627,ls),
(223,636,o),
(214,641,o),
(205,641,cs),
(196,640,o),
(188,634,o),
(185,625,cs),
(31,0,l),
(57,0,o),
(79,17,o),
(85,42,cs),
(210,548,l),
(344,183,ls),
(347,175,o),
(355,169,o),
(364,169,cs),
(373,169,o),
(381,175,o),
(384,183,cs),
(519,549,l),
(650,42,ls),
(656,17,o),
(679,0,o),
(705,0,c)
);
}
);
width = 735;
}
);
unicode = 77;
},
{
glyphname = N;
layers = (
{
layerId = "DBD9F252-B0AF-4540-AABD-DA467279EDBA";
shapes = (
{
closed = 1;
nodes = (
(560,81,l),
(118,631,ls),
(112,638,o),
(103,641,o),
(94,638,cs),
(86,635,o),
(80,627,o),
(80,618,cs),
(80,0,l),
(103,0,o),
(122,19,o),
(122,42,cs),
(122,558,l),
(565,8,ls),
(569,2,o),
(575,0,o),
(581,0,cs),
(583,0,o),
(586,0,o),
(588,1,cs),
(597,4,o),
(602,12,o),
(602,21,cs),
(602,640,l),
(579,640,o),
(560,621,o),
(560,598,c)
);
}
);
width = 683;
}
);
leftKerningGroup = B;
rightKerningGroup = H;
unicode = 78;
},
{
glyphname = O;
layers = (
{
layerId = "DBD9F252-B0AF-4540-AABD-DA467279EDBA";
shapes = (
{
closed = 1;
nodes = (
(190,639,o),
(47,496,o),
(47,320,cs),
(47,143,o),
(190,0,o),
(367,0,cs),
(544,0,o),
(687,143,o),
(687,320,cs),
(687,496,o),
(544,639,o),
(367,639,cs)
);
},
{
closed = 1;
nodes = (
(214,42,o),
(89,166,o),
(89,320,cs),
(89,473,o),
(214,597,o),
(367,597,cs),
(520,597,o),
(645,473,o),
(645,320,cs),
(645,166,o),
(520,42,o),
(367,42,cs)
);
}
);
width = 734;
}
);
leftKerningGroup = C2;
rightKerningGroup = D;
unicode = 79;
},
{
glyphname = P;
layers = (
{
layerId = "DBD9F252-B0AF-4540-AABD-DA467279EDBA";
shapes = (
{
closed = 1;
nodes = (
(109,640,l),
(109,639,l),
(104,639,ls),
(91,639,o),
(80,629,o),
(80,615,cs),
(80,0,l),
(103,0,o),
(122,19,o),
(122,42,cs),
(122,278,l),
(395,278,ls),
(495,278,o),
(576,359,o),
(576,459,cs),
(576,559,o),
(495,640,o),
(395,640,cs)
);
},
{
closed = 1;
nodes = (
(122,320,l),
(122,598,l),
(395,598,ls),
(472,598,o),
(534,535,o),
(534,459,cs),
(534,382,o),
(472,320,o),
(395,320,c)
);
}
);
width = 613;
}
);
leftKerningGroup = B;
unicode = 80;
},
{
glyphname = Q;
layers = (
{
layerId = "DBD9F252-B0AF-4540-AABD-DA467279EDBA";
shapes = (
{
closed = 1;
nodes = (
(471,51,o),
(457,62,o),
(448,77,c),
(499,136,o),
(532,223,o),
(532,320,cs),
(532,497,o),
(425,640,o),
(292,640,cs),
(159,640,o),
(52,497,o),
(52,320,cs),
(52,144,o),
(159,1,o),
(292,1,cs),
(338,1,o),
(381,18,o),
(417,47,c),
(436,21,o),
(468,0,o),
(532,0,c),
(532,0,o),
(532,1,o),
(532,2,c),
(532,23,o),
(516,41,o),
(495,46,cs)
);
},
{
closed = 1;
nodes = (
(183,43,o),
(94,167,o),
(94,320,cs),
(94,473,o),
(183,598,o),
(292,598,cs),
(401,598,o),
(490,473,o),
(490,320,cs),
(490,241,o),
(466,170,o),
(428,120,c),
(411,160,o),
(386,207,o),
(292,207,c),
(292,207,o),
(292,206,o),
(292,205,c),
(292,184,o),
(307,165,o),
(329,161,cs),
(369,152,o),
(379,127,o),
(392,95,cs),
(394,92,o),
(395,89,o),
(396,85,c),
(366,59,o),
(330,43,o),
(292,43,c)
);
}
);
width = 589;
}
);
leftKerningGroup = Q;
unicode = 81;
},
{
glyphname = R;
layers = (
{
layerId = "DBD9F252-B0AF-4540-AABD-DA467279EDBA";
shapes = (
{
closed = 1;
nodes = (
(601,467,l),
(601,562,o),
(524,640,o),
(429,640,cs),
(101,640,ls),
(89,640,o),
(80,630,o),
(80,619,cs),
(80,0,l),
(103,0,o),
(122,19,o),
(122,42,cs),
(122,286,l),
(429,286,ls),
(432,286,o),
(435,286,o),
(438,287,c),
(438,286,l),
(505,286,o),
(559,228,o),
(559,156,cs),
(559,42,ls),
(559,19,o),
(578,0,o),
(601,0,c),
(601,156,ls),
(601,222,o),
(566,280,o),
(514,309,c),
(566,338,o),
(601,394,o),
(601,458,c)
);
},
{
closed = 1;
nodes = (
(122,328,l),
(122,597,l),
(429,597,ls),
(501,597,o),
(559,539,o),
(559,467,cs),
(559,458,ls),
(559,387,o),
(501,328,o),
(429,328,c)
);
}
);
width = 669;
}
);
unicode = 82;
},
{
glyphname = S;
layers = (
{
layerId = "DBD9F252-B0AF-4540-AABD-DA467279EDBA";
shapes = (
{
closed = 1;
nodes = (
(189,362,o),
(100,382,o),
(94,470,c),
(94,505,o),
(114,534,o),
(154,557,cs),
(200,583,o),
(264,596,o),
(327,596,cs),
(389,596,o),
(450,584,o),
(493,559,cs),
(518,545,o),
(535,527,o),
(543,507,cs),
(551,488,o),
(568,475,o),
(589,475,c),
(592,475,l),
(592,524,o),
(565,566,o),
(514,596,cs),
(464,624,o),
(396,639,o),
(327,639,cs),
(256,639,o),
(185,623,o),
(133,593,cs),
(80,563,o),
(52,520,o),
(52,468,c),
(61,338,o),
(198,318,o),
(318,300,cs),
(454,280,o),
(543,261,o),
(549,171,c),
(549,135,o),
(529,105,o),
(488,82,cs),
(442,55,o),
(378,42,o),
(315,42,cs),
(254,42,o),
(194,54,o),
(151,79,cs),
(126,93,o),
(109,111,o),
(101,131,cs),
(93,150,o),
(75,164,o),
(54,164,c),
(52,164,l),
(52,114,o),
(79,72,o),
(130,42,cs),
(179,14,o),
(247,0,o),
(315,0,cs),
(386,0,o),
(457,15,o),
(509,45,cs),
(563,76,o),
(592,120,o),
(591,173,c),
(583,304,o),
(445,324,o),
(324,342,c)
);
}
);
width = 644;
}
);
leftKerningGroup = S2;
rightKerningGroup = S;
unicode = 83;
},
{
glyphname = T;
layers = (
{
layerId = "DBD9F252-B0AF-4540-AABD-DA467279EDBA";
shapes = (
{
closed = 1;
nodes = (
(122,641,l),
(99,641,o),
(80,622,o),
(80,599,c),
(299,599,l),
(299,0,l),
(322,0,o),
(341,19,o),
(341,42,cs),
(341,599,l),
(518,599,ls),
(541,599,o),
(560,618,o),
(560,641,c)
);
}
);
width = 640;
}
);
unicode = 84;
},
{
glyphname = U;
layers = (
{
layerId = "DBD9F252-B0AF-4540-AABD-DA467279EDBA";
shapes = (
{
closed = 1;
nodes = (
(518,245,ls),
(518,130,o),
(421,36,o),
(304,42,cs),
(195,47,o),
(111,142,o),
(111,251,cs),
(111,639,l),
(88,639,o),
(69,621,o),
(69,597,cs),
(69,252,ls),
(69,114,o),
(181,-3,o),
(319,0,cs),
(453,2,o),
(560,111,o),
(560,245,cs),
(560,639,l),
(537,639,o),
(518,621,o),
(518,597,c)
);
}
);
width = 630;
}
);
leftKerningGroup = U2;
rightKerningGroup = U;
unicode = 85;
},
{
glyphname = V;
layers = (
{
layerId = "DBD9F252-B0AF-4540-AABD-DA467279EDBA";
shapes = (
{
closed = 1;
nodes = (
(332,71,l),
(84,598,ls),
(72,623,o),
(46,640,o),
(17,640,c),
(312,12,ls),
(316,5,o),
(323,0,o),
(332,0,cs),
(340,0,o),
(347,5,o),
(351,12,cs),
(646,640,l),
(618,640,o),
(592,623,o),
(579,598,c)
);
}
);
width = 664;
}
);
unicode = 86;
},
{
glyphname = W;
layers = (
{
layerId = "DBD9F252-B0AF-4540-AABD-DA467279EDBA";
shapes = (
{
closed = 1;
nodes = (
(550,104,l),
(428,566,ls),
(425,576,o),
(417,582,o),
(407,582,cs),
(398,582,o),
(389,576,o),
(387,566,cs),
(265,104,l),
(135,599,ls),
(128,624,o),
(106,641,o),
(80,641,c),
(245,16,ls),
(247,6,o),
(256,0,o),
(265,0,cs),
(275,0,o),
(283,6,o),
(286,16,cs),
(407,478,l),
(529,16,ls),
(532,6,o),
(540,0,o),
(550,0,cs),
(559,0,o),
(568,6,o),
(570,16,cs),
(735,641,l),
(709,641,o),
(686,624,o),
(680,599,cs)
);
}
);
width = 815;
}
);
unicode = 87;
},
{
glyphname = X;
layers = (
{
layerId = "DBD9F252-B0AF-4540-AABD-DA467279EDBA";
shapes = (
{
closed = 1;
nodes = (
(632,641,l),
(598,641,o),
(566,625,o),
(546,599,cs),
(356,355,l),
(167,599,ls),
(146,625,o),
(114,641,o),
(80,641,c),
(329,320,l),
(80,0,l),
(114,0,o),
(146,16,o),
(167,42,cs),
(356,286,l),
(546,42,ls),
(566,16,o),
(598,0,o),
(632,0,c),
(383,320,l)
);
}
);
width = 712;
}
);
unicode = 88;
},
{
glyphname = Y;
layers = (
{
layerId = "DBD9F252-B0AF-4540-AABD-DA467279EDBA";
shapes = (
{
closed = 1;
nodes = (
(531,640,l),
(498,640,o),
(467,624,o),
(448,598,cs),
(271,356,l),
(95,598,ls),
(76,624,o),
(45,640,o),
(12,640,c),
(250,313,l),
(250,0,l),
(274,0,o),
(293,19,o),
(293,42,cs),
(293,313,l)
);
}
);
width = 543;
}
);
leftKerningGroup = Y2;
rightKerningGroup = Y;
unicode = 89;
},
{
glyphname = Z;
layers = (
{
layerId = "DBD9F252-B0AF-4540-AABD-DA467279EDBA";
shapes = (
{
closed = 1;
nodes = (
(144,42,l),
(581,607,ls),
(586,613,o),
(587,622,o),
(584,629,cs),
(580,636,o),
(573,641,o),
(565,641,cs),
(148,641,l),
(125,641,o),
(106,622,o),
(106,598,c),
(522,598,l),
(84,34,ls),
(79,28,o),
(79,19,o),
(82,12,cs),
(86,5,o),
(93,0,o),
(101,0,c),
(101,0,l),
(586,1,l),
(586,25,o),
(567,44,o),
(543,44,c)
);
}
);
width = 666;
}
);
leftKerningGroup = Z2;
rightKerningGroup = Z;
unicode = 90;
},
{
glyphname = bracketleft;
layers = (
{
layerId = "DBD9F252-B0AF-4540-AABD-DA467279EDBA";
shapes = (
{
closed = 1;
nodes = (
(168,598,o),
(175,607,o),
(175,618,cs),
(175,640,l),
(175,640,o),
(175,640,o),
(175,640,c),
(122,640,o),
(79,597,o),
(79,544,cs),
(79,96,ls),
(79,43,o),
(122,0,o),
(175,0,c),
(175,0,o),
(175,0,o),
(175,0,c),
(175,22,ls),
(175,33,o),
(168,42,o),
(158,45,cs),
(137,53,o),
(121,73,o),
(121,96,cs),
(121,544,ls),
(121,567,o),
(137,587,o),
(158,595,c)
);
}
);
width = 246;
}
);
unicode = 91;
},
{
glyphname = backslash;
layers = (
{
layerId = "DBD9F252-B0AF-4540-AABD-DA467279EDBA";
shapes = (
{
closed = 1;
nodes = (
(115,598,ls),
(110,620,o),
(87,634,o),
(64,628,c),
(214,32,ls),
(219,9,o),
(242,-4,o),
(265,1,c)
);
}
);
width = 329;
}
);
unicode = 92;
},
{
glyphname = bracketright;
layers = (
{
layerId = "DBD9F252-B0AF-4540-AABD-DA467279EDBA";
shapes = (
{
closed = 1;
nodes = (
(71,640,o),
(71,640,o),
(71,640,c),
(71,618,ls),
(71,607,o),
(78,598,o),
(88,595,cs),
(109,587,o),
(124,567,o),
(124,544,cs),
(124,96,ls),
(124,73,o),
(109,53,o),
(88,45,cs),
(78,42,o),
(71,33,o),
(71,22,cs),
(71,0,l),
(71,0,o),
(71,0,o),
(71,0,c),
(124,0,o),
(167,43,o),
(167,96,cs),
(167,544,ls),
(167,597,o),
(124,640,o),
(71,640,c)
);
}
);
width = 246;
}
);
unicode = 93;
},
{
glyphname = asciicircum;
layers = (
{
layerId = "DBD9F252-B0AF-4540-AABD-DA467279EDBA";
shapes = (
{
closed = 1;
nodes = (
(208,545,l),
(204,552,o),
(197,556,o),
(189,556,cs),
(181,556,o),
(174,552,o),
(170,545,cs),
(50,305,l),
(71,294,o),
(96,303,o),
(107,323,cs),
(189,488,l),
(271,323,ls),
(282,303,o),
(307,294,o),
(328,305,c)
);
}
);
width = 378;
}
);
unicode = 94;
},
{
glyphname = underscore;
layers = (
{
layerId = "DBD9F252-B0AF-4540-AABD-DA467279EDBA";
shapes = (
{
closed = 1;
nodes = (
(82,42,ls),
(59,42,o),
(40,23,o),
(40,0,c),
(478,0,ls),
(501,0,o),
(520,19,o),
(520,42,c)
);
}
);
width = 559;
}
);
unicode = 95;
},
{
glyphname = grave;
layers = (
{
layerId = "DBD9F252-B0AF-4540-AABD-DA467279EDBA";
shapes = (
{
closed = 1;
nodes = (
(81,526,ls),
(70,547,o),
(45,556,o),
(24,545,c),
(45,503,ls),
(56,482,o),
(81,474,o),
(102,484,c)
);
}
);
width = 141;
}
);
unicode = 96;
},
{
glyphname = a;
layers = (
{
layerId = "DBD9F252-B0AF-4540-AABD-DA467279EDBA";
shapes = (
{
closed = 1;
nodes = (
(485,376,l),
(441,439,o),
(369,480,o),
(287,480,c),
(154,480,o),
(47,373,o),
(47,240,cs),
(47,108,o),
(154,0,o),
(287,0,cs),
(369,0,o),
(441,42,o),
(485,104,c),
(485,0,l),
(508,0,o),
(527,19,o),
(527,43,cs),
(527,480,l),
(504,480,o),
(485,461,o),
(485,438,c)
);
},
{
closed = 1;
nodes = (
(178,43,o),
(89,131,o),
(89,240,cs),
(89,349,o),
(178,438,o),
(287,438,cs),
(396,438,o),
(485,349,o),
(485,240,cs),
(485,131,o),
(396,43,o),
(287,43,cs)
);
}
);
width = 599;
}
);
leftKerningGroup = a2;
rightKerningGroup = a;
unicode = 97;
},
{
glyphname = b;
layers = (
{
layerId = "DBD9F252-B0AF-4540-AABD-DA467279EDBA";
shapes = (
{
closed = 1;
nodes = (
(231,484,o),
(157,441,o),
(114,377,c),
(114,640,l),
(91,640,o),
(72,621,o),
(72,598,cs),
(72,0,l),
(95,0,o),
(114,19,o),
(114,43,cs),
(114,111,l),
(157,47,o),
(231,4,o),
(314,4,cs),
(447,4,o),
(554,111,o),
(554,244,cs),
(554,376,o),
(447,484,o),
(314,484,c)
);
},
{
closed = 1;
nodes = (
(205,46,o),
(117,135,o),
(117,244,cs),
(117,353,o),
(205,442,o),
(314,442,cs),
(423,442,o),
(512,353,o),
(512,244,cs),
(512,135,o),
(423,46,o),
(314,46,cs)
);
}
);
width = 602;
}
);
unicode = 98;
},
{
glyphname = c;
layers = (
{
layerId = "DBD9F252-B0AF-4540-AABD-DA467279EDBA";
shapes = (
{
closed = 1;
nodes = (
(371,56,o),
(330,42,o),
(287,42,cs),
(168,42,o),
(73,147,o),
(92,269,cs),
(101,334,o),
(144,391,o),
(203,418,cs),
(273,450,o),
(349,439,o),
(405,397,cs),
(423,383,o),
(448,384,o),
(465,399,c),
(420,450,o),
(355,479,o),
(287,479,cs),
(155,479,o),
(47,371,o),
(47,239,cs),
(47,107,o),
(155,0,o),
(287,0,cs),
(355,0,o),
(420,29,o),
(465,79,c),
(448,95,o),
(423,95,o),
(405,81,c)
);
}
);
width = 502;
}
);
leftKerningGroup = a2;
rightKerningGroup = c;
unicode = 99;
},
{
glyphname = d;
layers = (
{
layerId = "DBD9F252-B0AF-4540-AABD-DA467279EDBA";
shapes = (
{
closed = 1;
nodes = (
(527,240,o),
(527,240,o),
(527,240,c),
(527,640,l),
(504,640,o),
(485,621,o),
(485,598,cs),
(485,376,l),
(441,439,o),
(369,480,o),
(287,480,cs),
(154,480,o),
(47,373,o),
(47,240,cs),
(47,108,o),
(154,0,o),
(287,0,cs),
(369,0,o),
(441,42,o),
(485,104,c),
(485,0,l),
(508,0,o),
(527,19,o),
(527,43,c),
(527,43,o),
(527,240,o),
(527,240,c)
);
},
{
closed = 1;
nodes = (
(178,43,o),
(89,131,o),
(89,240,cs),
(89,349,o),
(178,438,o),
(287,438,cs),
(396,438,o),
(485,349,o),
(485,240,c),
(485,240,l),
(485,131,o),
(396,43,o),
(287,43,c)
);
}
);
width = 599;
}
);
rightKerningGroup = H;
unicode = 100;
},
{
glyphname = e;
layers = (
{
layerId = "DBD9F252-B0AF-4540-AABD-DA467279EDBA";
shapes = (
{
closed = 1;
nodes = (
(413,76,o),
(354,43,o),
(287,43,cs),
(178,43,o),
(89,131,o),
(89,240,c),
(494,240,l),
(527,240,l),
(527,382,o),
(404,495,o),
(260,479,cs),
(150,466,o),
(61,378,o),
(49,268,cs),
(33,123,o),
(145,0,o),
(287,0,cs),
(391,0,o),
(480,67,o),
(513,160,c),
(510,160,ls),
(485,160,o),
(463,148,o),
(449,128,c)
);
},
{
closed = 1;
nodes = (
(381,438,o),
(460,371,o),
(480,283,c),
(94,283,l),
(113,371,o),
(193,438,o),
(287,438,cs)
);
}
);
width = 571;
}
);
leftKerningGroup = a2;
rightKerningGroup = e;
unicode = 101;
},
{
glyphname = f;
layers = (
{
layerId = "DBD9F252-B0AF-4540-AABD-DA467279EDBA";
shapes = (
{
closed = 1;
nodes = (
(257,598,o),
(275,616,o),
(275,638,cs),
(275,640,l),
(235,640,ls),
(157,640,o),
(94,577,o),
(94,499,cs),
(94,480,l),
(77,480,ls),
(54,480,o),
(35,461,o),
(35,438,c),
(94,438,l),
(94,0,l),
(117,0,o),
(136,19,o),
(136,43,cs),
(136,438,l),
(233,438,ls),
(256,438,o),
(275,457,o),
(275,480,c),
(136,480,l),
(136,499,ls),
(136,554,o),
(180,598,o),
(235,598,cs)
);
}
);
width = 295;
}
);
unicode = 102;
},
{
glyphname = g;
layers = (
{
layerId = "DBD9F252-B0AF-4540-AABD-DA467279EDBA";
shapes = (
{
closed = 1;
nodes = (
(297,161,l),
(297,161,l),
(430,161,o),
(537,233,o),
(537,321,cs),
(537,368,o),
(507,410,o),
(459,439,c),
(496,439,ls),
(519,439,o),
(538,458,o),
(538,482,c),
(298,482,l),
(298,481,l),
(298,481,o),
(298,481,o),
(297,481,c),
(165,481,o),
(57,410,o),
(57,321,cs),
(57,272,o),
(91,227,o),
(144,198,c),
(94,183,o),
(57,136,o),
(57,81,cs),
(57,30,o),
(89,-14,o),
(133,-32,c),
(86,-54,o),
(57,-85,o),
(57,-120,cs),
(57,-186,o),
(165,-240,o),
(297,-240,cs),
(430,-240,o),
(537,-186,o),
(537,-120,cs),
(537,-53,o),
(430,0,o),
(297,0,c),
(297,1,l),
(179,1,ls),
(135,1,o),
(99,37,o),
(99,81,cs),
(99,125,o),
(135,161,o),
(179,161,c)
);
},
{
closed = 1;
nodes = (
(99,385,o),
(190,439,o),
(297,439,cs),
(404,439,o),
(495,385,o),
(495,321,cs),
(495,258,o),
(404,204,o),
(297,204,cs),
(190,204,o),
(99,258,o),
(99,321,cs)
);
},
{
closed = 1;
nodes = (
(416,-42,o),
(495,-89,o),
(495,-120,cs),
(495,-150,o),
(416,-197,o),
(297,-197,cs),
(178,-197,o),
(99,-150,o),
(99,-120,cs),
(99,-89,o),
(178,-42,o),
(297,-42,cs)
);
}
);
width = 579;
}
);
unicode = 103;
},
{
glyphname = h;
layers = (
{
layerId = "DBD9F252-B0AF-4540-AABD-DA467279EDBA";
shapes = (
{
closed = 1;
nodes = (
(212,477,o),
(152,441,o),
(114,387,c),
(114,641,l),
(91,641,o),
(72,622,o),
(72,599,cs),
(72,0,l),
(95,0,o),
(114,19,o),
(114,43,cs),
(114,220,l),
(114,220,l),
(114,260,ls),
(114,364,o),
(204,448,o),
(310,438,cs),
(403,429,o),
(472,348,o),
(472,255,cs),
(472,1,l),
(495,1,o),
(514,20,o),
(514,44,cs),
(514,260,ls),
(514,386,o),
(409,487,o),
(282,481,c)
);
}
);
width = 576;
}
);
unicode = 104;
},
{
glyphname = i;
layers = (
{
layerId = "DBD9F252-B0AF-4540-AABD-DA467279EDBA";
shapes = (
{
closed = 1;
nodes = (
(72,0,l),
(96,0,o),
(115,19,o),
(115,43,cs),
(115,480,l),
(91,480,o),
(72,461,o),
(72,438,cs)
);
},
{
closed = 1;
nodes = (
(72,640,o),
(54,622,o),
(54,600,cs),
(54,578,o),
(72,560,o),
(94,560,cs),
(116,560,o),
(134,578,o),
(134,600,cs),
(134,622,o),
(116,640,o),
(94,640,cs)
);
}
);
width = 187;
}
);
rightKerningGroup = i;
unicode = 105;
},
{
glyphname = j;
layers = (
{
layerId = "DBD9F252-B0AF-4540-AABD-DA467279EDBA";
shapes = (
{
closed = 1;
nodes = (
(116,557,o),
(134,575,o),
(134,597,cs),
(134,619,o),
(116,637,o),
(94,637,cs),
(72,637,o),
(54,619,o),
(54,597,cs),
(54,575,o),
(72,557,o),
(94,557,cs)
);
},
{
closed = 1;
nodes = (
(73,-59,ls),
(73,-123,o),
(29,-177,o),
(-31,-193,cs),
(-52,-198,o),
(-66,-218,o),
(-66,-240,c),
(34,-240,o),
(115,-158,o),
(115,-59,cs),
(115,477,l),
(92,477,o),
(73,458,o),
(73,435,c)
);
}
);
width = 188;
}
);
rightKerningGroup = i;
unicode = 106;
},
{
glyphname = k;
layers = (
{
layerId = "DBD9F252-B0AF-4540-AABD-DA467279EDBA";
shapes = (
{
closed = 1;
nodes = (
(427,466,l),
(412,484,o),
(385,486,o),
(367,470,cs),
(114,249,l),
(114,642,l),
(91,642,o),
(72,623,o),
(72,600,cs),
(72,2,l),
(95,2,o),
(114,21,o),
(114,45,cs),
(114,164,l),
(366,7,ls),
(386,-6,o),
(412,1,o),
(424,20,c),
(129,205,l)
);
}
);
width = 455;
}
);
unicode = 107;
},
{
glyphname = l;
layers = (
{
layerId = "DBD9F252-B0AF-4540-AABD-DA467279EDBA";
shapes = (
{
closed = 1;
nodes = (
(72,0,l),
(95,0,o),
(114,19,o),
(114,43,cs),
(114,640,l),
(91,640,o),
(72,621,o),
(72,598,cs)
);
}
);
width = 187;
}
);
rightKerningGroup = H;
unicode = 108;
},
{
glyphname = m;
layers = (
{
layerId = "DBD9F252-B0AF-4540-AABD-DA467279EDBA";
shapes = (
{
closed = 1;
nodes = (
(548,476,o),
(485,431,o),
(454,367,c),
(421,434,o),
(353,480,o),
(273,480,cs),
(209,480,o),
(151,450,o),
(114,402,c),
(114,480,l),
(91,480,o),
(72,461,o),
(72,438,cs),
(72,0,l),
(95,0,o),
(114,19,o),
(114,43,cs),
(114,279,ls),
(114,367,o),
(186,438,o),
(273,438,cs),
(361,438,o),
(432,367,o),
(432,279,c),
(432,279,l),
(432,277,o),
(432,275,o),
(432,273,cs),
(432,0,l),
(455,0,o),
(474,19,o),
(474,43,cs),
(474,279,ls),
(474,372,o),
(554,446,o),
(648,437,cs),
(731,430,o),
(792,357,o),
(792,275,cs),
(792,0,l),
(815,0,o),
(834,19,o),
(834,43,cs),
(834,279,ls),
(834,393,o),
(738,486,o),
(623,480,c)
);
}
);
width = 898;
}
);
leftKerningGroup = m2;
rightKerningGroup = m;
unicode = 109;
},
{
glyphname = n;
layers = (
{
layerId = "DBD9F252-B0AF-4540-AABD-DA467279EDBA";
shapes = (
{
closed = 1;
nodes = (
(212,477,o),
(152,440,o),
(114,386,c),
(114,480,l),
(91,480,o),
(72,461,o),
(72,438,cs),
(72,0,l),
(95,0,o),
(114,19,o),
(114,43,cs),
(114,259,ls),
(114,363,o),
(204,447,o),
(310,437,cs),
(403,428,o),
(472,347,o),
(472,254,cs),
(472,0,l),
(495,0,o),
(514,19,o),
(514,43,cs),
(514,259,ls),
(514,385,o),
(409,486,o),
(282,480,c)
);
}
);
width = 576;
}
);
leftKerningGroup = m2;
rightKerningGroup = m;
unicode = 110;
},
{
glyphname = o;
layers = (
{
layerId = "DBD9F252-B0AF-4540-AABD-DA467279EDBA";
shapes = (
{
closed = 1;
nodes = (
(154,480,o),
(47,373,o),
(47,240,cs),
(47,108,o),
(154,0,o),
(287,0,cs),
(420,0,o),
(527,108,o),
(527,240,cs),
(527,373,o),
(420,480,o),
(287,480,cs)
);
},
{
closed = 1;
nodes = (
(178,43,o),
(89,131,o),
(89,240,cs),
(89,349,o),
(178,438,o),
(287,438,cs),
(396,438,o),
(485,349,o),
(485,240,cs),
(485,131,o),
(396,43,o),
(287,43,cs)
);
}
);
width = 574;
}
);
leftKerningGroup = a2;
rightKerningGroup = o;
unicode = (111,246);
},
{
glyphname = p;
layers = (
{
layerId = "DBD9F252-B0AF-4540-AABD-DA467279EDBA";
shapes = (
{
closed = 1;
nodes = (
(230,480,o),
(158,439,o),
(114,376,c),
(114,480,l),
(91,480,o),
(72,461,o),
(72,438,cs),
(72,-240,l),
(95,-240,o),
(114,-221,o),
(114,-197,cs),
(114,104,l),
(158,42,o),
(230,0,o),
(312,0,cs),
(445,0,o),
(552,108,o),
(552,240,cs),
(552,373,o),
(445,480,o),
(312,480,c)
);
},
{
closed = 1;
nodes = (
(203,43,o),
(114,131,o),
(114,240,cs),
(114,349,o),
(203,438,o),
(312,438,cs),
(421,438,o),
(510,349,o),
(510,240,cs),
(510,131,o),
(421,43,o),
(312,43,cs)
);
}
);
width = 599;
}
);
leftKerningGroup = m2;
rightKerningGroup = o;
unicode = 112;
},
{
glyphname = q;
layers = (
{
layerId = "DBD9F252-B0AF-4540-AABD-DA467279EDBA";
shapes = (
{
closed = 1;
nodes = (
(485,376,l),
(441,439,o),
(369,480,o),
(287,480,cs),
(154,480,o),
(47,373,o),
(47,240,cs),
(47,108,o),
(154,0,o),
(287,0,cs),
(369,0,o),
(441,42,o),
(485,104,c),
(485,-197,ls),
(485,-221,o),
(504,-240,o),
(527,-240,c),
(527,438,ls),
(527,461,o),
(508,480,o),
(485,480,c)
);
},
{
closed = 1;
nodes = (
(178,43,o),
(89,131,o),
(89,240,cs),
(89,349,o),
(178,438,o),
(287,438,cs),
(396,438,o),
(485,349,o),
(485,240,cs),
(485,131,o),
(396,43,o),
(287,43,cs)
);
}
);
width = 599;
}
);
leftKerningGroup = a2;
rightKerningGroup = a;
unicode = 113;
},
{
glyphname = r;
layers = (
{
layerId = "DBD9F252-B0AF-4540-AABD-DA467279EDBA";
shapes = (
{
closed = 1;
nodes = (
(197,480,o),
(148,455,o),
(114,415,c),
(114,480,l),
(91,480,o),
(72,461,o),
(72,438,cs),
(72,0,l),
(95,0,o),
(114,19,o),
(114,43,cs),
(114,295,ls),
(114,345,o),
(139,393,o),
(181,418,cs),
(216,439,o),
(255,443,o),
(290,433,cs),
(311,427,o),
(333,437,o),
(344,456,c),
(316,472,o),
(285,480,o),
(253,480,c)
);
}
);
width = 365;
}
);
leftKerningGroup = m2;
unicode = 114;
},
{
glyphname = s;
layers = (
{
layerId = "DBD9F252-B0AF-4540-AABD-DA467279EDBA";
shapes = (
{
closed = 1;
nodes = (
(269,263,l),
(163,278,o),
(98,291,o),
(93,352,c),
(94,373,o),
(107,392,o),
(134,408,cs),
(202,447,o),
(334,448,o),
(401,409,cs),
(415,401,o),
(425,392,o),
(431,382,cs),
(441,366,o),
(457,355,o),
(476,355,c),
(481,355,l),
(481,392,o),
(461,424,o),
(422,446,cs),
(342,492,o),
(194,492,o),
(113,444,cs),
(72,421,o),
(51,389,o),
(51,351,cs),
(51,349,ls),
(58,249,o),
(167,234,o),
(263,221,cs),
(369,206,o),
(434,193,o),
(439,131,c),
(439,108,o),
(425,89,o),
(397,73,cs),
(328,33,o),
(199,32,o),
(132,71,cs),
(118,79,o),
(107,88,o),
(101,99,cs),
(91,115,o),
(75,126,o),
(56,126,c),
(51,126,l),
(51,89,o),
(72,57,o),
(111,34,cs),
(150,12,o),
(205,0,o),
(261,0,cs),
(318,0,o),
(377,12,o),
(418,36,cs),
(460,60,o),
(481,93,o),
(481,132,cs),
(481,133,ls),
(474,234,o),
(365,250,o),
(268,263,c)
);
}
);
width = 533;
}
);
unicode = 115;
},
{
glyphname = t;
layers = (
{
layerId = "DBD9F252-B0AF-4540-AABD-DA467279EDBA";
shapes = (
{
closed = 1;
nodes = (
(178,43,o),
(134,87,o),
(134,141,cs),
(134,438,l),
(231,438,ls),
(254,438,o),
(273,457,o),
(273,480,c),
(134,480,l),
(134,640,l),
(111,640,o),
(92,621,o),
(92,598,cs),
(92,480,l),
(75,480,ls),
(52,480,o),
(33,461,o),
(33,438,c),
(92,438,l),
(92,141,ls),
(92,64,o),
(155,0,o),
(233,0,cs),
(273,0,l),
(273,3,ls),
(273,25,o),
(255,43,o),
(233,43,c)
);
}
);
width = 302;
}
);
unicode = 116;
},
{
glyphname = u;
layers = (
{
layerId = "DBD9F252-B0AF-4540-AABD-DA467279EDBA";
shapes = (
{
closed = 1;
nodes = (
(434,207,ls),
(434,111,o),
(351,34,o),
(253,43,cs),
(168,52,o),
(104,127,o),
(104,212,cs),
(104,480,l),
(81,480,o),
(62,461,o),
(62,438,cs),
(62,213,ls),
(62,102,o),
(147,6,o),
(259,1,cs),
(330,-3,o),
(394,30,o),
(434,82,c),
(434,0,l),
(457,0,o),
(476,19,o),
(476,43,cs),
(476,438,ls),
(476,461,o),
(457,480,o),
(434,480,c)
);
}
);
width = 548;
}
);
rightKerningGroup = a;
unicode = 117;
},
{
glyphname = v;
layers = (
{
layerId = "DBD9F252-B0AF-4540-AABD-DA467279EDBA";
shapes = (
{
closed = 1;
nodes = (
(238,77,l),
(87,438,ls),
(77,464,o),
(52,480,o),
(24,480,c),
(219,13,ls),
(222,6,o),
(230,0,o),
(238,0,cs),
(247,0,o),
(254,6,o),
(258,13,cs),
(452,480,l),
(424,480,o),
(399,464,o),
(389,438,c)
);
}
);
width = 477;
}
);
leftKerningGroup = v2;
rightKerningGroup = v;
unicode = 118;
},
{
glyphname = w;
layers = (
{
layerId = "DBD9F252-B0AF-4540-AABD-DA467279EDBA";
shapes = (
{
closed = 1;
nodes = (
(558,76,l),
(417,401,ls),
(414,408,o),
(406,413,o),
(398,413,cs),
(390,413,o),
(382,408,o),
(379,401,cs),
(238,76,l),
(87,438,ls),
(77,463,o),
(52,480,o),
(24,480,c),
(219,13,ls),
(222,5,o),
(229,0,o),
(238,0,c),
(238,0,l),
(247,0,o),
(254,5,o),
(257,13,cs),
(398,339,l),
(539,13,ls),
(542,5,o),
(549,0,o),
(558,0,cs),
(567,0,o),
(574,5,o),
(578,13,cs),
(772,480,l),
(744,480,o),
(719,463,o),
(709,438,c)
);
}
);
width = 797;
}
);
leftKerningGroup = v2;
rightKerningGroup = v;
unicode = 119;
},
{
glyphname = x;
layers = (
{
layerId = "DBD9F252-B0AF-4540-AABD-DA467279EDBA";
shapes = (
{
closed = 1;
nodes = (
(564,480,l),
(525,480,o),
(489,465,o),
(462,438,cs),
(294,270,l),
(126,438,ls),
(99,465,o),
(62,480,o),
(24,480,c),
(264,240,l),
(24,0,l),
(62,0,o),
(99,16,o),
(126,43,cs),
(294,210,l),
(462,43,ls),
(489,16,o),
(525,0,o),
(564,0,c),
(324,240,l)
);
}
);
width = 588;
}
);
unicode = 120;
},
{
glyphname = y;
layers = (
{
layerId = "DBD9F252-B0AF-4540-AABD-DA467279EDBA";
shapes = (
{
closed = 1;
nodes = (
(244,73,l),
(81,456,ls),
(71,477,o),
(46,487,o),
(25,478,c),
(222,18,l),
(165,-117,ls),
(149,-155,o),
(117,-182,o),
(79,-193,cs),
(58,-198,o),
(44,-218,o),
(44,-240,c),
(114,-240,o),
(177,-198,o),
(204,-133,cs),
(464,478,l),
(464,478,l),
(442,487,o),
(418,477,o),
(408,456,c)
);
}
);
width = 489;
}
);
leftKerningGroup = v2;
rightKerningGroup = v;
unicode = 121;
},
{
glyphname = z;
layers = (
{
layerId = "DBD9F252-B0AF-4540-AABD-DA467279EDBA";
shapes = (
{
closed = 1;
nodes = (
(533,477,o),
(525,482,o),
(516,482,cs),
(83,482,ls),
(60,482,o),
(41,463,o),
(41,440,c),
(463,440,l),
(39,36,ls),
(32,30,o),
(30,21,o),
(34,13,cs),
(37,5,o),
(45,0,o),
(53,0,c),
(53,0,l),
(479,1,ls),
(502,1,o),
(521,20,o),
(521,43,c),
(106,42,l),
(531,446,ls),
(537,452,o),
(539,461,o),
(536,469,c)
);
}
);
width = 569;
}
);
unicode = 122;
},
{
glyphname = braceleft;
layers = (
{
layerId = "DBD9F252-B0AF-4540-AABD-DA467279EDBA";
shapes = (
{
closed = 1;
nodes = (
(185,56,o),
(176,68,o),
(176,81,cs),
(176,237,ls),
(176,271,o),
(158,302,o),
(127,323,c),
(158,344,o),
(176,375,o),
(176,409,cs),
(176,565,ls),
(176,578,o),
(185,589,o),
(199,597,cs),
(218,606,o),
(230,625,o),
(230,646,c),
(177,646,o),
(133,610,o),
(133,565,cs),
(133,409,ls),
(133,383,o),
(115,360,o),
(84,348,cs),
(74,344,o),
(67,334,o),
(67,323,cs),
(67,312,o),
(74,302,o),
(84,298,cs),
(115,286,o),
(133,263,o),
(133,237,cs),
(133,81,ls),
(133,36,o),
(177,0,o),
(230,0,c),
(230,21,o),
(218,40,o),
(199,49,cs)
);
}
);
width = 299;
}
);
unicode = 123;
},
{
glyphname = verticalbar;
layers = (
{
layerId = "DBD9F252-B0AF-4540-AABD-DA467279EDBA";
shapes = (
{
closed = 1;
nodes = (
(80,43,ls),
(80,19,o),
(99,0,o),
(122,0,c),
(122,598,ls),
(122,621,o),
(103,640,o),
(80,640,c)
);
}
);
width = 203;
}
);
unicode = 124;
},
{
glyphname = braceright;
layers = (
{
layerId = "DBD9F252-B0AF-4540-AABD-DA467279EDBA";
shapes = (
{
closed = 1;
nodes = (
(184,360,o),
(166,383,o),
(166,409,cs),
(166,565,ls),
(166,610,o),
(122,646,o),
(69,646,c),
(69,625,o),
(81,606,o),
(100,597,cs),
(114,589,o),
(123,578,o),
(123,565,cs),
(123,409,ls),
(123,375,o),
(141,344,o),
(172,323,c),
(141,302,o),
(123,271,o),
(123,237,cs),
(123,81,ls),
(123,68,o),
(114,56,o),
(100,49,cs),
(81,40,o),
(69,21,o),
(69,0,c),
(122,0,o),
(166,36,o),
(166,81,cs),
(166,237,ls),
(166,263,o),
(184,286,o),
(214,298,cs),
(225,302,o),
(232,312,o),
(232,323,cs),
(232,334,o),
(225,344,o),
(214,348,cs)
);
}
);
width = 299;
}
);
unicode = 125;
},
{
glyphname = asciitilde;
layers = (
{
layerId = "DBD9F252-B0AF-4540-AABD-DA467279EDBA";
shapes = (
{
closed = 1;
nodes = (
(434,261,o),
(377,293,o),
(313,330,cs),
(234,374,o),
(145,424,o),
(48,326,c),
(64,310,o),
(89,308,o),
(107,321,cs),
(170,362,o),
(227,329,o),
(292,293,cs),
(337,267,o),
(386,240,o),
(437,240,cs),
(475,240,o),
(515,255,o),
(557,296,c),
(541,312,o),
(516,314,o),
(497,302,c)
);
}
);
width = 607;
}
);
unicode = 126;
},
{
glyphname = exclamdown;
layers = (
{
layerId = "DBD9F252-B0AF-4540-AABD-DA467279EDBA";
shapes = (
{
closed = 1;
nodes = (
(94,0,l),
(118,0,o),
(137,19,o),
(137,42,cs),
(137,480,l),
(113,480,o),
(94,461,o),
(94,438,cs)
);
},
{
closed = 1;
nodes = (
(91,642,o),
(73,624,o),
(73,602,cs),
(73,580,o),
(91,562,o),
(113,562,cs),
(135,562,o),
(153,580,o),
(153,602,cs),
(153,624,o),
(135,642,o),
(113,642,cs)
);
}
);
width = 227;
}
);
unicode = 161;
},
{
glyphname = cent;
layers = (
{
layerId = "DBD9F252-B0AF-4540-AABD-DA467279EDBA";
shapes = (
{
closed = 1;
nodes = (
(312,150,o),
(295,147,o),
(278,147,cs),
(254,147,o),
(231,153,o),
(210,163,c),
(301,503,l),
(310,502,o),
(319,500,o),
(328,497,cs),
(349,490,o),
(372,497,o),
(384,516,c),
(385,516,l),
(362,530,o),
(338,540,o),
(312,544,c),
(327,600,ls),
(333,622,o),
(320,645,o),
(297,651,c),
(269,547,l),
(158,542,o),
(69,445,o),
(69,326,cs),
(69,250,o),
(105,183,o),
(161,143,c),
(137,52,ls),
(130,30,o),
(144,7,o),
(166,0,c),
(199,121,l),
(223,111,o),
(250,105,o),
(278,105,cs),
(316,105,o),
(352,115,o),
(385,136,c),
(384,136,l),
(372,155,o),
(349,162,o),
(328,155,c)
);
},
{
closed = 1;
nodes = (
(111,417,o),
(175,492,o),
(257,503,c),
(173,187,l),
(135,220,o),
(111,270,o),
(111,326,cs)
);
}
);
width = 450;
}
);
unicode = 162;
},
{
glyphname = sterling;
layers = (
{
layerId = "DBD9F252-B0AF-4540-AABD-DA467279EDBA";
shapes = (
{
closed = 1;
nodes = (
(432,588,o),
(500,543,o),
(514,462,cs),
(518,440,o),
(535,424,o),
(557,423,cs),
(559,423,l),
(563,545,o),
(473,622,o),
(382,643,cs),
(290,665,o),
(175,637,o),
(125,526,cs),
(123,523,ls),
(98,431,o),
(123,378,o),
(144,331,cs),
(150,318,o),
(156,305,o),
(160,292,c),
(120,292,ls),
(96,292,o),
(78,273,o),
(78,250,c),
(168,250,l),
(171,203,o),
(150,142,o),
(74,40,cs),
(66,30,o),
(68,17,o),
(77,9,cs),
(85,1,o),
(98,1,o),
(107,8,cs),
(176,66,o),
(234,46,o),
(301,24,cs),
(375,0,o),
(458,-28,o),
(552,64,c),
(537,80,o),
(512,83,o),
(494,70,cs),
(431,26,o),
(376,44,o),
(314,65,cs),
(265,81,o),
(211,99,o),
(153,81,c),
(199,156,o),
(213,208,o),
(212,250,c),
(347,250,ls),
(371,250,o),
(390,269,o),
(390,292,c),
(205,292,l),
(199,312,o),
(191,330,o),
(183,348,cs),
(163,392,o),
(143,434,o),
(164,510,c),
(205,598,o),
(298,620,o),
(372,602,cs)
);
}
);
width = 627;
}
);
unicode = 163;
},
{
glyphname = currency;
layers = (
{
layerId = "DBD9F252-B0AF-4540-AABD-DA467279EDBA";
shapes = (
{
closed = 1;
nodes = (
(365,310,l),
(386,337,o),
(398,370,o),
(398,407,cs),
(398,443,o),
(386,477,o),
(365,504,c),
(413,552,l),
(396,568,o),
(370,568,o),
(353,552,cs),
(335,534,l),
(308,555,o),
(274,567,o),
(238,567,cs),
(201,567,o),
(168,555,o),
(141,534,c),
(123,552,ls),
(106,568,o),
(80,568,o),
(63,552,c),
(111,504,l),
(90,477,o),
(78,443,o),
(78,407,cs),
(78,370,o),
(90,337,o),
(111,310,c),
(63,262,l),
(80,245,o),
(106,245,o),
(123,262,cs),
(141,280,l),
(168,259,o),
(201,247,o),
(238,247,cs),
(274,247,o),
(308,259,o),
(335,280,c),
(363,252,ls),
(379,236,o),
(406,236,o),
(422,252,c)
);
},
{
closed = 1;
nodes = (
(327,328,o),
(316,318,o),
(305,310,cs),
(286,297,o),
(263,289,o),
(238,289,cs),
(213,289,o),
(190,297,o),
(171,310,cs),
(159,318,o),
(149,328,o),
(141,340,cs),
(128,359,o),
(120,382,o),
(120,407,cs),
(120,432,o),
(128,455,o),
(141,474,cs),
(149,485,o),
(159,496,o),
(171,504,cs),
(190,517,o),
(213,525,o),
(238,525,cs),
(263,525,o),
(286,517,o),
(305,504,cs),
(316,496,o),
(327,485,o),
(335,474,cs),
(348,455,o),
(356,432,o),
(356,407,cs),
(356,382,o),
(348,359,o),
(335,340,c)
);
}
);
width = 485;
}
);
unicode = 164;
},
{
glyphname = yen;
layers = (
{
layerId = "DBD9F252-B0AF-4540-AABD-DA467279EDBA";
shapes = (
{
closed = 1;
nodes = (
(430,299,ls),
(453,299,o),
(472,318,o),
(472,341,c),
(354,341,l),
(572,640,l),
(539,640,o),
(508,624,o),
(489,598,cs),
(312,356,l),
(136,598,ls),
(117,624,o),
(86,640,o),
(53,640,c),
(271,341,l),
(195,341,ls),
(171,341,o),
(152,322,o),
(152,299,c),
(291,299,l),
(291,261,l),
(195,261,ls),
(171,261,o),
(152,242,o),
(152,219,c),
(291,219,l),
(291,0,l),
(315,0,o),
(334,19,o),
(334,42,cs),
(334,219,l),
(430,219,ls),
(453,219,o),
(472,238,o),
(472,261,c),
(334,261,l),
(334,299,l)
);
}
);
width = 625;
}
);
unicode = 165;
},
{
glyphname = section;
layers = (
{
layerId = "DBD9F252-B0AF-4540-AABD-DA467279EDBA";
shapes = (
{
closed = 1;
nodes = (
(522,401,o),
(425,464,o),
(301,464,cs),
(190,464,o),
(122,503,o),
(122,531,cs),
(122,560,o),
(190,599,o),
(301,599,cs),
(384,599,o),
(443,577,o),
(468,554,cs),
(482,540,o),
(500,531,o),
(520,531,cs),
(522,531,l),
(522,594,o),
(427,641,o),
(301,641,cs),
(175,641,o),
(80,594,o),
(80,531,cs),
(80,492,o),
(117,459,o),
(176,439,c),
(118,414,o),
(80,371,o),
(80,321,cs),
(80,241,o),
(177,178,o),
(301,178,cs),
(412,178,o),
(480,138,o),
(480,110,cs),
(480,82,o),
(412,42,o),
(301,42,cs),
(218,42,o),
(159,65,o),
(135,88,cs),
(120,101,o),
(102,110,o),
(82,110,cs),
(80,110,l),
(80,47,o),
(175,0,o),
(301,0,cs),
(427,0,o),
(522,47,o),
(522,110,cs),
(522,149,o),
(485,183,o),
(426,202,c),
(484,227,o),
(522,271,o),
(522,321,c)
);
},
{
closed = 1;
nodes = (
(204,220,o),
(122,266,o),
(122,321,cs),
(122,375,o),
(204,421,o),
(301,421,cs),
(398,421,o),
(480,375,o),
(480,321,cs),
(480,266,o),
(398,220,o),
(301,220,c)
);
}
);
width = 602;
}
);
unicode = 167;
},
{
glyphname = dieresis;
layers = (
{
layerId = "DBD9F252-B0AF-4540-AABD-DA467279EDBA";
shapes = (
{
closed = 1;
nodes = (
(64,560,o),
(46,542,o),
(46,520,cs),
(46,498,o),
(64,480,o),
(86,480,cs),
(108,480,o),
(126,498,o),
(126,520,cs),
(126,542,o),
(108,560,o),
(86,560,cs)
);
},
{
closed = 1;
nodes = (
(184,560,o),
(166,542,o),
(166,520,cs),
(166,498,o),
(184,480,o),
(206,480,cs),
(228,480,o),
(246,498,o),
(246,520,cs),
(246,542,o),
(228,560,o),
(206,560,cs)
);
}
);
width = 292;
}
);
unicode = 168;
},
{
glyphname = copyright;
layers = (
{
layerId = "DBD9F252-B0AF-4540-AABD-DA467279EDBA";
shapes = (
{
closed = 1;
nodes = (
(174,660,o),
(67,552,o),
(67,420,cs),
(67,287,o),
(174,180,o),
(307,180,cs),
(440,180,o),
(547,287,o),
(547,420,cs),
(547,552,o),
(440,660,o),
(307,660,cs)
);
},
{
closed = 1;
nodes = (
(198,222,o),
(109,311,o),
(109,420,cs),
(109,529,o),
(198,618,o),
(307,618,cs),
(416,618,o),
(505,529,o),
(505,420,cs),
(505,311,o),
(416,222,o),
(307,222,cs)
);
},
{
closed = 1;
nodes = (
(356,331,o),
(332,321,o),
(307,321,cs),
(245,321,o),
(197,378,o),
(211,442,cs),
(217,472,o),
(238,498,o),
(266,510,cs),
(303,526,o),
(343,519,o),
(370,496,cs),
(387,482,o),
(411,478,o),
(430,489,c),
(430,489,l),
(399,544,o),
(335,573,o),
(271,556,cs),
(212,541,o),
(169,488,o),
(166,428,cs),
(162,346,o),
(227,279,o),
(307,279,cs),
(361,279,o),
(409,309,o),
(433,357,c),
(414,367,o),
(390,362,o),
(374,347,cs)
);
}
);
width = 614;
}
);
unicode = 169;
},
{
glyphname = guillemotleft;
layers = (
{
layerId = "DBD9F252-B0AF-4540-AABD-DA467279EDBA";
shapes = (
{
closed = 1;
nodes = (
(253,543,l),
(237,559,o),
(210,559,o),
(193,543,cs),
(65,415,ls),
(56,405,o),
(56,390,o),
(65,381,cs),
(193,253,ls),
(210,236,o),
(237,236,o),
(253,253,c),
(108,398,l)
);
},
{
closed = 1;
nodes = (
(413,543,l),
(397,559,o),
(370,559,o),
(353,543,cs),
(225,415,ls),
(216,405,o),
(216,390,o),
(225,381,cs),
(353,253,ls),
(370,236,o),
(397,236,o),
(413,253,c),
(268,398,l)
);
}
);
width = 471;
}
);
leftKerningGroup = guillemotleft2;
rightKerningGroup = guillemotleft;
unicode = 171;
},
{
glyphname = registered;
layers = (
{
layerId = "DBD9F252-B0AF-4540-AABD-DA467279EDBA";
shapes = (
{
closed = 1;
nodes = (
(174,660,o),
(67,552,o),
(67,420,cs),
(67,288,o),
(174,180,o),
(307,180,cs),
(439,180,o),
(546,288,o),
(546,420,cs),
(546,552,o),
(439,660,o),
(307,660,cs)
);
},
{
closed = 1;
nodes = (
(198,223,o),
(109,311,o),
(109,420,cs),
(109,529,o),
(198,617,o),
(307,617,cs),
(415,617,o),
(504,529,o),
(504,420,cs),
(504,311,o),
(415,223,o),
(307,223,cs)
);
},
{
closed = 1;
nodes = (
(215,551,ls),
(203,551,o),
(194,541,o),
(194,529,cs),
(194,289,l),
(217,289,o),
(236,308,o),
(236,332,cs),
(236,389,l),
(340,389,ls),
(342,389,o),
(343,389,o),
(344,389,c),
(344,389,l),
(362,389,o),
(377,372,o),
(377,352,cs),
(377,332,ls),
(377,308,o),
(396,289,o),
(420,289,c),
(420,352,ls),
(420,375,o),
(410,396,o),
(395,411,c),
(410,425,o),
(420,445,o),
(420,468,cs),
(420,471,ls),
(420,515,o),
(384,551,o),
(340,551,c)
);
},
{
closed = 1;
nodes = (
(236,508,l),
(340,508,ls),
(361,508,o),
(377,492,o),
(377,471,cs),
(377,468,ls),
(377,448,o),
(361,431,o),
(340,431,cs),
(236,431,l)
);
}
);
width = 614;
}
);
unicode = 174;
},
{
glyphname = degree;
layers = (
{
layerId = "DBD9F252-B0AF-4540-AABD-DA467279EDBA";
shapes = (
{
closed = 1;
nodes = (
(91,640,o),
(55,604,o),
(55,560,cs),
(55,516,o),
(91,480,o),
(135,480,cs),
(179,480,o),
(215,516,o),
(215,560,cs),
(215,604,o),
(179,640,o),
(135,640,cs)
);
},
{
closed = 1;
nodes = (
(114,522,o),
(97,539,o),
(97,560,cs),
(97,581,o),
(114,597,o),
(135,597,cs),
(156,597,o),
(173,581,o),
(173,560,cs),
(173,539,o),
(156,522,o),
(135,522,cs)
);
}
);
width = 270;
}
);
unicode = 176;
},
{
glyphname = plusminus;
layers = (
{
layerId = "DBD9F252-B0AF-4540-AABD-DA467279EDBA";
shapes = (
{
closed = 1;
nodes = (
(157,341,l),
(180,341,o),
(199,360,o),
(199,383,cs),
(199,440,l),
(256,440,ls),
(279,440,o),
(298,459,o),
(298,482,c),
(199,482,l),
(199,581,l),
(176,581,o),
(157,562,o),
(157,539,cs),
(157,482,l),
(100,482,ls),
(77,482,o),
(58,463,o),
(58,440,c),
(157,440,l)
);
},
{
closed = 1;
nodes = (
(256,240,ls),
(279,240,o),
(298,259,o),
(298,282,c),
(100,282,ls),
(77,282,o),
(58,263,o),
(58,240,c)
);
}
);
width = 356;
}
);
unicode = 177;
},
{
glyphname = twosuperior;
layers = (
{
layerId = "DBD9F252-B0AF-4540-AABD-DA467279EDBA";
shapes = (
{
closed = 1;
nodes = (
(152,522,l),
(221,591,ls),
(243,613,o),
(250,644,o),
(239,674,cs),
(228,702,o),
(203,720,o),
(174,722,cs),
(172,722,o),
(170,722,o),
(168,722,cs),
(128,722,o),
(93,695,o),
(83,657,c),
(103,652,o),
(123,657,o),
(140,670,cs),
(147,677,o),
(157,680,o),
(168,680,cs),
(169,680,o),
(170,680,o),
(171,680,c),
(184,679,o),
(194,671,o),
(199,659,cs),
(203,648,o),
(203,633,o),
(191,621,cs),
(86,516,ls),
(80,510,o),
(78,501,o),
(82,493,cs),
(85,485,o),
(93,480,o),
(101,480,cs),
(242,480,l),
(242,503,o),
(223,522,o),
(200,522,cs)
);
}
);
width = 324;
}
);
unicode = 178;
},
{
glyphname = threesuperior;
layers = (
{
layerId = "DBD9F252-B0AF-4540-AABD-DA467279EDBA";
shapes = (
{
closed = 1;
nodes = (
(221,624,o),
(228,645,o),
(224,668,cs),
(219,695,o),
(197,717,o),
(171,722,cs),
(127,731,o),
(88,697,o),
(88,655,c),
(115,655,ls),
(123,655,o),
(130,660,o),
(133,667,cs),
(138,675,o),
(146,681,o),
(157,681,cs),
(171,681,o),
(183,669,o),
(183,655,cs),
(183,643,o),
(175,633,o),
(165,630,cs),
(160,628,o),
(157,624,o),
(157,619,cs),
(157,596,ls),
(157,591,o),
(160,586,o),
(166,585,cs),
(180,581,o),
(191,569,o),
(191,554,cs),
(191,537,o),
(175,522,o),
(157,522,cs),
(142,522,o),
(130,531,o),
(125,542,cs),
(122,550,o),
(114,554,o),
(107,554,cs),
(80,554,l),
(80,513,o),
(114,480,o),
(157,480,cs),
(199,480,o),
(233,513,o),
(233,554,cs),
(233,576,o),
(223,596,o),
(208,609,c)
);
}
);
width = 313;
}
);
unicode = 179;
},
{
glyphname = acute;
layers = (
{
layerId = "DBD9F252-B0AF-4540-AABD-DA467279EDBA";
shapes = (
{
closed = 1;
nodes = (
(39,484,l),
(60,474,o),
(85,482,o),
(96,503,cs),
(117,545,l),
(96,556,o),
(71,547,o),
(60,526,c)
);
}
);
width = 141;
}
);
unicode = 180;
},
{
glyphname = paragraph;
layers = (
{
layerId = "DBD9F252-B0AF-4540-AABD-DA467279EDBA";
shapes = (
{
closed = 1;
nodes = (
(465,597,l),
(465,621,o),
(446,640,o),
(423,640,cs),
(225,640,l),
(225,628,l),
(225,628,l),
(225,640,l),
(137,640,o),
(65,568,o),
(65,480,cs),
(65,399,o),
(126,332,o),
(204,321,c),
(204,0,l),
(227,0,o),
(246,18,o),
(246,41,cs),
(246,597,l),
(364,597,l),
(364,0,l),
(387,0,o),
(406,19,o),
(406,42,cs),
(406,597,l)
);
}
);
width = 532;
}
);
unicode = 182;
},
{
glyphname = cedilla;
layers = (
{
layerId = "DBD9F252-B0AF-4540-AABD-DA467279EDBA";
shapes = (
{
closed = 1;
nodes = (
(44,-49,l),
(83,-9,l),
(53,20,l),
(-22,-56,ls),
(-28,-62,o),
(-30,-71,o),
(-26,-79,cs),
(-23,-87,o),
(-15,-92,o),
(-7,-92,cs),
(89,-92,ls),
(103,-92,o),
(114,-104,o),
(112,-119,cs),
(110,-130,o),
(99,-138,o),
(87,-138,cs),
(15,-138,ls),
(-9,-138,o),
(-28,-157,o),
(-28,-180,c),
(86,-180,ls),
(120,-180,o),
(151,-155,o),
(154,-121,cs),
(158,-82,o),
(127,-49,o),
(89,-49,c)
);
}
);
width = 107;
}
);
unicode = 184;
},
{
glyphname = onesuperior;
layers = (
{
layerId = "DBD9F252-B0AF-4540-AABD-DA467279EDBA";
shapes = (
{
closed = 1;
nodes = (
(168,722,o),
(159,720,o),
(153,714,cs),
(80,641,l),
(97,625,o),
(123,625,o),
(140,641,cs),
(147,648,l),
(147,480,l),
(170,480,o),
(189,499,o),
(189,522,cs),
(189,699,ls),
(189,708,o),
(184,716,o),
(176,719,c)
);
}
);
width = 269;
}
);
unicode = 185;
},
{
glyphname = guillemotright;
layers = (
{
layerId = "DBD9F252-B0AF-4540-AABD-DA467279EDBA";
shapes = (
{
closed = 1;
nodes = (
(277,543,ls),
(260,559,o),
(234,559,o),
(217,543,c),
(362,398,l),
(217,253,l),
(234,236,o),
(260,236,o),
(277,253,cs),
(405,381,ls),
(414,390,o),
(414,405,o),
(405,415,cs)
);
},
{
closed = 1;
nodes = (
(117,543,ls),
(100,559,o),
(74,559,o),
(57,543,c),
(202,398,l),
(57,253,l),
(74,236,o),
(100,236,o),
(117,253,cs),
(245,381,ls),
(254,390,o),
(254,405,o),
(245,415,cs)
);
}
);
width = 471;
}
);
leftKerningGroup = guillemotright2;
rightKerningGroup = guillemotright;
unicode = 187;
},
{
glyphname = questiondown;
layers = (
{
layerId = "DBD9F252-B0AF-4540-AABD-DA467279EDBA";
shapes = (
{
closed = 1;
nodes = (
(259,561,o),
(277,579,o),
(277,601,cs),
(277,623,o),
(259,641,o),
(237,641,cs),
(215,641,o),
(197,623,o),
(197,601,cs),
(197,579,o),
(215,561,o),
(237,561,cs)
);
},
{
closed = 1;
nodes = (
(345,68,o),
(293,44,o),
(242,43,cs),
(180,41,o),
(111,74,o),
(105,148,c),
(104,179,o),
(121,208,o),
(160,242,cs),
(162,243,ls),
(260,340,o),
(259,390,o),
(258,443,cs),
(258,454,o),
(257,466,o),
(258,479,c),
(255,479,ls),
(233,481,o),
(215,464,o),
(216,442,c),
(216,442,o),
(216,442,o),
(216,442,c),
(217,395,o),
(217,358,o),
(132,273,c),
(101,247,o),
(61,204,o),
(63,145,c),
(71,43,o),
(162,-2,o),
(243,1,cs),
(322,3,o),
(409,51,o),
(411,151,c),
(390,152,o),
(370,138,o),
(363,118,c)
);
}
);
width = 470;
}
);
unicode = 191;
},
{
glyphname = Agrave;
layers = (
{
layerId = "DBD9F252-B0AF-4540-AABD-DA467279EDBA";
shapes = (
{
closed = 1;
nodes = (
(349,738,ls),
(333,755,o),
(306,755,o),
(290,738,c),
(340,688,ls),
(356,672,o),
(383,672,o),
(400,688,c)
);
},
{
closed = 1;
nodes = (
(368,627,ls),
(365,635,o),
(357,639,o),
(349,639,cs),
(341,639,o),
(334,635,o),
(331,627,cs),
(17,0,l),
(46,0,o),
(73,17,o),
(86,43,cs),
(169,210,l),
(530,210,l),
(613,43,ls),
(626,17,o),
(653,0,o),
(682,0,c)
);
},
{
closed = 1;
nodes = (
(190,252,l),
(349,571,l),
(509,252,l)
);
}
);
width = 699;
}
);
leftKerningGroup = A2;
rightKerningGroup = A;
unicode = 192;
},
{
glyphname = Aacute;
layers = (
{
layerId = "DBD9F252-B0AF-4540-AABD-DA467279EDBA";
shapes = (
{
closed = 1;
nodes = (
(404,738,l),
(388,755,o),
(361,755,o),
(345,738,cs),
(295,688,l),
(311,672,o),
(338,672,o),
(354,688,cs)
);
},
{
closed = 1;
nodes = (
(368,627,l),
(365,635,o),
(357,639,o),
(349,639,cs),
(341,639,o),
(334,635,o),
(331,627,cs),
(17,0,l),
(46,0,o),
(73,17,o),
(85,43,cs),
(169,210,l),
(530,210,l),
(613,43,ls),
(626,17,o),
(653,0,o),
(682,0,c)
);
},
{
closed = 1;
nodes = (
(190,252,l),
(349,571,l),
(509,252,l)
);
}
);
width = 699;
}
);
leftKerningGroup = A2;
rightKerningGroup = A;
unicode = 193;
},
{
glyphname = Acircumflex;
layers = (
{
layerId = "DBD9F252-B0AF-4540-AABD-DA467279EDBA";
shapes = (
{
closed = 1;
nodes = (
(350,708,l),
(370,688,ls),
(387,672,o),
(413,672,o),
(430,688,c),
(380,738,ls),
(372,747,o),
(361,751,o),
(350,751,c),
(339,751,o),
(328,747,o),
(320,738,cs),
(270,688,l),
(286,672,o),
(313,672,o),
(330,688,c)
);
},
{
closed = 1;
nodes = (
(368,627,l),
(365,635,o),
(357,639,o),
(349,639,cs),
(341,639,o),
(334,635,o),
(331,627,cs),
(17,0,l),
(46,0,o),
(73,17,o),
(86,43,cs),
(169,210,l),
(530,210,l),
(613,43,ls),
(626,17,o),
(653,0,o),
(682,0,c)
);
},
{
closed = 1;
nodes = (
(190,252,l),
(349,571,l),
(509,252,l)
);
}
);
width = 699;
}
);
leftKerningGroup = A2;
rightKerningGroup = A;
unicode = 194;
},
{
glyphname = Atilde;
layers = (
{
layerId = "DBD9F252-B0AF-4540-AABD-DA467279EDBA";
shapes = (
{
closed = 1;
nodes = (
(270,739,o),
(300,724,o),
(344,699,cs),
(374,682,o),
(408,663,o),
(445,663,cs),
(472,663,o),
(500,673,o),
(529,703,c),
(529,703,l),
(514,718,o),
(491,721,o),
(471,712,cs),
(439,696,o),
(409,711,o),
(365,736,cs),
(313,765,o),
(248,802,o),
(179,733,c),
(180,732,l),
(195,717,o),
(218,714,o),
(238,724,c)
);
},
{
closed = 1;
nodes = (
(368,627,l),
(365,635,o),
(357,639,o),
(349,639,cs),
(341,639,o),
(334,635,o),
(331,627,cs),
(17,0,l),
(46,0,o),
(73,17,o),
(86,43,cs),
(169,210,l),
(530,210,l),
(613,43,ls),
(626,17,o),
(653,0,o),
(682,0,c)
);
},
{
closed = 1;
nodes = (
(190,252,l),
(349,571,l),
(509,252,l)
);
}
);
width = 699;
}
);
leftKerningGroup = A2;
rightKerningGroup = A;
unicode = 195;
},
{
glyphname = Adieresis;
layers = (
{
layerId = "DBD9F252-B0AF-4540-AABD-DA467279EDBA";
shapes = (
{
closed = 1;
nodes = (
(368,627,l),
(365,635,o),
(357,639,o),
(349,639,cs),
(341,639,o),
(334,635,o),
(331,627,cs),
(17,0,l),
(46,0,o),
(73,17,o),
(86,43,cs),
(169,210,l),
(530,210,l),
(613,43,ls),
(626,17,o),
(653,0,o),
(682,0,c)
);
},
{
closed = 1;
nodes = (
(190,252,l),
(349,571,l),
(509,252,l)
);
},
{
closed = 1;
nodes = (
(313,678,o),
(331,696,o),
(331,718,cs),
(331,740,o),
(313,758,o),
(291,758,cs),
(269,758,o),
(251,740,o),
(251,718,cs),
(251,696,o),
(269,678,o),
(291,678,cs)
);
},
{
closed = 1;
nodes = (
(433,678,o),
(451,696,o),
(451,718,cs),
(451,740,o),
(433,758,o),
(411,758,cs),
(389,758,o),
(371,740,o),
(371,718,cs),
(371,696,o),
(389,678,o),
(411,678,cs)
);
}
);
width = 699;
}
);
leftKerningGroup = A2;
rightKerningGroup = A;
unicode = 196;
},
{
glyphname = Aring;
layers = (
{
layerId = "DBD9F252-B0AF-4540-AABD-DA467279EDBA";
shapes = (
{
closed = 1;
nodes = (
(368,627,l),
(368,628,o),
(367,629,o),
(367,630,c),
(401,639,o),
(427,670,o),
(427,707,cs),
(427,752,o),
(391,787,o),
(347,787,cs),
(303,787,o),
(267,752,o),
(267,707,cs),
(267,668,o),
(295,636,o),
(332,629,c),
(331,628,o),
(331,628,o),
(331,627,c),
(17,0,l),
(46,0,o),
(73,17,o),
(86,43,cs),
(169,210,l),
(530,210,l),
(613,43,ls),
(626,17,o),
(653,0,o),
(682,0,c)
);
},
{
closed = 1;
nodes = (
(309,728,o),
(326,745,o),
(347,745,cs),
(367,745,o),
(384,728,o),
(384,707,cs),
(384,687,o),
(367,670,o),
(347,670,cs),
(326,670,o),
(309,687,o),
(309,707,cs)
);
},
{
closed = 1;
nodes = (
(190,252,l),
(349,571,l),
(509,252,l)
);
}
);
width = 699;
}
);
leftKerningGroup = A2;
rightKerningGroup = A;
unicode = 197;
},
{
glyphname = AE;
layers = (
{
layerId = "DBD9F252-B0AF-4540-AABD-DA467279EDBA";
shapes = (
{
closed = 1;
nodes = (
(323,43,l),
(323,299,l),
(559,299,ls),
(582,299,o),
(601,318,o),
(601,341,c),
(323,341,l),
(323,597,l),
(630,597,ls),
(653,597,o),
(672,616,o),
(672,640,c),
(305,640,l),
(304,640,o),
(304,640,o),
(303,640,c),
(302,640,l),
(296,640,o),
(290,636,o),
(286,632,cs),
(284,630,o),
(282,627,o),
(281,625,cs),
(21,8,l),
(21,8,o),
(21,7,o),
(21,7,c),
(43,-2,o),
(67,8,o),
(76,29,cs),
(165,239,l),
(281,239,l),
(281,21,ls),
(281,10,o),
(291,0,o),
(302,0,cs),
(672,0,l),
(672,24,o),
(653,43,o),
(630,43,c)
);
},
{
closed = 1;
nodes = (
(182,282,l),
(281,515,l),
(281,282,l)
);
}
);
width = 702;
}
);
leftKerningGroup = AE;
rightKerningGroup = E;
unicode = 198;
},
{
glyphname = Ccedilla;
layers = (
{
layerId = "DBD9F252-B0AF-4540-AABD-DA467279EDBA";
shapes = (
{
closed = 1;
nodes = (
(346,-29,l),
(376,1,l),
(429,3,o),
(482,18,o),
(528,45,c),
(516,65,o),
(492,73,o),
(471,64,cs),
(438,51,o),
(402,43,o),
(366,43,cs),
(213,43,o),
(89,167,o),
(89,320,cs),
(89,472,o),
(213,597,o),
(366,597,cs),
(402,597,o),
(438,589,o),
(471,576,cs),
(492,567,o),
(516,575,o),
(528,595,c),
(479,624,o),
(423,639,o),
(366,639,cs),
(190,639,o),
(47,496,o),
(47,320,cs),
(47,160,o),
(166,27,o),
(320,5,c),
(280,-36,ls),
(274,-42,o),
(272,-51,o),
(275,-59,cs),
(279,-67,o),
(286,-72,o),
(295,-72,cs),
(389,-72,ls),
(401,-72,o),
(411,-80,o),
(413,-91,cs),
(416,-105,o),
(405,-118,o),
(391,-118,c),
(316,-118,ls),
(293,-118,o),
(274,-136,o),
(274,-160,c),
(391,-160,l),
(429,-160,o),
(459,-127,o),
(456,-88,cs),
(452,-54,o),
(422,-29,o),
(388,-29,c)
);
}
);
width = 554;
}
);
leftKerningGroup = C2;
rightKerningGroup = C;
unicode = 199;
},
{
glyphname = Egrave;
layers = (
{
layerId = "DBD9F252-B0AF-4540-AABD-DA467279EDBA";
shapes = (
{
closed = 1;
nodes = (
(279,738,ls),
(263,755,o),
(236,755,o),
(220,738,c),
(270,688,ls),
(286,672,o),
(313,672,o),
(330,688,c)
);
},
{
closed = 1;
nodes = (
(121,43,l),
(121,299,l),
(357,299,ls),
(380,299,o),
(399,318,o),
(399,341,c),
(121,341,l),
(121,597,l),
(428,597,ls),
(451,597,o),
(470,616,o),
(470,640,c),
(100,640,ls),
(88,640,o),
(79,630,o),
(79,618,cs),
(79,21,ls),
(79,10,o),
(88,0,o),
(100,0,cs),
(470,0,l),
(470,24,o),
(451,43,o),
(428,43,c)
);
}
);
width = 500;
}
);
leftKerningGroup = B;
rightKerningGroup = E;
unicode = 200;
},
{
glyphname = Eacute;
layers = (
{
layerId = "DBD9F252-B0AF-4540-AABD-DA467279EDBA";
shapes = (
{
closed = 1;
nodes = (
(330,738,l),
(313,755,o),
(286,755,o),
(270,738,cs),
(220,688,l),
(236,672,o),
(263,672,o),
(279,688,cs)
);
},
{
closed = 1;
nodes = (
(121,43,l),
(121,299,l),
(357,299,ls),
(380,299,o),
(399,318,o),
(399,341,c),
(121,341,l),
(121,597,l),
(428,597,ls),
(451,597,o),
(470,616,o),
(470,640,c),
(100,640,ls),
(88,640,o),
(79,630,o),
(79,619,cs),
(79,21,ls),
(79,10,o),
(88,0,o),
(100,0,cs),
(470,0,l),
(470,24,o),
(451,43,o),
(428,43,c)
);
}
);
width = 500;
}
);
leftKerningGroup = B;
rightKerningGroup = E;
unicode = 201;
},
{
glyphname = Ecircumflex;
layers = (
{
layerId = "DBD9F252-B0AF-4540-AABD-DA467279EDBA";
shapes = (
{
closed = 1;
nodes = (
(275,713,l),
(295,693,ls),
(311,676,o),
(338,676,o),
(355,693,c),
(305,743,ls),
(296,751,o),
(285,755,o),
(275,755,c),
(264,755,o),
(253,751,o),
(245,743,cs),
(195,693,l),
(211,676,o),
(238,676,o),
(254,693,c)
);
},
{
closed = 1;
nodes = (
(121,43,l),
(121,299,l),
(357,299,ls),
(380,299,o),
(399,318,o),
(399,341,c),
(121,341,l),
(121,597,l),
(428,597,ls),
(451,597,o),
(470,616,o),
(470,640,c),
(100,640,ls),
(88,640,o),
(79,630,o),
(79,618,cs),
(79,21,ls),
(79,10,o),
(88,0,o),
(100,0,cs),
(470,0,l),
(470,24,o),
(451,43,o),
(428,43,c)
);
}
);
width = 500;
}
);
leftKerningGroup = B;
rightKerningGroup = E;
unicode = 202;
},
{
glyphname = Edieresis;
layers = (
{
layerId = "DBD9F252-B0AF-4540-AABD-DA467279EDBA";
shapes = (
{
closed = 1;
nodes = (
(121,43,l),
(121,299,l),
(357,299,ls),
(380,299,o),
(399,318,o),
(399,341,c),
(121,341,l),
(121,597,l),
(428,597,ls),
(451,597,o),
(470,616,o),
(470,640,c),
(100,640,ls),
(88,640,o),
(79,630,o),
(79,619,cs),
(79,21,ls),
(79,10,o),
(88,0,o),
(100,0,cs),
(470,0,l),
(470,24,o),
(451,43,o),
(428,43,c)
);
},
{
closed = 1;
nodes = (
(237,678,o),
(255,696,o),
(255,718,cs),
(255,740,o),
(237,758,o),
(215,758,cs),
(193,758,o),
(175,740,o),
(175,718,cs),
(175,696,o),
(192,678,o),
(215,678,cs)
);
},
{
closed = 1;
nodes = (
(357,678,o),
(375,696,o),
(375,718,cs),
(375,740,o),
(357,758,o),
(335,758,cs),
(312,758,o),
(295,740,o),
(295,718,cs),
(295,696,o),
(312,678,o),
(335,678,cs)
);
}
);
width = 500;
}
);
leftKerningGroup = B;
rightKerningGroup = E;
unicode = 203;
},
{
glyphname = Igrave;
layers = (
{
layerId = "DBD9F252-B0AF-4540-AABD-DA467279EDBA";
shapes = (
{
closed = 1;
nodes = (
(105,745,ls),
(88,761,o),
(62,761,o),
(45,745,c),
(95,695,ls),
(112,678,o),
(138,678,o),
(155,695,c)
);
},
{
closed = 1;
nodes = (
(79,0,l),
(102,0,o),
(121,19,o),
(121,42,cs),
(121,640,l),
(98,640,o),
(79,621,o),
(79,598,cs)
);
}
);
width = 200;
}
);
unicode = 204;
},
{
glyphname = Iacute;
layers = (
{
layerId = "DBD9F252-B0AF-4540-AABD-DA467279EDBA";
shapes = (
{
closed = 1;
nodes = (
(158,745,l),
(141,761,o),
(115,761,o),
(98,745,cs),
(48,695,l),
(65,678,o),
(91,678,o),
(108,695,cs)
);
},
{
closed = 1;
nodes = (
(80,0,l),
(103,0,o),
(122,19,o),
(122,43,cs),
(122,640,l),
(99,640,o),
(80,621,o),
(80,598,cs)
);
}
);
width = 201;
}
);
unicode = 205;
},
{
glyphname = Icircumflex;
layers = (
{
layerId = "DBD9F252-B0AF-4540-AABD-DA467279EDBA";
shapes = (
{
closed = 1;
nodes = (
(131,744,ls),
(123,752,o),
(112,756,o),
(101,756,c),
(90,756,o),
(79,752,o),
(71,744,cs),
(21,694,l),
(38,677,o),
(64,677,o),
(81,694,cs),
(101,714,l),
(121,694,ls),
(138,677,o),
(165,677,o),
(181,694,c)
);
},
{
closed = 1;
nodes = (
(79,0,l),
(102,0,o),
(121,19,o),
(121,42,cs),
(121,640,l),
(98,640,o),
(79,621,o),
(79,598,cs)
);
}
);
width = 201;
}
);
unicode = 206;
},
{
glyphname = Idieresis;
layers = (
{
layerId = "DBD9F252-B0AF-4540-AABD-DA467279EDBA";
shapes = (
{
closed = 1;
nodes = (
(79,0,l),
(103,0,o),
(122,19,o),
(122,42,cs),
(122,640,l),
(98,640,o),
(79,621,o),
(79,598,cs)
);
},
{
closed = 1;
nodes = (
(62,680,o),
(80,698,o),
(80,720,cs),
(80,742,o),
(62,760,o),
(40,760,cs),
(18,760,o),
(0,742,o),
(0,720,cs),
(0,698,o),
(18,680,o),
(40,680,cs)
);
},
{
closed = 1;
nodes = (
(182,680,o),
(200,698,o),
(200,720,cs),
(200,742,o),
(182,760,o),
(160,760,cs),
(138,760,o),
(120,742,o),
(120,720,cs),
(120,698,o),
(138,680,o),
(160,680,cs)
);
}
);
width = 201;
}
);
unicode = 207;
},
{
glyphname = Eth;
layers = (
{
layerId = "DBD9F252-B0AF-4540-AABD-DA467279EDBA";
shapes = (
{
closed = 1;
nodes = (
(157,640,l),
(157,341,l),
(62,341,ls),
(39,341,o),
(20,322,o),
(20,299,c),
(157,299,l),
(157,0,l),
(317,0,ls),
(494,0,o),
(637,143,o),
(637,320,cs),
(637,497,o),
(494,640,o),
(317,640,c)
);
},
{
closed = 1;
nodes = (
(199,42,l),
(199,299,l),
(378,299,ls),
(401,299,o),
(420,318,o),
(420,341,c),
(199,341,l),
(199,597,l),
(317,597,ls),
(470,597,o),
(595,473,o),
(595,320,cs),
(595,167,o),
(470,42,o),
(317,42,c)
);
}
);
width = 685;
}
);
rightKerningGroup = D;
unicode = 208;
},
{
glyphname = Ntilde;
layers = (
{
layerId = "DBD9F252-B0AF-4540-AABD-DA467279EDBA";
shapes = (
{
closed = 1;
nodes = (
(256,739,o),
(287,724,o),
(331,699,cs),
(361,682,o),
(395,663,o),
(432,663,cs),
(459,663,o),
(487,674,o),
(516,703,c),
(516,703,l),
(500,719,o),
(477,721,o),
(458,712,cs),
(426,696,o),
(395,711,o),
(352,736,cs),
(300,765,o),
(235,802,o),
(166,733,c),
(167,732,l),
(182,717,o),
(205,715,o),
(224,724,c)
);
},
{
closed = 1;
nodes = (
(560,81,l),
(118,631,ls),
(112,638,o),
(103,641,o),
(94,638,cs),
(86,635,o),
(80,627,o),
(80,618,cs),
(80,0,l),
(103,0,o),
(122,19,o),
(122,42,cs),
(122,558,l),
(565,8,ls),
(569,2,o),
(575,0,o),
(581,0,cs),
(583,0,o),
(586,0,o),
(588,1,cs),
(597,4,o),
(602,12,o),
(602,21,cs),
(602,640,l),
(579,640,o),
(560,621,o),
(560,598,c)
);
}
);
width = 683;
}
);
leftKerningGroup = B;
rightKerningGroup = H;
unicode = 209;
},
{
glyphname = Ograve;
layers = (
{
layerId = "DBD9F252-B0AF-4540-AABD-DA467279EDBA";
shapes = (
{
closed = 1;
nodes = (
(369,752,ls),
(352,768,o),
(326,768,o),
(309,752,c),
(359,702,ls),
(376,685,o),
(402,685,o),
(419,702,c)
);
},
{
closed = 1;
nodes = (
(190,640,o),
(47,496,o),
(47,320,cs),
(47,143,o),
(190,0,o),
(367,0,cs),
(544,0,o),
(687,143,o),
(687,320,cs),
(687,496,o),
(544,640,o),
(367,640,cs)
);
},
{
closed = 1;
nodes = (
(214,42,o),
(89,167,o),
(89,320,cs),
(89,473,o),
(214,597,o),
(367,597,cs),
(520,597,o),
(645,473,o),
(645,320,cs),
(645,167,o),
(520,42,o),
(367,42,cs)
);
}
);
width = 734;
}
);
leftKerningGroup = C2;
rightKerningGroup = D;
unicode = 210;
},
{
glyphname = Oacute;
layers = (
{
layerId = "DBD9F252-B0AF-4540-AABD-DA467279EDBA";
shapes = (
{
closed = 1;
nodes = (
(417,752,l),
(400,768,o),
(374,768,o),
(357,752,cs),
(307,702,l),
(324,685,o),
(350,685,o),
(367,702,cs)
);
},
{
closed = 1;
nodes = (
(190,640,o),
(47,496,o),
(47,320,cs),
(47,143,o),
(190,0,o),
(367,0,cs),
(544,0,o),
(687,143,o),
(687,320,cs),
(687,496,o),
(544,640,o),
(367,640,cs)
);
},
{
closed = 1;
nodes = (
(214,42,o),
(89,167,o),
(89,320,cs),
(89,473,o),
(214,597,o),
(367,597,cs),
(520,597,o),
(645,473,o),
(645,320,cs),
(645,167,o),
(520,42,o),
(367,42,cs)
);
}
);
width = 734;
}
);
leftKerningGroup = C2;
rightKerningGroup = D;
unicode = 211;
},
{
glyphname = Ocircumflex;
layers = (
{
layerId = "DBD9F252-B0AF-4540-AABD-DA467279EDBA";
shapes = (
{
closed = 1;
nodes = (
(365,714,l),
(385,694,ls),
(402,677,o),
(429,677,o),
(445,694,c),
(395,744,ls),
(387,752,o),
(376,756,o),
(365,756,c),
(354,756,o),
(344,752,o),
(335,744,cs),
(285,694,l),
(302,677,o),
(329,677,o),
(345,694,c)
);
},
{
closed = 1;
nodes = (
(190,640,o),
(47,496,o),
(47,320,cs),
(47,143,o),
(190,0,o),
(367,0,cs),
(544,0,o),
(687,143,o),
(687,320,cs),
(687,496,o),
(544,640,o),
(367,640,cs)
);
},
{
closed = 1;
nodes = (
(214,42,o),
(89,167,o),
(89,320,cs),
(89,473,o),
(214,597,o),
(367,597,cs),
(520,597,o),
(645,473,o),
(645,320,cs),
(645,167,o),
(520,42,o),
(367,42,cs)
);
}
);
width = 734;
}
);
leftKerningGroup = C2;
rightKerningGroup = D;
unicode = 212;
},
{
glyphname = Otilde;
layers = (
{
layerId = "DBD9F252-B0AF-4540-AABD-DA467279EDBA";
shapes = (
{
closed = 1;
nodes = (
(287,742,o),
(317,727,o),
(361,702,cs),
(391,686,o),
(425,666,o),
(462,666,cs),
(489,666,o),
(518,677,o),
(547,706,c),
(546,706,l),
(531,722,o),
(508,724,o),
(489,715,cs),
(456,699,o),
(426,715,o),
(382,739,cs),
(330,769,o),
(266,805,o),
(197,736,c),
(197,735,l),
(213,720,o),
(236,718,o),
(255,727,c)
);
},
{
closed = 1;
nodes = (
(190,640,o),
(47,497,o),
(47,320,cs),
(47,143,o),
(190,0,o),
(367,0,cs),
(544,0,o),
(687,143,o),
(687,320,cs),
(687,497,o),
(544,640,o),
(367,640,cs)
);
},
{
closed = 1;
nodes = (
(214,42,o),
(89,167,o),
(89,320,cs),
(89,473,o),
(214,597,o),
(367,597,cs),
(520,597,o),
(645,473,o),
(645,320,cs),
(645,167,o),
(520,42,o),
(367,42,cs)
);
}
);
width = 734;
}
);
leftKerningGroup = C2;
rightKerningGroup = D;
unicode = 213;
},
{
glyphname = Odieresis;
layers = (
{
layerId = "DBD9F252-B0AF-4540-AABD-DA467279EDBA";
shapes = (
{
closed = 1;
nodes = (
(190,640,o),
(47,496,o),
(47,320,cs),
(47,143,o),
(190,0,o),
(367,0,cs),
(544,0,o),
(687,143,o),
(687,320,cs),
(687,496,o),
(544,640,o),
(367,640,cs)
);
},
{
closed = 1;
nodes = (
(214,42,o),
(89,167,o),
(89,320,cs),
(89,473,o),
(214,597,o),
(367,597,cs),
(520,597,o),
(645,473,o),
(645,320,cs),
(645,167,o),
(520,42,o),
(367,42,cs)
);
},
{
closed = 1;
nodes = (
(326,680,o),
(344,698,o),
(344,720,cs),
(344,742,o),
(326,760,o),
(304,760,cs),
(282,760,o),
(264,742,o),
(264,720,cs),
(264,698,o),
(282,680,o),
(304,680,cs)
);
},
{
closed = 1;
nodes = (
(446,680,o),
(464,698,o),
(464,720,cs),
(464,742,o),
(446,760,o),
(424,760,cs),
(402,760,o),
(384,742,o),
(384,720,cs),
(384,698,o),
(402,680,o),
(424,680,cs)
);
}
);
width = 734;
}
);
leftKerningGroup = C2;
rightKerningGroup = D;
unicode = 214;
},
{
glyphname = multiply;
layers = (
{
layerId = "DBD9F252-B0AF-4540-AABD-DA467279EDBA";
shapes = (
{
closed = 1;
nodes = (
(253,392,l),
(236,409,o),
(209,409,o),
(193,392,cs),
(153,352,l),
(113,392,ls),
(96,409,o),
(70,409,o),
(53,392,c),
(123,322,l),
(53,253,l),
(70,236,o),
(96,236,o),
(113,253,cs),
(153,292,l),
(193,253,ls),
(209,236,o),
(236,236,o),
(253,253,c),
(183,322,l)
);
}
);
width = 306;
}
);
unicode = 215;
},
{
glyphname = Oslash;
layers = (
{
layerId = "DBD9F252-B0AF-4540-AABD-DA467279EDBA";
shapes = (
{
closed = 1;
nodes = (
(626,627,l),
(607,641,o),
(581,637,o),
(567,618,cs),
(544,588,l),
(493,621,o),
(433,640,o),
(369,640,cs),
(192,640,o),
(49,496,o),
(49,320,cs),
(49,223,o),
(92,136,o),
(161,77,c),
(112,12,l),
(131,-2,o),
(157,2,o),
(171,21,cs),
(194,52,l),
(245,19,o),
(305,0,o),
(369,0,cs),
(546,0,o),
(689,143,o),
(689,320,cs),
(689,417,o),
(646,504,o),
(577,562,c)
);
},
{
closed = 1;
nodes = (
(91,473,o),
(216,597,o),
(369,597,cs),
(424,597,o),
(475,581,o),
(518,554,c),
(186,111,l),
(128,162,o),
(91,237,o),
(91,320,c)
);
},
{
closed = 1;
nodes = (
(314,42,o),
(263,58,o),
(220,86,c),
(552,528,l),
(610,477,o),
(647,403,o),
(647,320,cs),
(647,167,o),
(522,42,o),
(369,42,cs)
);
}
);
width = 738;
}
);
unicode = 216;
},
{
glyphname = Ugrave;
layers = (
{
layerId = "DBD9F252-B0AF-4540-AABD-DA467279EDBA";
shapes = (
{
closed = 1;
nodes = (
(320,749,ls),
(303,765,o),
(276,765,o),
(260,749,c),
(310,699,ls),
(326,682,o),
(353,682,o),
(370,699,c)
);
},
{
closed = 1;
nodes = (
(518,245,ls),
(518,130,o),
(421,36,o),
(304,42,cs),
(195,48,o),
(111,142,o),
(111,251,cs),
(111,640,l),
(88,640,o),
(69,621,o),
(69,597,cs),
(69,252,ls),
(69,114,o),
(181,-3,o),
(319,0,cs),
(453,2,o),
(560,111,o),
(560,245,cs),
(560,640,l),
(537,640,o),
(518,621,o),
(518,597,c)
);
}
);
width = 631;
}
);
leftKerningGroup = U2;
rightKerningGroup = U;
unicode = 217;
},
{
glyphname = Uacute;
layers = (
{
layerId = "DBD9F252-B0AF-4540-AABD-DA467279EDBA";
shapes = (
{
closed = 1;
nodes = (
(370,749,l),
(353,765,o),
(326,765,o),
(310,749,cs),
(260,699,l),
(276,682,o),
(303,682,o),
(320,699,cs)
);
},
{
closed = 1;
nodes = (
(518,245,ls),
(518,130,o),
(421,36,o),
(304,42,cs),
(195,48,o),
(111,142,o),
(111,251,cs),
(111,640,l),
(88,640,o),
(69,621,o),
(69,597,cs),
(69,252,ls),
(69,114,o),
(181,-3,o),
(319,0,cs),
(453,2,o),
(560,111,o),
(560,245,cs),
(560,640,l),
(537,640,o),
(518,621,o),
(518,597,c)
);
}
);
width = 631;
}
);
leftKerningGroup = U2;
rightKerningGroup = U;
unicode = 218;
},
{
glyphname = Ucircumflex;
layers = (
{
layerId = "DBD9F252-B0AF-4540-AABD-DA467279EDBA";
shapes = (
{
closed = 1;
nodes = (
(316,722,l),
(336,702,ls),
(353,685,o),
(380,685,o),
(396,702,c),
(346,752,ls),
(338,760,o),
(327,764,o),
(316,764,c),
(305,764,o),
(294,760,o),
(286,752,cs),
(236,702,l),
(253,685,o),
(279,685,o),
(296,702,c)
);
},
{
closed = 1;
nodes = (
(518,246,ls),
(518,130,o),
(421,37,o),
(304,43,cs),
(195,48,o),
(111,142,o),
(111,252,cs),
(111,640,l),
(88,640,o),
(69,621,o),
(69,598,cs),
(69,252,ls),
(69,115,o),
(181,-2,o),
(319,0,cs),
(453,2,o),
(560,112,o),
(560,246,cs),
(560,640,l),
(537,640,o),
(518,621,o),
(518,598,c)
);
}
);
width = 630;
}
);
leftKerningGroup = U2;
rightKerningGroup = U;
unicode = 219;
},
{
glyphname = Udieresis;
layers = (
{
layerId = "DBD9F252-B0AF-4540-AABD-DA467279EDBA";
shapes = (
{
closed = 1;
nodes = (
(518,246,ls),
(518,130,o),
(421,37,o),
(304,43,cs),
(195,48,o),
(111,142,o),
(111,252,cs),
(111,640,l),
(88,640,o),
(69,621,o),
(69,598,cs),
(69,252,ls),
(69,115,o),
(181,-2,o),
(319,0,cs),
(453,2,o),
(560,112,o),
(560,246,cs),
(560,640,l),
(537,640,o),
(518,621,o),
(518,598,c)
);
},
{
closed = 1;
nodes = (
(283,692,o),
(301,710,o),
(301,732,cs),
(301,754,o),
(283,772,o),
(261,772,cs),
(239,772,o),
(221,754,o),
(221,732,cs),
(221,710,o),
(239,692,o),
(261,692,cs)
);
},
{
closed = 1;
nodes = (
(403,692,o),
(421,710,o),
(421,732,cs),
(421,754,o),
(403,772,o),
(381,772,cs),
(359,772,o),
(341,754,o),
(341,732,cs),
(341,710,o),
(359,692,o),
(381,692,cs)
);
}
);
width = 630;
}
);
leftKerningGroup = U2;
rightKerningGroup = U;
unicode = 220;
},
{
glyphname = Yacute;
layers = (
{
layerId = "DBD9F252-B0AF-4540-AABD-DA467279EDBA";
shapes = (
{
closed = 1;
nodes = (
(320,752,l),
(304,769,o),
(277,769,o),
(260,752,cs),
(210,702,l),
(227,685,o),
(254,685,o),
(270,702,cs)
);
},
{
closed = 1;
nodes = (
(265,360,l),
(74,623,ls),
(60,641,o),
(34,646,o),
(15,632,c),
(244,318,l),
(244,0,l),
(267,0,o),
(286,19,o),
(286,42,cs),
(286,318,l),
(515,632,l),
(497,646,o),
(470,641,o),
(456,623,c)
);
}
);
width = 531;
}
);
leftKerningGroup = Y2;
rightKerningGroup = Y;
unicode = 221;
},
{
glyphname = Thorn;
layers = (
{
layerId = "DBD9F252-B0AF-4540-AABD-DA467279EDBA";
shapes = (
{
closed = 1;
nodes = (
(99,341,l),
(99,436,ls),
(99,459,o),
(80,478,o),
(57,478,c),
(57,42,ls),
(57,19,o),
(76,0,o),
(99,0,c),
(99,137,l),
(308,137,ls),
(364,137,o),
(410,183,o),
(410,239,cs),
(410,295,o),
(364,341,o),
(308,341,c)
);
},
{
closed = 1;
nodes = (
(99,179,l),
(99,299,l),
(308,299,ls),
(341,299,o),
(368,272,o),
(368,239,cs),
(368,206,o),
(341,179,o),
(308,179,cs)
);
}
);
width = 441;
}
);
unicode = 222;
},
{
glyphname = germandbls;
layers = (
{
layerId = "DBD9F252-B0AF-4540-AABD-DA467279EDBA";
shapes = (
{
closed = 1;
nodes = (
(268,317,o),
(278,340,o),
(297,390,cs),
(302,403,o),
(305,417,o),
(302,431,cs),
(298,460,o),
(276,478,o),
(235,486,c),
(72,486,l),
(72,46,ls),
(72,22,o),
(91,3,o),
(114,3,c),
(114,444,l),
(229,444,l),
(245,441,o),
(256,436,o),
(259,430,cs),
(264,422,o),
(256,402,o),
(249,384,cs),
(237,350,o),
(219,304,o),
(259,269,cs),
(337,201,o),
(368,135,o),
(346,88,cs),
(331,56,o),
(290,37,o),
(250,44,cs),
(219,49,o),
(196,69,o),
(183,99,cs),
(175,120,o),
(155,132,o),
(133,130,c),
(140,60,o),
(182,12,o),
(243,2,cs),
(251,1,o),
(259,0,o),
(266,0,cs),
(317,0,o),
(364,27,o),
(384,70,cs),
(428,163,o),
(331,263,o),
(287,301,c)
);
}
);
width = 434;
}
);
leftKerningGroup = m2;
unicode = 223;
},
{
glyphname = agrave;
layers = (
{
layerId = "DBD9F252-B0AF-4540-AABD-DA467279EDBA";
shapes = (
{
closed = 1;
nodes = (
(485,376,l),
(441,439,o),
(369,480,o),
(287,480,cs),
(154,480,o),
(47,373,o),
(47,240,cs),
(47,107,o),
(154,0,o),
(287,0,cs),
(369,0,o),
(441,41,o),
(485,104,c),
(485,0,l),
(508,0,o),
(527,19,o),
(527,42,cs),
(527,480,l),
(504,480,o),
(485,461,o),
(485,438,c)
);
},
{
closed = 1;
nodes = (
(178,42,o),
(89,131,o),
(89,240,cs),
(89,349,o),
(178,438,o),
(287,438,cs),
(396,438,o),
(485,349,o),
(485,240,cs),
(485,131,o),
(396,42,o),
(287,42,cs)
);
},
{
closed = 1;
nodes = (
(291,625,ls),
(274,641,o),
(247,641,o),
(231,625,c),
(281,574,ls),
(297,558,o),
(324,558,o),
(341,574,c)
);
}
);
width = 599;
}
);
unicode = 224;
},
{
glyphname = aacute;
layers = (
{
layerId = "DBD9F252-B0AF-4540-AABD-DA467279EDBA";
shapes = (
{
closed = 1;
nodes = (
(485,376,l),
(441,439,o),
(369,480,o),
(287,480,cs),
(154,480,o),
(47,373,o),
(47,240,cs),
(47,107,o),
(154,0,o),
(287,0,cs),
(369,0,o),
(441,41,o),
(485,104,c),
(485,0,l),
(508,0,o),
(527,19,o),
(527,42,cs),
(527,480,l),
(504,480,o),
(485,461,o),
(485,438,c)
);
},
{
closed = 1;
nodes = (
(178,42,o),
(89,131,o),
(89,240,cs),
(89,349,o),
(178,438,o),
(287,438,cs),
(396,438,o),
(485,349,o),
(485,240,cs),
(485,131,o),
(396,42,o),
(287,42,cs)
);
},
{
closed = 1;
nodes = (
(342,628,l),
(325,644,o),
(299,644,o),
(282,628,cs),
(232,577,l),
(249,561,o),
(275,561,o),
(292,577,cs)
);
}
);
width = 599;
}
);
leftKerningGroup = aacute;
unicode = 225;
},
{
glyphname = acircumflex;
layers = (
{
layerId = "DBD9F252-B0AF-4540-AABD-DA467279EDBA";
shapes = (
{
closed = 1;
nodes = (
(485,376,l),
(441,439,o),
(369,480,o),
(287,480,cs),
(154,480,o),
(47,373,o),
(47,240,cs),
(47,107,o),
(154,0,o),
(287,0,cs),
(369,0,o),
(441,41,o),
(485,104,c),
(485,0,l),
(508,0,o),
(527,19,o),
(527,42,cs),
(527,480,l),
(504,480,o),
(485,461,o),
(485,438,c)
);
},
{
closed = 1;
nodes = (
(178,42,o),
(89,131,o),
(89,240,cs),
(89,349,o),
(178,438,o),
(287,438,cs),
(396,438,o),
(485,349,o),
(485,240,cs),
(485,131,o),
(396,42,o),
(287,42,cs)
);
},
{
closed = 1;
nodes = (
(287,598,l),
(307,577,ls),
(324,561,o),
(350,561,o),
(367,577,c),
(317,628,ls),
(309,636,o),
(298,640,o),
(287,640,c),
(276,640,o),
(265,636,o),
(257,628,cs),
(207,577,l),
(223,561,o),
(250,561,o),
(267,577,c)
);
}
);
width = 599;
}
);
leftKerningGroup = aacute;
unicode = 226;
},
{
glyphname = atilde;
layers = (
{
layerId = "DBD9F252-B0AF-4540-AABD-DA467279EDBA";
shapes = (
{
closed = 1;
nodes = (
(485,376,l),
(441,439,o),
(369,480,o),
(287,480,cs),
(154,480,o),
(47,373,o),
(47,240,cs),
(47,107,o),
(154,0,o),
(287,0,cs),
(369,0,o),
(441,41,o),
(485,104,c),
(485,0,l),
(508,0,o),
(527,19,o),
(527,42,cs),
(527,480,l),
(504,480,o),
(485,461,o),
(485,438,c)
);
},
{
closed = 1;
nodes = (
(178,42,o),
(89,131,o),
(89,240,cs),
(89,349,o),
(178,438,o),
(287,438,cs),
(396,438,o),
(485,349,o),
(485,240,cs),
(485,131,o),
(396,42,o),
(287,42,cs)
);
},
{
closed = 1;
nodes = (
(202,607,o),
(233,592,o),
(277,567,cs),
(307,550,o),
(341,531,o),
(377,531,cs),
(404,531,o),
(433,541,o),
(462,570,c),
(461,571,l),
(446,586,o),
(423,589,o),
(404,579,cs),
(372,564,o),
(341,579,o),
(297,604,cs),
(245,633,o),
(181,669,o),
(112,600,c),
(113,600,l),
(128,585,o),
(151,582,o),
(170,591,c)
);
}
);
width = 599;
}
);
leftKerningGroup = atilde;
unicode = 227;
},
{
glyphname = adieresis;
layers = (
{
layerId = "DBD9F252-B0AF-4540-AABD-DA467279EDBA";
shapes = (
{
closed = 1;
nodes = (
(485,376,l),
(441,439,o),
(369,480,o),
(287,480,cs),
(154,480,o),
(47,373,o),
(47,240,cs),
(47,107,o),
(154,0,o),
(287,0,cs),
(369,0,o),
(441,41,o),
(485,104,c),
(485,0,l),
(508,0,o),
(527,19,o),
(527,42,cs),
(527,480,l),
(504,480,o),
(485,461,o),
(485,438,c)
);
},
{
closed = 1;
nodes = (
(178,42,o),
(89,131,o),
(89,240,cs),
(89,349,o),
(178,438,o),
(287,438,cs),
(396,438,o),
(485,349,o),
(485,240,cs),
(485,131,o),
(396,42,o),
(287,42,cs)
);
},
{
closed = 1;
nodes = (
(249,560,o),
(267,578,o),
(267,600,cs),
(267,622,o),
(249,640,o),
(227,640,cs),
(205,640,o),
(187,622,o),
(187,600,cs),
(187,578,o),
(205,560,o),
(227,560,cs)
);
},
{
closed = 1;
nodes = (
(369,560,o),
(387,578,o),
(387,600,cs),
(387,622,o),
(369,640,o),
(347,640,cs),
(325,640,o),
(307,622,o),
(307,600,cs),
(307,578,o),
(325,560,o),
(347,560,cs)
);
}
);
width = 599;
}
);
leftKerningGroup = adieresis;
unicode = 228;
},
{
glyphname = aring;
layers = (
{
layerId = "DBD9F252-B0AF-4540-AABD-DA467279EDBA";
shapes = (
{
closed = 1;
nodes = (
(485,376,l),
(441,439,o),
(369,480,o),
(287,480,cs),
(154,480,o),
(47,373,o),
(47,240,cs),
(47,107,o),
(154,0,o),
(287,0,cs),
(369,0,o),
(441,41,o),
(485,104,c),
(485,0,l),
(508,0,o),
(527,19,o),
(527,42,cs),
(527,480,l),
(504,480,o),
(485,461,o),
(485,438,c)
);
},
{
closed = 1;
nodes = (
(178,42,o),
(89,131,o),
(89,240,cs),
(89,349,o),
(178,438,o),
(287,438,cs),
(396,438,o),
(485,349,o),
(485,240,cs),
(485,131,o),
(396,42,o),
(287,42,cs)
);
},
{
closed = 1;
nodes = (
(320,517,o),
(347,544,o),
(347,577,cs),
(347,610,o),
(320,637,o),
(287,637,cs),
(254,637,o),
(227,610,o),
(227,577,cs),
(227,544,o),
(254,517,o),
(287,517,cs)
);
},
{
closed = 1;
nodes = (
(297,595,o),
(305,587,o),
(305,577,cs),
(305,567,o),
(297,559,o),
(287,559,cs),
(277,559,o),
(269,567,o),
(269,577,cs),
(269,587,o),
(277,595,o),
(287,595,cs)
);
}
);
width = 599;
}
);
unicode = 229;
},
{
glyphname = ae;
layers = (
{
layerId = "DBD9F252-B0AF-4540-AABD-DA467279EDBA";
shapes = (
{
closed = 1;
nodes = (
(851,76,o),
(792,42,o),
(725,42,cs),
(616,42,o),
(527,131,o),
(527,240,c),
(931,240,l),
(965,240,l),
(965,382,o),
(842,494,o),
(697,478,cs),
(627,471,o),
(566,432,o),
(527,376,c),
(527,480,l),
(504,480,o),
(485,461,o),
(485,438,cs),
(485,376,l),
(441,439,o),
(369,480,o),
(287,480,cs),
(154,480,o),
(47,373,o),
(47,240,cs),
(47,107,o),
(154,0,o),
(287,0,cs),
(369,0,o),
(441,41,o),
(485,104,c),
(485,0,l),
(508,0,o),
(527,19,o),
(527,42,cs),
(527,104,l),
(570,41,o),
(642,0,o),
(725,0,cs),
(829,0,o),
(918,67,o),
(951,160,c),
(947,160,ls),
(923,160,o),
(901,147,o),
(887,127,c)
);
},
{
closed = 1;
nodes = (
(819,438,o),
(898,371,o),
(918,282,c),
(532,282,l),
(551,371,o),
(630,438,o),
(725,438,c)
);
},
{
closed = 1;
nodes = (
(178,42,o),
(89,131,o),
(89,240,cs),
(89,349,o),
(178,438,o),
(287,438,cs),
(396,438,o),
(485,349,o),
(485,240,cs),
(485,131,o),
(396,42,o),
(287,42,cs)
);
}
);
width = 1010;
}
);
leftKerningGroup = a2;
rightKerningGroup = e;
unicode = 230;
},
{
glyphname = ccedilla;
layers = (
{
layerId = "DBD9F252-B0AF-4540-AABD-DA467279EDBA";
shapes = (
{
closed = 1;
nodes = (
(371,57,o),
(330,43,o),
(287,43,cs),
(168,43,o),
(73,148,o),
(92,270,cs),
(101,335,o),
(144,392,o),
(203,419,cs),
(273,451,o),
(349,440,o),
(405,398,cs),
(423,385,o),
(448,385,o),
(465,400,c),
(420,451,o),
(355,480,o),
(287,480,cs),
(155,480,o),
(47,372,o),
(47,240,cs),
(47,130,o),
(122,37,o),
(223,9,c),
(179,-35,ls),
(173,-41,o),
(171,-50,o),
(174,-58,cs),
(178,-66,o),
(185,-71,o),
(194,-71,cs),
(288,-71,ls),
(300,-71,o),
(311,-79,o),
(312,-91,cs),
(315,-105,o),
(304,-118,o),
(290,-118,c),
(215,-117,ls),
(192,-117,o),
(173,-136,o),
(173,-159,c),
(290,-160,l),
(328,-160,o),
(359,-127,o),
(355,-88,cs),
(351,-54,o),
(321,-29,o),
(287,-29,cs),
(245,-29,l),
(274,1,l),
(279,1,o),
(283,1,o),
(287,1,cs),
(355,1,o),
(420,30,o),
(465,81,c),
(448,96,o),
(423,96,o),
(405,82,c)
);
}
);
width = 503;
}
);
leftKerningGroup = a2;
rightKerningGroup = c;
unicode = 231;
},
{
glyphname = egrave;
layers = (
{
layerId = "DBD9F252-B0AF-4540-AABD-DA467279EDBA";
shapes = (
{
closed = 1;
nodes = (
(290,625,ls),
(274,641,o),
(247,641,o),
(230,625,c),
(280,574,ls),
(297,558,o),
(324,558,o),
(340,574,c)
);
},
{
closed = 1;
nodes = (
(413,76,o),
(354,42,o),
(287,42,cs),
(178,42,o),
(89,131,o),
(89,240,c),
(494,240,l),
(527,240,l),
(527,382,o),
(404,494,o),
(260,478,cs),
(150,466,o),
(61,377,o),
(49,267,cs),
(33,123,o),
(145,0,o),
(287,0,cs),
(391,0,o),
(480,67,o),
(513,160,c),
(510,160,ls),
(485,160,o),
(463,147,o),
(449,127,c)
);
},
{
closed = 1;
nodes = (
(381,438,o),
(461,371,o),
(480,282,c),
(94,282,l),
(113,371,o),
(193,438,o),
(287,438,c)
);
}
);
width = 572;
}
);
unicode = 232;
},
{
glyphname = eacute;
layers = (
{
layerId = "DBD9F252-B0AF-4540-AABD-DA467279EDBA";
shapes = (
{
closed = 1;
nodes = (
(342,628,l),
(325,644,o),
(299,644,o),
(282,628,cs),
(232,577,l),
(249,561,o),
(275,561,o),
(292,577,cs)
);
},
{
closed = 1;
nodes = (
(413,76,o),
(354,42,o),
(287,42,cs),
(178,42,o),
(89,131,o),
(89,240,c),
(494,240,l),
(527,240,l),
(527,382,o),
(404,494,o),
(260,478,cs),
(150,466,o),
(61,377,o),
(49,267,cs),
(33,123,o),
(145,0,o),
(287,0,cs),
(391,0,o),
(480,67,o),
(513,160,c),
(510,160,ls),
(485,160,o),
(463,147,o),
(449,127,c)
);
},
{
closed = 1;
nodes = (
(381,438,o),
(461,371,o),
(480,282,c),
(94,282,l),
(113,371,o),
(193,438,o),
(287,438,c)
);
}
);
width = 572;
}
);
leftKerningGroup = aacute;
unicode = 233;
},
{
glyphname = ecircumflex;
layers = (
{
layerId = "DBD9F252-B0AF-4540-AABD-DA467279EDBA";
shapes = (
{
closed = 1;
nodes = (
(284,598,l),
(305,577,ls),
(321,561,o),
(348,561,o),
(364,577,c),
(314,628,ls),
(306,636,o),
(295,640,o),
(284,640,c),
(274,640,o),
(263,636,o),
(254,628,cs),
(204,577,l),
(221,561,o),
(248,561,o),
(264,577,c)
);
},
{
closed = 1;
nodes = (
(413,76,o),
(354,42,o),
(287,42,cs),
(178,42,o),
(89,131,o),
(89,240,c),
(494,240,l),
(527,240,l),
(527,382,o),
(404,494,o),
(260,478,cs),
(150,466,o),
(61,377,o),
(49,267,cs),
(33,123,o),
(145,0,o),
(287,0,cs),
(391,0,o),
(480,67,o),
(513,160,c),
(510,160,ls),
(485,160,o),
(463,147,o),
(449,127,c)
);
},
{
closed = 1;
nodes = (
(381,438,o),
(461,371,o),
(480,282,c),
(94,282,l),
(113,371,o),
(193,438,o),
(287,438,c)
);
}
);
width = 572;
}
);
leftKerningGroup = aacute;
unicode = 234;
},
{
glyphname = edieresis;
layers = (
{
layerId = "DBD9F252-B0AF-4540-AABD-DA467279EDBA";
shapes = (
{
closed = 1;
nodes = (
(413,76,o),
(354,42,o),
(287,42,cs),
(178,42,o),
(89,131,o),
(89,240,c),
(494,240,l),
(527,240,l),
(527,382,o),
(404,494,o),
(260,478,cs),
(150,466,o),
(61,377,o),
(49,267,cs),
(33,123,o),
(145,0,o),
(287,0,cs),
(391,0,o),
(480,67,o),
(513,160,c),
(510,160,ls),
(485,160,o),
(463,147,o),
(449,127,c)
);
},
{
closed = 1;
nodes = (
(381,438,o),
(460,371,o),
(480,282,c),
(94,282,l),
(113,371,o),
(193,438,o),
(287,438,c)
);
},
{
closed = 1;
nodes = (
(249,560,o),
(267,578,o),
(267,600,cs),
(267,622,o),
(249,640,o),
(227,640,cs),
(205,640,o),
(187,622,o),
(187,600,cs),
(187,578,o),
(205,560,o),
(227,560,cs)
);
},
{
closed = 1;
nodes = (
(369,560,o),
(387,578,o),
(387,600,cs),
(387,622,o),
(369,640,o),
(347,640,cs),
(325,640,o),
(307,622,o),
(307,600,cs),
(307,578,o),
(325,560,o),
(347,560,cs)
);
}
);
width = 572;
}
);
leftKerningGroup = adieresis;
unicode = 235;
},
{
glyphname = igrave;
layers = (
{
layerId = "DBD9F252-B0AF-4540-AABD-DA467279EDBA";
shapes = (
{
closed = 1;
nodes = (
(99,617,ls),
(82,633,o),
(56,633,o),
(39,617,c),
(89,566,ls),
(106,550,o),
(132,550,o),
(149,566,c)
);
},
{
closed = 1;
nodes = (
(73,0,l),
(96,0,o),
(115,19,o),
(115,42,cs),
(115,480,l),
(92,480,o),
(73,461,o),
(73,437,cs)
);
}
);
width = 188;
}
);
unicode = 236;
},
{
glyphname = iacute;
layers = (
{
layerId = "DBD9F252-B0AF-4540-AABD-DA467279EDBA";
shapes = (
{
closed = 1;
nodes = (
(150,620,l),
(133,636,o),
(107,636,o),
(90,620,cs),
(40,569,l),
(57,553,o),
(83,553,o),
(100,569,cs)
);
},
{
closed = 1;
nodes = (
(73,0,l),
(96,0,o),
(115,19,o),
(115,42,cs),
(115,480,l),
(92,480,o),
(73,461,o),
(73,437,cs)
);
}
);
width = 188;
}
);
leftKerningGroup = iacute;
unicode = 237;
},
{
glyphname = icircumflex;
layers = (
{
layerId = "DBD9F252-B0AF-4540-AABD-DA467279EDBA";
shapes = (
{
closed = 1;
nodes = (
(124,620,ls),
(116,628,o),
(105,632,o),
(94,632,c),
(83,632,o),
(72,628,o),
(64,620,cs),
(14,569,l),
(31,553,o),
(57,553,o),
(74,569,cs),
(94,590,l),
(114,569,ls),
(131,553,o),
(158,553,o),
(174,569,c)
);
},
{
closed = 1;
nodes = (
(73,0,l),
(96,0,o),
(115,19,o),
(115,42,cs),
(115,480,l),
(92,480,o),
(73,461,o),
(73,437,cs)
);
}
);
width = 189;
}
);
leftKerningGroup = iacute;
unicode = 238;
},
{
glyphname = idieresis;
layers = (
{
layerId = "DBD9F252-B0AF-4540-AABD-DA467279EDBA";
shapes = (
{
closed = 1;
nodes = (
(72,0,l),
(95,0,o),
(114,19,o),
(114,42,cs),
(114,480,l),
(91,480,o),
(72,461,o),
(72,437,cs)
);
},
{
closed = 1;
nodes = (
(55,560,o),
(73,578,o),
(73,600,cs),
(73,622,o),
(55,640,o),
(33,640,cs),
(11,640,o),
(-7,622,o),
(-7,600,cs),
(-7,578,o),
(11,560,o),
(33,560,cs)
);
},
{
closed = 1;
nodes = (
(131,640,o),
(113,622,o),
(113,600,cs),
(113,578,o),
(131,560,o),
(153,560,cs),
(175,560,o),
(193,578,o),
(193,600,cs),
(193,622,o),
(175,640,o),
(153,640,cs)
);
}
);
width = 186;
}
);
unicode = 239;
},
{
glyphname = eth;
layers = (
{
layerId = "DBD9F252-B0AF-4540-AABD-DA467279EDBA";
shapes = (
{
closed = 1;
nodes = (
(441,175,o),
(441,178,o),
(441,181,cs),
(441,191,o),
(440,201,o),
(438,211,c),
(429,302,o),
(395,384,o),
(343,444,c),
(368,468,l),
(353,483,o),
(330,484,o),
(314,473,c),
(300,485,o),
(286,495,o),
(271,504,c),
(271,504,l),
(259,484,o),
(265,459,o),
(282,445,c),
(283,444,o),
(283,444,o),
(283,444,c),
(258,418,l),
(273,403,o),
(296,402,o),
(313,414,c),
(334,389,o),
(352,360,o),
(366,327,c),
(337,348,o),
(300,361,o),
(261,361,c),
(161,361,o),
(80,280,o),
(80,181,cs),
(80,81,o),
(161,0,o),
(261,0,cs),
(353,0,o),
(430,70,o),
(440,161,c),
(441,161,l),
(441,164,o),
(441,168,o),
(441,172,c)
);
},
{
closed = 1;
nodes = (
(184,42,o),
(122,104,o),
(122,181,cs),
(122,257,o),
(184,319,o),
(261,319,cs),
(329,319,o),
(385,269,o),
(397,204,c),
(398,194,o),
(398,183,o),
(398,173,c),
(394,100,o),
(334,42,o),
(261,42,c)
);
}
);
width = 521;
}
);
unicode = 240;
},
{
glyphname = ntilde;
layers = (
{
layerId = "DBD9F252-B0AF-4540-AABD-DA467279EDBA";
shapes = (
{
closed = 1;
nodes = (
(209,607,o),
(240,592,o),
(284,567,cs),
(314,550,o),
(348,531,o),
(385,531,cs),
(412,531,o),
(440,541,o),
(469,570,c),
(469,571,l),
(453,586,o),
(430,589,o),
(411,579,cs),
(379,564,o),
(348,579,o),
(305,604,cs),
(253,633,o),
(188,669,o),
(119,600,c),
(120,600,l),
(135,585,o),
(158,582,o),
(177,591,c)
);
},
{
closed = 1;
nodes = (
(213,476,o),
(153,439,o),
(115,385,c),
(115,480,l),
(92,480,o),
(73,461,o),
(73,438,cs),
(73,0,l),
(96,0,o),
(115,19,o),
(115,42,cs),
(115,259,ls),
(115,363,o),
(205,447,o),
(311,437,cs),
(404,428,o),
(473,347,o),
(473,254,cs),
(473,0,l),
(496,0,o),
(515,19,o),
(515,42,cs),
(515,259,ls),
(515,384,o),
(410,486,o),
(283,480,c)
);
}
);
width = 578;
}
);
unicode = 241;
},
{
glyphname = ograve;
layers = (
{
layerId = "DBD9F252-B0AF-4540-AABD-DA467279EDBA";
shapes = (
{
closed = 1;
nodes = (
(292,628,ls),
(275,644,o),
(249,644,o),
(232,628,c),
(282,577,ls),
(299,561,o),
(325,561,o),
(342,577,c)
);
},
{
closed = 1;
nodes = (
(154,480,o),
(47,372,o),
(47,240,cs),
(47,107,o),
(154,0,o),
(287,0,cs),
(420,0,o),
(527,107,o),
(527,240,cs),
(527,372,o),
(420,480,o),
(287,480,cs)
);
},
{
closed = 1;
nodes = (
(178,42,o),
(89,131,o),
(89,240,cs),
(89,349,o),
(178,438,o),
(287,438,cs),
(396,438,o),
(485,349,o),
(485,240,cs),
(485,131,o),
(396,42,o),
(287,42,cs)
);
}
);
width = 574;
}
);
unicode = 242;
},
{
glyphname = oacute;
layers = (
{
layerId = "DBD9F252-B0AF-4540-AABD-DA467279EDBA";
shapes = (
{
closed = 1;
nodes = (
(342,628,l),
(325,644,o),
(299,644,o),
(282,628,cs),
(232,577,l),
(249,561,o),
(275,561,o),
(292,577,cs)
);
},
{
closed = 1;
nodes = (
(154,480,o),
(47,372,o),
(47,240,cs),
(47,107,o),
(154,0,o),
(287,0,cs),
(420,0,o),
(527,107,o),
(527,240,cs),
(527,372,o),
(420,480,o),
(287,480,cs)
);
},
{
closed = 1;
nodes = (
(178,42,o),
(89,131,o),
(89,240,cs),
(89,349,o),
(178,438,o),
(287,438,cs),
(396,438,o),
(485,349,o),
(485,240,cs),
(485,131,o),
(396,42,o),
(287,42,cs)
);
}
);
width = 574;
}
);
leftKerningGroup = aacute;
unicode = 243;
},
{
glyphname = ocircumflex;
layers = (
{
layerId = "DBD9F252-B0AF-4540-AABD-DA467279EDBA";
shapes = (
{
closed = 1;
nodes = (
(287,598,l),
(307,577,ls),
(324,561,o),
(350,561,o),
(367,577,c),
(317,628,ls),
(309,636,o),
(298,640,o),
(287,640,c),
(276,640,o),
(265,636,o),
(257,628,cs),
(207,577,l),
(223,561,o),
(250,561,o),
(267,577,c)
);
},
{
closed = 1;
nodes = (
(154,480,o),
(47,372,o),
(47,240,cs),
(47,107,o),
(154,0,o),
(287,0,cs),
(420,0,o),
(527,107,o),
(527,240,cs),
(527,372,o),
(420,480,o),
(287,480,cs)
);
},
{
closed = 1;
nodes = (
(178,42,o),
(89,131,o),
(89,240,cs),
(89,349,o),
(178,438,o),
(287,438,cs),
(396,438,o),
(485,349,o),
(485,240,cs),
(485,131,o),
(396,42,o),
(287,42,cs)
);
}
);
width = 574;
}
);
leftKerningGroup = aacute;
unicode = 244;
},
{
glyphname = otilde;
layers = (
{
layerId = "DBD9F252-B0AF-4540-AABD-DA467279EDBA";
shapes = (
{
closed = 1;
nodes = (
(154,480,o),
(47,373,o),
(47,240,cs),
(47,107,o),
(154,0,o),
(287,0,cs),
(420,0,o),
(527,107,o),
(527,240,cs),
(527,373,o),
(420,480,o),
(287,480,cs)
);
},
{
closed = 1;
nodes = (
(178,42,o),
(89,131,o),
(89,240,cs),
(89,349,o),
(178,438,o),
(287,438,cs),
(396,438,o),
(485,349,o),
(485,240,cs),
(485,131,o),
(396,42,o),
(287,42,cs)
);
},
{
closed = 1;
nodes = (
(202,607,o),
(233,592,o),
(277,567,cs),
(307,550,o),
(341,531,o),
(377,531,cs),
(404,531,o),
(433,541,o),
(462,570,c),
(461,571,l),
(446,586,o),
(423,589,o),
(404,579,cs),
(372,564,o),
(341,579,o),
(297,604,cs),
(245,633,o),
(181,669,o),
(112,600,c),
(113,600,l),
(128,585,o),
(151,582,o),
(170,591,c)
);
}
);
width = 574;
}
);
leftKerningGroup = atilde;
unicode = 245;
},
{
glyphname = divide;
layers = (
{
layerId = "DBD9F252-B0AF-4540-AABD-DA467279EDBA";
shapes = (
{
closed = 1;
nodes = (
(191,400,o),
(209,418,o),
(209,440,cs),
(209,462,o),
(191,480,o),
(169,480,cs),
(147,480,o),
(129,462,o),
(129,440,cs),
(129,418,o),
(147,400,o),
(169,400,cs)
);
},
{
closed = 1;
nodes = (
(147,240,o),
(129,222,o),
(129,200,cs),
(129,178,o),
(147,160,o),
(169,160,cs),
(191,160,o),
(209,178,o),
(209,200,cs),
(209,222,o),
(191,240,o),
(169,240,cs)
);
},
{
closed = 1;
nodes = (
(91,346,ls),
(68,346,o),
(49,327,o),
(49,304,c),
(247,304,ls),
(270,304,o),
(289,322,o),
(289,346,c)
);
}
);
width = 338;
}
);
unicode = 247;
},
{
glyphname = oslash;
layers = (
{
layerId = "DBD9F252-B0AF-4540-AABD-DA467279EDBA";
shapes = (
{
closed = 1;
nodes = (
(544,465,l),
(527,482,o),
(501,482,o),
(484,465,cs),
(443,424,l),
(401,459,o),
(348,480,o),
(289,480,cs),
(156,480,o),
(49,373,o),
(49,240,cs),
(49,181,o),
(70,128,o),
(105,86,c),
(34,15,l),
(51,-2,o),
(77,-2,o),
(94,15,cs),
(135,56,l),
(177,21,o),
(230,0,o),
(289,0,cs),
(421,0,o),
(529,107,o),
(529,240,cs),
(529,299,o),
(508,352,o),
(473,394,c)
);
},
{
closed = 1;
nodes = (
(91,349,o),
(180,438,o),
(289,438,cs),
(336,438,o),
(379,421,o),
(413,394,c),
(135,116,l),
(108,150,o),
(91,193,o),
(91,240,c)
);
},
{
closed = 1;
nodes = (
(487,131,o),
(398,42,o),
(289,42,cs),
(242,42,o),
(199,59,o),
(165,86,c),
(443,364,l),
(470,330,o),
(487,287,o),
(487,240,c)
);
}
);
width = 564;
}
);
unicode = 248;
},
{
glyphname = ugrave;
layers = (
{
layerId = "DBD9F252-B0AF-4540-AABD-DA467279EDBA";
shapes = (
{
closed = 1;
nodes = (
(274,628,ls),
(257,644,o),
(231,644,o),
(214,628,c),
(264,577,ls),
(281,561,o),
(307,561,o),
(324,577,c)
);
},
{
closed = 1;
nodes = (
(434,207,ls),
(434,111,o),
(351,34,o),
(253,43,cs),
(168,51,o),
(104,126,o),
(104,212,cs),
(104,480,l),
(81,480,o),
(62,461,o),
(62,438,cs),
(62,213,ls),
(62,102,o),
(147,6,o),
(259,0,cs),
(330,-3,o),
(394,30,o),
(434,82,c),
(434,0,l),
(457,0,o),
(476,19,o),
(476,42,cs),
(476,438,ls),
(476,461,o),
(457,480,o),
(434,480,c)
);
}
);
width = 549;
}
);
unicode = 249;
},
{
glyphname = uacute;
layers = (
{
layerId = "DBD9F252-B0AF-4540-AABD-DA467279EDBA";
shapes = (
{
closed = 1;
nodes = (
(324,628,l),
(307,644,o),
(280,644,o),
(264,628,cs),
(214,578,l),
(230,561,o),
(257,561,o),
(274,578,cs)
);
},
{
closed = 1;
nodes = (
(434,207,ls),
(434,111,o),
(351,34,o),
(253,43,cs),
(168,51,o),
(104,126,o),
(104,212,cs),
(104,480,l),
(81,480,o),
(62,461,o),
(62,438,cs),
(62,213,ls),
(62,102,o),
(147,6,o),
(259,0,cs),
(330,-3,o),
(394,30,o),
(434,82,c),
(434,0,l),
(457,0,o),
(476,19,o),
(476,42,cs),
(476,438,ls),
(476,461,o),
(457,480,o),
(434,480,c)
);
}
);
width = 549;
}
);
leftKerningGroup = uacute;
unicode = 250;
},
{
glyphname = ucircumflex;
layers = (
{
layerId = "DBD9F252-B0AF-4540-AABD-DA467279EDBA";
shapes = (
{
closed = 1;
nodes = (
(269,598,l),
(289,578,ls),
(306,561,o),
(333,561,o),
(349,578,c),
(299,628,ls),
(291,636,o),
(280,640,o),
(269,640,c),
(258,640,o),
(247,636,o),
(239,628,cs),
(189,578,l),
(206,561,o),
(232,561,o),
(249,578,c)
);
},
{
closed = 1;
nodes = (
(434,207,ls),
(434,111,o),
(351,34,o),
(253,43,cs),
(168,51,o),
(104,126,o),
(104,212,cs),
(104,480,l),
(81,480,o),
(62,461,o),
(62,438,cs),
(62,213,ls),
(62,102,o),
(147,6,o),
(259,0,cs),
(330,-3,o),
(394,30,o),
(434,82,c),
(434,0,l),
(457,0,o),
(476,19,o),
(476,43,cs),
(476,438,ls),
(476,461,o),
(457,480,o),
(434,480,c)
);
}
);
width = 549;
}
);
leftKerningGroup = uacute;
unicode = 251;
},
{
glyphname = udieresis;
layers = (
{
layerId = "DBD9F252-B0AF-4540-AABD-DA467279EDBA";
shapes = (
{
closed = 1;
nodes = (
(434,207,ls),
(434,111,o),
(351,34,o),
(253,43,cs),
(168,51,o),
(104,126,o),
(104,212,cs),
(104,480,l),
(81,480,o),
(62,461,o),
(62,438,cs),
(62,213,ls),
(62,102,o),
(147,6,o),
(259,0,cs),
(330,-3,o),
(394,30,o),
(434,82,c),
(434,0,l),
(457,0,o),
(476,19,o),
(476,43,cs),
(476,438,ls),
(476,461,o),
(457,480,o),
(434,480,c)
);
},
{
closed = 1;
nodes = (
(231,560,o),
(249,578,o),
(249,600,cs),
(249,622,o),
(231,640,o),
(209,640,cs),
(187,640,o),
(169,622,o),
(169,600,cs),
(169,578,o),
(187,560,o),
(209,560,cs)
);
},
{
closed = 1;
nodes = (
(351,560,o),
(369,578,o),
(369,600,cs),
(369,622,o),
(351,640,o),
(329,640,cs),
(307,640,o),
(289,622,o),
(289,600,cs),
(289,578,o),
(307,560,o),
(329,560,cs)
);
}
);
width = 549;
}
);
unicode = 252;
},
{
glyphname = yacute;
layers = (
{
layerId = "DBD9F252-B0AF-4540-AABD-DA467279EDBA";
shapes = (
{
closed = 1;
nodes = (
(299,629,l),
(283,645,o),
(256,645,o),
(240,629,cs),
(190,579,l),
(206,562,o),
(233,562,o),
(249,579,c)
);
},
{
closed = 1;
nodes = (
(244,73,l),
(81,455,ls),
(71,477,o),
(46,487,o),
(25,478,c),
(222,17,l),
(165,-117,ls),
(149,-155,o),
(117,-182,o),
(79,-193,cs),
(58,-199,o),
(44,-218,o),
(44,-240,c),
(114,-240,o),
(177,-198,o),
(204,-134,cs),
(464,478,l),
(464,478,l),
(442,487,o),
(418,477,o),
(408,455,c)
);
}
);
width = 489;
}
);
unicode = 253;
},
{
glyphname = thorn;
layers = (
{
layerId = "DBD9F252-B0AF-4540-AABD-DA467279EDBA";
shapes = (
{
closed = 1;
nodes = (
(172,480,o),
(136,453,o),
(114,412,c),
(114,598,ls),
(114,621,o),
(95,640,o),
(72,640,c),
(72,43,ls),
(72,19,o),
(91,0,o),
(114,0,c),
(114,228,l),
(136,187,o),
(172,160,o),
(212,160,cs),
(279,160,o),
(332,232,o),
(332,320,cs),
(332,409,o),
(279,480,o),
(212,480,c)
);
},
{
closed = 1;
nodes = (
(170,203,o),
(135,256,o),
(135,320,cs),
(135,384,o),
(170,438,o),
(212,438,cs),
(254,438,o),
(290,384,o),
(290,320,cs),
(290,256,o),
(254,203,o),
(212,203,cs)
);
}
);
width = 376;
}
);
leftKerningGroup = B;
unicode = 254;
},
{
glyphname = ydieresis;
layers = (
{
layerId = "DBD9F252-B0AF-4540-AABD-DA467279EDBA";
shapes = (
{
closed = 1;
nodes = (
(207,561,o),
(224,579,o),
(224,601,cs),
(224,623,o),
(207,641,o),
(184,641,cs),
(162,641,o),
(144,623,o),
(144,601,cs),
(144,579,o),
(162,561,o),
(184,561,cs)
);
},
{
closed = 1;
nodes = (
(327,561,o),
(344,579,o),
(344,601,cs),
(344,623,o),
(327,641,o),
(304,641,cs),
(282,641,o),
(264,623,o),
(264,601,cs),
(264,579,o),
(282,561,o),
(304,561,cs)
);
},
{
closed = 1;
nodes = (
(244,73,l),
(81,455,ls),
(71,477,o),
(46,487,o),
(25,478,c),
(222,17,l),
(165,-117,ls),
(149,-155,o),
(117,-182,o),
(79,-193,cs),
(58,-199,o),
(44,-218,o),
(44,-240,c),
(114,-240,o),
(177,-198,o),
(204,-134,cs),
(464,478,l),
(464,478,l),
(442,487,o),
(418,477,o),
(408,455,c)
);
}
);
width = 489;
}
);
unicode = 255;
},
{
glyphname = dotlessi;
layers = (
{
layerId = "DBD9F252-B0AF-4540-AABD-DA467279EDBA";
shapes = (
{
closed = 1;
nodes = (
(60,43,ls),
(60,19,o),
(79,0,o),
(102,0,c),
(102,358,ls),
(102,381,o),
(83,400,o),
(60,400,c)
);
}
);
width = 163;
}
);
unicode = 305;
},
{
glyphname = Lslash;
layers = (
{
layerId = "DBD9F252-B0AF-4540-AABD-DA467279EDBA";
shapes = (
{
closed = 1;
nodes = (
(142,42,l),
(142,296,l),
(314,463,l),
(297,480,o),
(271,480,o),
(254,464,cs),
(142,355,l),
(142,640,l),
(119,640,o),
(100,621,o),
(100,597,cs),
(100,314,l),
(39,255,l),
(55,238,o),
(82,238,o),
(99,254,cs),
(100,255,l),
(100,21,ls),
(100,9,o),
(109,0,o),
(121,0,cs),
(441,0,l),
(441,23,o),
(422,42,o),
(399,42,c)
);
}
);
width = 455;
}
);
unicode = 321;
},
{
glyphname = lslash;
layers = (
{
layerId = "DBD9F252-B0AF-4540-AABD-DA467279EDBA";
shapes = (
{
closed = 1;
nodes = (
(220,305,l),
(203,322,o),
(177,322,o),
(160,305,cs),
(146,291,l),
(146,438,ls),
(146,461,o),
(127,480,o),
(104,480,c),
(104,249,l),
(30,175,l),
(47,159,o),
(73,159,o),
(90,175,cs),
(104,189,l),
(104,42,ls),
(104,19,o),
(123,0,o),
(146,0,c),
(146,231,l)
);
}
);
width = 250;
}
);
unicode = 322;
},
{
glyphname = OE;
layers = (
{
layerId = "DBD9F252-B0AF-4540-AABD-DA467279EDBA";
shapes = (
{
closed = 1;
nodes = (
(456,43,l),
(456,299,l),
(691,299,ls),
(714,299,o),
(733,318,o),
(733,341,c),
(456,341,l),
(456,597,l),
(762,597,ls),
(786,597,o),
(804,616,o),
(804,640,c),
(434,640,ls),
(423,640,o),
(413,630,o),
(413,618,cs),
(413,515,l),
(377,591,o),
(319,640,o),
(255,640,cs),
(145,640,o),
(55,497,o),
(55,320,cs),
(55,143,o),
(145,0,o),
(255,0,cs),
(319,0,o),
(377,49,o),
(413,125,c),
(413,21,ls),
(413,10,o),
(423,0,o),
(434,0,cs),
(804,0,l),
(804,24,o),
(786,43,o),
(762,43,c)
);
},
{
closed = 1;
nodes = (
(170,42,o),
(97,169,o),
(97,320,cs),
(97,470,o),
(170,598,o),
(255,598,cs),
(340,598,o),
(413,470,o),
(413,320,cs),
(413,169,o),
(340,42,o),
(255,42,cs)
);
}
);
width = 834;
}
);
leftKerningGroup = Q;
rightKerningGroup = E;
unicode = 338;
},
{
glyphname = oe;
layers = (
{
layerId = "DBD9F252-B0AF-4540-AABD-DA467279EDBA";
shapes = (
{
closed = 1;
nodes = (
(853,76,o),
(794,42,o),
(727,42,cs),
(618,42,o),
(529,131,o),
(529,240,c),
(934,240,l),
(967,240,l),
(967,382,o),
(844,494,o),
(700,478,cs),
(614,469,o),
(541,412,o),
(507,336,c),
(470,421,o),
(385,480,o),
(287,480,cs),
(154,480,o),
(47,372,o),
(47,240,cs),
(47,107,o),
(154,0,o),
(287,0,cs),
(385,0,o),
(470,59,o),
(507,144,c),
(544,59,o),
(628,0,o),
(727,0,cs),
(831,0,o),
(920,67,o),
(953,160,c),
(950,160,ls),
(925,160,o),
(903,147,o),
(889,127,c)
);
},
{
closed = 1;
nodes = (
(821,438,o),
(900,371,o),
(920,282,c),
(534,282,l),
(553,371,o),
(632,438,o),
(727,438,c)
);
},
{
closed = 1;
nodes = (
(178,42,o),
(89,131,o),
(89,240,cs),
(89,349,o),
(178,438,o),
(287,438,cs),
(396,438,o),
(485,349,o),
(485,240,cs),
(485,131,o),
(396,42,o),
(287,42,cs)
);
}
);
width = 1012;
}
);
leftKerningGroup = a2;
rightKerningGroup = e;
unicode = 339;
},
{
glyphname = Scaron;
layers = (
{
layerId = "DBD9F252-B0AF-4540-AABD-DA467279EDBA";
shapes = (
{
closed = 1;
nodes = (
(333,688,o),
(344,692,o),
(352,700,cs),
(402,750,l),
(386,767,o),
(359,767,o),
(342,750,cs),
(322,730,l),
(302,750,ls),
(285,767,o),
(259,767,o),
(242,750,c),
(292,700,ls),
(300,692,o),
(311,688,o),
(322,688,c)
);
},
{
closed = 1;
nodes = (
(189,363,o),
(100,383,o),
(94,470,c),
(94,505,o),
(114,535,o),
(154,558,cs),
(244,610,o),
(405,611,o),
(493,560,cs),
(518,545,o),
(535,528,o),
(543,508,cs),
(551,489,o),
(569,476,o),
(589,476,c),
(592,476,l),
(592,525,o),
(565,567,o),
(514,597,cs),
(414,655,o),
(236,654,o),
(133,594,cs),
(80,564,o),
(52,521,o),
(52,469,c),
(61,339,o),
(198,319,o),
(318,301,cs),
(454,281,o),
(544,261,o),
(550,172,c),
(550,136,o),
(529,106,o),
(488,82,cs),
(399,30,o),
(238,29,o),
(151,79,cs),
(126,94,o),
(109,111,o),
(101,132,cs),
(93,151,o),
(75,164,o),
(54,164,c),
(52,164,l),
(52,114,o),
(79,72,o),
(130,42,cs),
(179,14,o),
(247,0,o),
(315,0,cs),
(386,0,o),
(457,15,o),
(510,45,cs),
(564,77,o),
(592,120,o),
(592,173,c),
(583,305,o),
(446,325,o),
(324,343,c)
);
}
);
width = 645;
}
);
leftKerningGroup = S2;
rightKerningGroup = S;
unicode = 352;
},
{
glyphname = scaron;
layers = (
{
layerId = "DBD9F252-B0AF-4540-AABD-DA467279EDBA";
shapes = (
{
closed = 1;
nodes = (
(277,565,o),
(288,569,o),
(296,578,cs),
(346,628,l),
(330,644,o),
(303,644,o),
(286,628,cs),
(266,608,l),
(246,628,ls),
(229,644,o),
(203,644,o),
(186,628,c),
(236,578,ls),
(244,569,o),
(255,565,o),
(266,565,c)
);
},
{
closed = 1;
nodes = (
(269,263,l),
(163,277,o),
(98,291,o),
(93,351,c),
(94,373,o),
(107,392,o),
(134,407,cs),
(202,447,o),
(334,448,o),
(401,409,cs),
(415,401,o),
(425,392,o),
(431,381,cs),
(441,365,o),
(457,354,o),
(476,354,c),
(481,354,l),
(481,392,o),
(461,423,o),
(422,446,cs),
(342,492,o),
(194,491,o),
(113,444,cs),
(72,421,o),
(51,388,o),
(51,350,cs),
(51,349,ls),
(58,249,o),
(167,234,o),
(263,221,cs),
(369,206,o),
(434,193,o),
(439,131,c),
(439,108,o),
(425,89,o),
(397,73,cs),
(328,33,o),
(199,32,o),
(132,70,cs),
(118,79,o),
(107,88,o),
(101,99,cs),
(91,115,o),
(75,126,o),
(56,126,c),
(51,126,l),
(51,88,o),
(72,56,o),
(111,34,cs),
(150,11,o),
(205,0,o),
(261,0,cs),
(318,0,o),
(377,12,o),
(418,36,cs),
(460,60,o),
(481,93,o),
(481,132,cs),
(481,133,ls),
(474,234,o),
(365,249,o),
(268,263,c)
);
}
);
width = 533;
}
);
unicode = 353;
},
{
glyphname = Ydieresis;
layers = (
{
layerId = "DBD9F252-B0AF-4540-AABD-DA467279EDBA";
shapes = (
{
closed = 1;
nodes = (
(265,360,l),
(74,623,ls),
(60,641,o),
(34,646,o),
(15,632,c),
(244,318,l),
(244,0,l),
(267,0,o),
(286,19,o),
(286,42,cs),
(286,318,l),
(515,632,l),
(497,646,o),
(470,641,o),
(456,623,c)
);
},
{
closed = 1;
nodes = (
(229,692,o),
(247,710,o),
(247,732,cs),
(247,754,o),
(229,772,o),
(207,772,cs),
(185,772,o),
(167,754,o),
(167,732,cs),
(167,710,o),
(185,692,o),
(207,692,cs)
);
},
{
closed = 1;
nodes = (
(349,692,o),
(367,710,o),
(367,732,cs),
(367,754,o),
(349,772,o),
(327,772,cs),
(305,772,o),
(287,754,o),
(287,732,cs),
(287,710,o),
(305,692,o),
(327,692,cs)
);
}
);
width = 531;
}
);
leftKerningGroup = Y2;
rightKerningGroup = Y;
unicode = 376;
},
{
glyphname = Zcaron;
layers = (
{
layerId = "DBD9F252-B0AF-4540-AABD-DA467279EDBA";
shapes = (
{
closed = 1;
nodes = (
(299,686,o),
(310,690,o),
(318,698,cs),
(368,748,l),
(352,765,o),
(325,765,o),
(308,748,cs),
(288,728,l),
(268,748,ls),
(251,765,o),
(225,765,o),
(208,748,c),
(258,698,ls),
(266,690,o),
(277,686,o),
(288,686,c)
);
},
{
closed = 1;
nodes = (
(537,635,o),
(529,640,o),
(521,640,cs),
(46,640,l),
(46,617,o),
(65,598,o),
(88,598,cs),
(477,598,l),
(30,34,ls),
(25,28,o),
(24,19,o),
(27,12,cs),
(31,5,o),
(38,0,o),
(46,0,c),
(46,0,l),
(526,1,l),
(526,25,o),
(507,43,o),
(484,43,cs),
(90,42,l),
(538,606,ls),
(543,612,o),
(544,621,o),
(540,628,cs)
);
}
);
width = 569;
}
);
leftKerningGroup = Z2;
rightKerningGroup = Z;
unicode = 381;
},
{
glyphname = zcaron;
layers = (
{
layerId = "DBD9F252-B0AF-4540-AABD-DA467279EDBA";
shapes = (
{
closed = 1;
nodes = (
(295,566,o),
(306,570,o),
(315,579,cs),
(365,629,l),
(348,645,o),
(321,645,o),
(305,629,cs),
(285,609,l),
(264,629,ls),
(248,645,o),
(221,645,o),
(205,629,c),
(255,579,ls),
(263,570,o),
(274,566,o),
(285,566,c)
);
},
{
closed = 1;
nodes = (
(533,477,o),
(525,482,o),
(516,482,cs),
(83,482,ls),
(60,482,o),
(41,463,o),
(41,440,c),
(463,440,l),
(39,36,ls),
(32,30,o),
(30,21,o),
(34,13,cs),
(37,5,o),
(45,0,o),
(53,0,c),
(53,0,l),
(479,1,ls),
(502,1,o),
(521,20,o),
(521,43,c),
(106,42,l),
(531,446,ls),
(537,452,o),
(539,461,o),
(536,469,cs)
);
}
);
width = 569;
}
);
unicode = 382;
},
{
glyphname = circumflex;
layers = (
{
layerId = "DBD9F252-B0AF-4540-AABD-DA467279EDBA";
shapes = (
{
closed = 1;
nodes = (
(147,543,ls),
(139,551,o),
(128,555,o),
(117,555,c),
(106,555,o),
(95,551,o),
(87,543,cs),
(37,493,l),
(54,476,o),
(80,476,o),
(97,493,cs),
(117,513,l),
(137,493,ls),
(154,476,o),
(181,476,o),
(197,493,c)
);
}
);
width = 235;
}
);
unicode = 710;
},
{
glyphname = caron;
layers = (
{
layerId = "DBD9F252-B0AF-4540-AABD-DA467279EDBA";
shapes = (
{
closed = 1;
nodes = (
(91,523,l),
(71,543,ls),
(54,559,o),
(28,559,o),
(11,543,c),
(61,493,ls),
(69,484,o),
(80,480,o),
(91,480,c),
(102,480,o),
(113,484,o),
(121,493,cs),
(171,543,l),
(155,559,o),
(128,559,o),
(111,543,c)
);
}
);
width = 183;
}
);
unicode = 711;
},
{
glyphname = ilde;
layers = (
{
layerId = "DBD9F252-B0AF-4540-AABD-DA467279EDBA";
shapes = (
{
closed = 1;
nodes = (
(379,520,l),
(364,535,o),
(341,538,o),
(322,528,cs),
(290,513,o),
(259,528,o),
(215,553,cs),
(163,582,o),
(99,618,o),
(30,549,c),
(31,549,l),
(46,533,o),
(69,531,o),
(88,540,cs),
(120,556,o),
(151,541,o),
(195,516,cs),
(224,499,o),
(259,480,o),
(295,480,cs),
(322,480,o),
(351,490,o),
(380,519,c)
);
}
);
width = 415;
}
);
unicode = 732;
},
{
glyphname = endash;
layers = (
{
layerId = "DBD9F252-B0AF-4540-AABD-DA467279EDBA";
shapes = (
{
closed = 1;
nodes = (
(39,362,l),
(39,339,o),
(58,320,o),
(81,320,cs),
(359,320,l),
(359,343,o),
(340,362,o),
(317,362,cs)
);
}
);
width = 399;
}
);
unicode = 8211;
},
{
glyphname = emdash;
layers = (
{
layerId = "DBD9F252-B0AF-4540-AABD-DA467279EDBA";
shapes = (
{
closed = 1;
nodes = (
(39,362,l),
(39,339,o),
(58,320,o),
(81,320,cs),
(759,320,l),
(759,343,o),
(740,362,o),
(717,362,cs)
);
}
);
width = 799;
}
);
unicode = 8212;
},
{
glyphname = quoteleft;
layers = (
{
layerId = "DBD9F252-B0AF-4540-AABD-DA467279EDBA";
shapes = (
{
closed = 1;
nodes = (
(80,480,l),
(103,480,o),
(122,499,o),
(122,522,cs),
(122,640,l),
(99,640,o),
(80,621,o),
(80,598,cs)
);
}
);
width = 202;
}
);
leftKerningGroup = asterisk;
rightKerningGroup = quotedbl;
unicode = 8216;
},
{
glyphname = quoteright;
layers = (
{
layerId = "DBD9F252-B0AF-4540-AABD-DA467279EDBA";
shapes = (
{
closed = 1;
nodes = (
(41,533,ls),
(34,510,o),
(47,487,o),
(69,480,c),
(105,600,ls),
(111,623,o),
(98,646,o),
(76,653,c)
);
}
);
width = 120;
}
);
leftKerningGroup = asterisk;
rightKerningGroup = quotedbl;
unicode = 8217;
},
{
glyphname = quotesinglbase;
layers = (
{
layerId = "DBD9F252-B0AF-4540-AABD-DA467279EDBA";
shapes = (
{
closed = 1;
nodes = (
(6,-66,l),
(27,-76,o),
(52,-68,o),
(63,-47,cs),
(124,75,l),
(103,86,o),
(78,77,o),
(67,56,cs)
);
}
);
width = 167;
}
);
leftKerningGroup = comma2;
rightKerningGroup = comma;
unicode = 8218;
},
{
glyphname = quoteleftreversed;
layers = (
{
layerId = "DBD9F252-B0AF-4540-AABD-DA467279EDBA";
shapes = (
{
closed = 1;
nodes = (
(40,480,l),
(63,480,o),
(82,499,o),
(82,522,cs),
(82,640,l),
(59,640,o),
(40,621,o),
(40,597,cs)
);
}
);
width = 122;
}
);
rightKerningGroup = quotedbl;
unicode = 8219;
},
{
glyphname = quotedblleft;
layers = (
{
layerId = "DBD9F252-B0AF-4540-AABD-DA467279EDBA";
shapes = (
{
closed = 1;
nodes = (
(42,653,l),
(20,646,o),
(7,623,o),
(14,600,cs),
(49,480,l),
(71,487,o),
(84,510,o),
(78,533,cs)
);
},
{
closed = 1;
nodes = (
(122,653,l),
(100,646,o),
(87,623,o),
(94,600,cs),
(129,480,l),
(151,487,o),
(164,510,o),
(158,533,c)
);
}
);
width = 198;
}
);
leftKerningGroup = asterisk;
rightKerningGroup = quotedbl;
unicode = 8220;
},
{
glyphname = quotedblright;
layers = (
{
layerId = "DBD9F252-B0AF-4540-AABD-DA467279EDBA";
shapes = (
{
closed = 1;
nodes = (
(121,533,ls),
(114,510,o),
(127,487,o),
(149,480,c),
(185,600,ls),
(191,623,o),
(178,646,o),
(156,653,c)
);
},
{
closed = 1;
nodes = (
(41,533,ls),
(34,510,o),
(47,487,o),
(69,480,c),
(105,600,ls),
(111,623,o),
(98,646,o),
(76,653,c)
);
}
);
width = 200;
}
);
leftKerningGroup = asterisk;
rightKerningGroup = quotedbl;
unicode = 8221;
},
{
glyphname = quotedblbase;
layers = (
{
layerId = "DBD9F252-B0AF-4540-AABD-DA467279EDBA";
shapes = (
{
closed = 1;
nodes = (
(6,-66,l),
(27,-76,o),
(52,-68,o),
(63,-47,cs),
(124,75,l),
(103,86,o),
(78,77,o),
(67,56,cs)
);
},
{
closed = 1;
nodes = (
(105,-66,l),
(126,-76,o),
(151,-68,o),
(162,-47,cs),
(223,75,l),
(202,86,o),
(176,77,o),
(166,56,cs)
);
}
);
width = 266;
}
);
leftKerningGroup = comma2;
rightKerningGroup = comma;
unicode = 8222;
},
{
glyphname = dagger;
layers = (
{
layerId = "DBD9F252-B0AF-4540-AABD-DA467279EDBA";
shapes = (
{
closed = 1;
nodes = (
(201,483,l),
(201,560,l),
(178,560,o),
(159,541,o),
(159,518,cs),
(159,483,l),
(102,483,ls),
(79,483,o),
(60,464,o),
(60,441,c),
(159,441,l),
(159,0,l),
(182,0,o),
(201,19,o),
(201,43,cs),
(201,441,l),
(258,441,ls),
(281,441,o),
(300,460,o),
(300,483,c)
);
}
);
width = 360;
}
);
unicode = 8224;
},
{
glyphname = daggerdbl;
layers = (
{
layerId = "DBD9F252-B0AF-4540-AABD-DA467279EDBA";
shapes = (
{
closed = 1;
nodes = (
(207,441,l),
(264,441,ls),
(287,441,o),
(306,460,o),
(306,483,c),
(207,483,l),
(207,560,l),
(184,560,o),
(165,541,o),
(165,518,cs),
(165,483,l),
(108,483,ls),
(85,483,o),
(66,464,o),
(66,441,c),
(165,441,l),
(165,121,l),
(108,121,ls),
(85,121,o),
(66,102,o),
(66,78,c),
(165,78,l),
(165,0,l),
(188,0,o),
(207,19,o),
(207,43,cs),
(207,78,l),
(264,78,ls),
(287,78,o),
(306,97,o),
(306,121,c),
(207,121,l)
);
}
);
width = 372;
}
);
unicode = 8225;
},
{
glyphname = bullet;
layers = (
{
layerId = "DBD9F252-B0AF-4540-AABD-DA467279EDBA";
shapes = (
{
closed = 1;
nodes = (
(91,480,o),
(55,444,o),
(55,400,cs),
(55,356,o),
(91,320,o),
(135,320,cs),
(179,320,o),
(215,356,o),
(215,400,cs),
(215,444,o),
(179,480,o),
(135,480,cs)
);
}
);
width = 270;
}
);
unicode = 8226;
},
{
glyphname = ellipsis;
layers = (
{
layerId = "DBD9F252-B0AF-4540-AABD-DA467279EDBA";
shapes = (
{
closed = 1;
nodes = (
(108,0,o),
(126,18,o),
(126,40,cs),
(126,62,o),
(108,80,o),
(86,80,cs),
(64,80,o),
(46,62,o),
(46,40,cs),
(46,18,o),
(64,0,o),
(86,0,cs)
);
},
{
closed = 1;
nodes = (
(268,0,o),
(286,18,o),
(286,40,cs),
(286,62,o),
(268,80,o),
(246,80,cs),
(224,80,o),
(206,62,o),
(206,40,cs),
(206,18,o),
(224,0,o),
(246,0,cs)
);
},
{
closed = 1;
nodes = (
(384,80,o),
(366,62,o),
(366,40,cs),
(366,18,o),
(384,0,o),
(406,0,cs),
(428,0,o),
(446,18,o),
(446,40,cs),
(446,62,o),
(428,80,o),
(406,80,cs)
);
}
);
width = 492;
}
);
leftKerningGroup = period;
rightKerningGroup = comma;
unicode = 8230;
},
{
glyphname = perthousand;
layers = (
{
layerId = "DBD9F252-B0AF-4540-AABD-DA467279EDBA";
shapes = (
{
closed = 1;
nodes = (
(62,15,l),
(79,-2,o),
(105,-2,o),
(122,15,cs),
(732,625,l),
(715,641,o),
(689,641,o),
(672,625,cs)
);
},
{
closed = 1;
nodes = (
(201,480,o),
(237,516,o),
(237,560,cs),
(237,604,o),
(201,640,o),
(157,640,cs),
(113,640,o),
(77,604,o),
(77,560,cs),
(77,516,o),
(113,480,o),
(157,480,cs)
);
},
{
closed = 1;
nodes = (
(178,597,o),
(195,581,o),
(195,560,cs),
(195,539,o),
(178,522,o),
(157,522,cs),
(136,522,o),
(119,539,o),
(119,560,cs),
(119,581,o),
(136,597,o),
(157,597,cs)
);
},
{
closed = 1;
nodes = (
(353,160,o),
(317,124,o),
(317,80,cs),
(317,36,o),
(353,0,o),
(397,0,cs),
(441,0,o),
(477,36,o),
(477,80,cs),
(477,124,o),
(441,160,o),
(397,160,cs)
);
},
{
closed = 1;
nodes = (
(376,42,o),
(359,59,o),
(359,80,cs),
(359,101,o),
(376,118,o),
(397,118,cs),
(418,118,o),
(435,101,o),
(435,80,cs),
(435,59,o),
(418,42,o),
(397,42,cs)
);
},
{
closed = 1;
nodes = (
(593,160,o),
(557,124,o),
(557,80,cs),
(557,36,o),
(593,0,o),
(637,0,cs),
(681,0,o),
(717,36,o),
(717,80,cs),
(717,124,o),
(681,160,o),
(637,160,cs)
);
},
{
closed = 1;
nodes = (
(616,42,o),
(599,59,o),
(599,80,cs),
(599,101,o),
(616,118,o),
(637,118,cs),
(658,118,o),
(675,101,o),
(675,80,cs),
(675,59,o),
(658,42,o),
(637,42,cs)
);
}
);
width = 795;
}
);
unicode = 8240;
},
{
glyphname = guilsinglleft;
layers = (
{
layerId = "DBD9F252-B0AF-4540-AABD-DA467279EDBA";
shapes = (
{
closed = 1;
nodes = (
(253,543,l),
(237,559,o),
(210,559,o),
(193,543,cs),
(65,415,ls),
(56,405,o),
(56,390,o),
(65,381,cs),
(193,253,ls),
(210,236,o),
(237,236,o),
(253,253,c),
(108,398,l)
);
}
);
width = 311;
}
);
leftKerningGroup = guillemotleft2;
rightKerningGroup = guillemotleft;
unicode = 8249;
},
{
glyphname = guilsinglright;
layers = (
{
layerId = "DBD9F252-B0AF-4540-AABD-DA467279EDBA";
shapes = (
{
closed = 1;
nodes = (
(117,543,ls),
(100,559,o),
(74,559,o),
(57,543,c),
(202,398,l),
(57,253,l),
(74,236,o),
(100,236,o),
(117,253,cs),
(245,381,ls),
(254,390,o),
(254,405,o),
(245,415,cs)
);
}
);
width = 311;
}
);
leftKerningGroup = guillemotright2;
rightKerningGroup = guillemotright;
unicode = 8250;
},
{
glyphname = fraction;
layers = (
{
layerId = "DBD9F252-B0AF-4540-AABD-DA467279EDBA";
shapes = (
{
closed = 1;
nodes = (
(55,4,l),
(76,-6,o),
(101,2,o),
(112,23,cs),
(413,625,l),
(392,636,o),
(366,627,o),
(356,606,c)
);
}
);
width = 468;
}
);
unicode = 8260;
},
{
glyphname = foursuperior;
layers = (
{
layerId = "DBD9F252-B0AF-4540-AABD-DA467279EDBA";
shapes = (
{
closed = 1;
nodes = (
(229,701,ls),
(229,710,o),
(223,718,o),
(214,721,cs),
(206,723,o),
(196,720,o),
(191,713,cs),
(84,566,ls),
(79,560,o),
(79,551,o),
(82,544,cs),
(86,537,o),
(93,532,o),
(101,532,cs),
(187,532,l),
(187,480,l),
(210,480,o),
(229,499,o),
(229,522,cs),
(229,532,l),
(257,532,l),
(257,547,ls),
(257,562,o),
(245,575,o),
(229,575,c)
);
},
{
closed = 1;
nodes = (
(187,575,l),
(143,575,l),
(187,635,l)
);
}
);
width = 337;
}
);
unicode = 8308;
},
{
glyphname = eightsuperior;
layers = (
{
layerId = "DBD9F252-B0AF-4540-AABD-DA467279EDBA";
shapes = (
{
closed = 1;
nodes = (
(218,621,o),
(225,637,o),
(225,655,cs),
(225,693,o),
(194,723,o),
(157,723,cs),
(119,723,o),
(88,693,o),
(88,655,cs),
(88,637,o),
(95,621,o),
(105,609,c),
(90,596,o),
(80,576,o),
(80,554,cs),
(80,513,o),
(114,480,o),
(157,480,cs),
(199,480,o),
(233,513,o),
(233,554,cs),
(233,576,o),
(223,596,o),
(208,609,c)
);
},
{
closed = 1;
nodes = (
(130,669,o),
(142,681,o),
(157,681,cs),
(171,681,o),
(183,669,o),
(183,655,cs),
(183,640,o),
(171,628,o),
(157,628,cs),
(142,628,o),
(130,640,o),
(130,655,cs)
);
},
{
closed = 1;
nodes = (
(138,522,o),
(122,537,o),
(122,554,cs),
(122,572,o),
(138,586,o),
(157,586,cs),
(175,586,o),
(191,572,o),
(191,554,cs),
(191,537,o),
(175,522,o),
(157,522,cs)
);
}
);
width = 313;
}
);
unicode = 8312;
},
{
glyphname = Euro;
layers = (
{
layerId = "DBD9F252-B0AF-4540-AABD-DA467279EDBA";
shapes = (
{
closed = 1;
nodes = (
(493,50,o),
(460,42,o),
(427,42,cs),
(322,42,o),
(233,118,o),
(199,224,c),
(427,224,ls),
(450,224,o),
(469,243,o),
(469,266,c),
(188,266,l),
(185,284,o),
(184,302,o),
(184,320,cs),
(184,338,o),
(185,356,o),
(188,373,c),
(427,373,ls),
(450,373,o),
(469,392,o),
(469,416,c),
(199,416,l),
(233,522,o),
(322,598,o),
(427,598,cs),
(460,598,o),
(493,590,o),
(523,575,cs),
(543,565,o),
(568,571,o),
(581,589,c),
(535,622,o),
(482,640,o),
(427,640,cs),
(299,640,o),
(191,546,o),
(154,416,c),
(106,416,ls),
(83,416,o),
(64,397,o),
(64,373,c),
(145,373,l),
(143,356,o),
(141,338,o),
(141,320,cs),
(141,302,o),
(143,284,o),
(145,266,c),
(106,266,ls),
(83,266,o),
(64,247,o),
(64,224,c),
(154,224,l),
(191,94,o),
(299,0,o),
(427,0,cs),
(482,0,o),
(535,17,o),
(581,51,c),
(568,69,o),
(543,75,o),
(523,65,c)
);
}
);
width = 644;
}
);
unicode = 8364;
},
{
glyphname = trademark;
layers = (
{
layerId = "DBD9F252-B0AF-4540-AABD-DA467279EDBA";
shapes = (
{
closed = 1;
nodes = (
(366,642,l),
(364,651,o),
(356,657,o),
(347,658,cs),
(338,658,o),
(329,652,o),
(326,644,cs),
(287,537,l),
(247,644,ls),
(244,652,o),
(235,658,o),
(226,658,cs),
(217,657,o),
(209,651,o),
(206,642,cs),
(147,402,l),
(170,396,o),
(193,410,o),
(198,432,cs),
(231,565,l),
(267,468,ls),
(270,460,o),
(278,454,o),
(287,454,cs),
(295,454,o),
(303,460,o),
(306,468,cs),
(342,566,l),
(377,432,ls),
(383,409,o),
(406,396,o),
(429,402,c)
);
},
{
closed = 1;
nodes = (
(168,615,l),
(168,639,o),
(149,658,o),
(125,658,cs),
(-13,658,l),
(-13,634,o),
(6,615,o),
(29,615,cs),
(56,615,l),
(56,443,ls),
(56,419,o),
(75,400,o),
(98,400,c),
(98,615,l)
);
}
);
width = 482;
}
);
unicode = 8482;
},
{
glyphname = minus;
layers = (
{
layerId = "DBD9F252-B0AF-4540-AABD-DA467279EDBA";
shapes = (
{
closed = 1;
nodes = (
(82,402,ls),
(59,402,o),
(40,383,o),
(40,360,c),
(318,360,ls),
(341,360,o),
(360,379,o),
(360,402,c)
);
}
);
width = 399;
}
);
unicode = 8722;
},
{
glyphname = quoteleft.alt1;
layers = (
{
layerId = "DBD9F252-B0AF-4540-AABD-DA467279EDBA";
shapes = (
{
closed = 1;
nodes = (
(42,653,l),
(20,646,o),
(7,623,o),
(14,600,cs),
(49,480,l),
(71,487,o),
(84,510,o),
(78,533,c)
);
}
);
width = 118;
}
);
leftKerningGroup = asterisk;
rightKerningGroup = quotedbl;
unicode = 61440;
},
{
glyphname = A.alt1;
layers = (
{
layerId = "DBD9F252-B0AF-4540-AABD-DA467279EDBA";
shapes = (
{
closed = 1;
nodes = (
(470,53,o),
(439,72,o),
(407,92,cs),
(361,120,o),
(314,149,o),
(243,146,c),
(195,146,o),
(150,134,o),
(113,114,c),
(315,567,l),
(486,185,ls),
(495,163,o),
(520,154,o),
(542,163,c),
(334,628,ls),
(331,635,o),
(323,640,o),
(315,640,cs),
(307,640,o),
(299,635,o),
(296,628,cs),
(20,9,l),
(36,2,ls),
(49,-3,o),
(63,2,o),
(69,15,cs),
(94,67,o),
(165,103,o),
(244,103,c),
(303,106,o),
(343,82,o),
(384,56,cs),
(428,29,o),
(472,2,o),
(538,2,cs),
(542,2,o),
(546,2,o),
(549,2,c),
(548,24,o),
(532,43,o),
(511,46,c)
);
}
);
width = 582;
}
);
leftKerningGroup = AE;
unicode = 61441;
},
{
glyphname = B.alt1;
layers = (
{
layerId = "DBD9F252-B0AF-4540-AABD-DA467279EDBA";
shapes = (
{
closed = 1;
nodes = (
(560,550,o),
(453,640,o),
(320,640,cs),
(191,640,o),
(86,555,o),
(80,448,c),
(80,448,l),
(80,197,l),
(80,197,l),
(82,88,o),
(189,0,o),
(320,0,cs),
(453,0,o),
(560,90,o),
(560,200,cs),
(560,245,o),
(542,287,o),
(512,320,c),
(542,353,o),
(560,395,o),
(560,440,c)
);
},
{
closed = 1;
nodes = (
(518,113,o),
(429,42,o),
(320,42,cs),
(211,42,o),
(122,113,o),
(122,200,cs),
(122,440,ls),
(122,527,o),
(211,598,o),
(320,598,cs),
(429,598,o),
(518,527,o),
(518,440,cs),
(518,406,o),
(504,374,o),
(481,348,c),
(438,380,o),
(382,400,o),
(320,400,cs),
(258,400,o),
(202,380,o),
(159,348,cs),
(148,340,o),
(138,330,o),
(128,320,c),
(138,310,o),
(148,300,o),
(159,292,cs),
(202,260,o),
(258,240,o),
(320,240,cs),
(382,240,o),
(438,260,o),
(481,292,c),
(504,266,o),
(518,234,o),
(518,200,cs)
);
},
{
closed = 1;
nodes = (
(413,297,o),
(369,282,o),
(320,282,cs),
(271,282,o),
(227,297,o),
(192,320,c),
(227,343,o),
(271,358,o),
(320,358,cs),
(369,358,o),
(413,343,o),
(448,320,c)
);
}
);
width = 640;
}
);
unicode = 61442;
},
{
glyphname = C.alt1;
layers = (
{
layerId = "DBD9F252-B0AF-4540-AABD-DA467279EDBA";
shapes = (
{
closed = 1;
nodes = (
(559,80,o),
(483,42,o),
(400,42,cs),
(264,42,o),
(146,143,o),
(126,277,cs),
(123,291,o),
(122,305,o),
(122,320,cs),
(122,363,o),
(133,404,o),
(150,440,c),
(209,368,o),
(299,321,o),
(400,321,cs),
(518,321,o),
(622,386,o),
(677,482,c),
(675,482,l),
(614,584,o),
(498,650,o),
(368,638,cs),
(281,629,o),
(203,585,o),
(151,519,c),
(139,544,o),
(130,570,o),
(126,598,c),
(125,599,o),
(125,600,o),
(125,601,c),
(122,623,o),
(103,641,o),
(80,641,c),
(80,624,o),
(81,608,o),
(84,592,cs),
(90,551,o),
(104,514,o),
(123,480,c),
(102,443,o),
(87,401,o),
(82,356,cs),
(79,327,o),
(80,298,o),
(84,271,cs),
(107,117,o),
(240,0,o),
(400,0,cs),
(518,0,o),
(622,65,o),
(677,161,c),
(654,161,ls),
(637,161,o),
(621,153,o),
(610,140,c)
);
},
{
closed = 1;
nodes = (
(493,597,o),
(575,551,o),
(625,481,c),
(626,481,l),
(575,409,o),
(491,363,o),
(400,363,cs),
(308,363,o),
(225,409,o),
(174,480,c),
(224,551,o),
(307,597,o),
(400,597,c)
);
}
);
width = 757;
}
);
unicode = 61443;
},
{
glyphname = D.alt1;
layers = (
{
layerId = "DBD9F252-B0AF-4540-AABD-DA467279EDBA";
shapes = (
{
closed = 1;
nodes = (
(89,642,o),
(80,633,o),
(80,621,cs),
(80,222,l),
(81,222,l),
(84,186,o),
(96,151,o),
(116,120,c),
(92,84,o),
(80,43,o),
(80,0,c),
(81,0,ls),
(103,0,o),
(122,16,o),
(126,38,cs),
(130,54,o),
(136,70,o),
(144,85,c),
(185,43,o),
(241,19,o),
(301,19,cs),
(371,19,o),
(435,51,o),
(478,107,cs),
(483,115,o),
(483,125,o),
(478,133,cs),
(435,189,o),
(371,221,o),
(301,221,cs),
(241,221,o),
(185,197,o),
(144,155,c),
(130,181,o),
(122,210,o),
(122,240,cs),
(122,600,l),
(352,589,o),
(538,409,o),
(558,182,cs),
(560,159,o),
(579,141,o),
(601,141,c),
(602,141,l),
(602,418,o),
(377,643,o),
(101,642,c)
);
},
{
closed = 1;
nodes = (
(352,179,o),
(400,158,o),
(433,120,c),
(400,82,o),
(352,61,o),
(301,61,cs),
(250,61,o),
(203,82,o),
(169,120,c),
(203,158,o),
(250,179,o),
(301,179,cs)
);
}
);
width = 682;
}
);
unicode = 61444;
},
{
glyphname = E.alt1;
layers = (
{
layerId = "DBD9F252-B0AF-4540-AABD-DA467279EDBA";
shapes = (
{
closed = 1;
nodes = (
(504,102,o),
(422,42,o),
(325,42,cs),
(213,42,o),
(122,121,o),
(122,217,cs),
(122,310,o),
(205,385,o),
(310,392,cs),
(318,393,o),
(325,400,o),
(325,408,cs),
(325,420,ls),
(325,428,o),
(319,435,o),
(310,436,cs),
(264,441,o),
(228,476,o),
(228,517,cs),
(228,552,o),
(253,581,o),
(289,593,cs),
(310,600,o),
(325,619,o),
(325,641,c),
(248,641,o),
(186,586,o),
(186,517,cs),
(186,478,o),
(206,443,o),
(237,420,c),
(145,389,o),
(80,310,o),
(80,217,cs),
(80,98,o),
(190,0,o),
(325,0,cs),
(459,0,o),
(569,98,o),
(569,217,c),
(547,217,o),
(528,203,o),
(523,182,c)
);
}
);
width = 649;
}
);
unicode = 61445;
},
{
glyphname = F.alt1;
layers = (
{
layerId = "DBD9F252-B0AF-4540-AABD-DA467279EDBA";
shapes = (
{
closed = 1;
nodes = (
(448,319,l),
(448,342,o),
(429,361,o),
(405,361,cs),
(246,361,l),
(246,468,ls),
(246,538,o),
(303,596,o),
(373,596,cs),
(405,596,ls),
(429,597,o),
(448,616,o),
(447,639,c),
(372,638,ls),
(279,638,o),
(203,561,o),
(203,468,cs),
(203,361,l),
(141,361,l),
(141,338,o),
(160,319,o),
(183,319,cs),
(203,319,l),
(203,166,ls),
(203,110,o),
(166,63,o),
(116,48,cs),
(95,41,o),
(80,22,o),
(80,0,c),
(171,0,o),
(246,74,o),
(246,166,cs),
(246,319,l)
);
}
);
width = 528;
}
);
unicode = 61446;
},
{
glyphname = G.alt1;
layers = (
{
layerId = "DBD9F252-B0AF-4540-AABD-DA467279EDBA";
shapes = (
{
closed = 1;
nodes = (
(582,239,o),
(493,290,o),
(398,290,cs),
(306,290,o),
(219,242,o),
(170,164,c),
(140,208,o),
(122,262,o),
(122,320,cs),
(122,473,o),
(247,597,o),
(400,597,cs),
(451,597,o),
(500,583,o),
(543,557,cs),
(563,546,o),
(588,550,o),
(602,568,c),
(545,614,o),
(474,640,o),
(400,640,cs),
(224,640,o),
(80,496,o),
(80,320,cs),
(80,245,o),
(106,176,o),
(149,122,c),
(136,90,o),
(130,56,o),
(130,22,c),
(130,22,l),
(153,22,o),
(171,39,o),
(175,61,cs),
(177,70,o),
(179,78,o),
(181,86,c),
(239,33,o),
(315,0,o),
(400,0,cs),
(402,0,o),
(404,0,o),
(406,1,cs),
(498,4,o),
(583,54,o),
(630,135,cs),
(633,141,o),
(633,149,o),
(630,156,c)
);
},
{
closed = 1;
nodes = (
(396,43,o),
(394,43,o),
(393,42,cs),
(316,44,o),
(248,77,o),
(199,129,c),
(238,202,o),
(315,248,o),
(398,248,cs),
(474,248,o),
(545,209,o),
(586,145,c),
(545,82,o),
(474,43,o),
(398,43,c)
);
}
);
width = 712;
}
);
unicode = 61447;
},
{
glyphname = H.alt1;
layers = (
{
layerId = "DBD9F252-B0AF-4540-AABD-DA467279EDBA";
shapes = (
{
closed = 1;
nodes = (
(559,320,l),
(582,320,o),
(601,339,o),
(601,362,cs),
(601,640,l),
(578,640,o),
(559,621,o),
(559,598,cs)
);
},
{
closed = 1;
nodes = (
(559,0,l),
(582,0,o),
(601,19,o),
(601,42,cs),
(601,161,l),
(578,161,o),
(559,142,o),
(559,118,cs)
);
},
{
closed = 1;
nodes = (
(466,190,o),
(409,222,o),
(345,258,cs),
(278,296,o),
(204,338,o),
(123,289,c),
(123,640,l),
(99,640,o),
(80,621,o),
(80,598,cs),
(80,255,l),
(80,255,o),
(80,255,o),
(80,255,c),
(80,254,l),
(80,0,l),
(104,0,o),
(123,19,o),
(123,42,cs),
(123,237,l),
(192,296,o),
(253,261,o),
(324,222,cs),
(369,196,o),
(418,169,o),
(469,169,cs),
(507,169,o),
(547,184,o),
(588,225,c),
(573,241,o),
(548,243,o),
(529,231,cs)
);
}
);
width = 681;
}
);
unicode = 61448;
},
{
glyphname = I.alt1;
layers = (
{
layerId = "DBD9F252-B0AF-4540-AABD-DA467279EDBA";
shapes = (
{
closed = 1;
nodes = (
(150,631,o),
(115,640,o),
(80,640,c),
(80,618,o),
(95,598,o),
(117,594,cs),
(132,591,o),
(146,586,o),
(160,579,c),
(160,0,l),
(183,0,o),
(202,19,o),
(202,42,cs),
(202,579,l),
(216,586,o),
(231,591,o),
(246,594,cs),
(267,598,o),
(282,618,o),
(282,640,c),
(247,640,o),
(212,631,o),
(181,616,c)
);
}
);
width = 362;
}
);
unicode = 61449;
},
{
glyphname = J.alt1;
layers = (
{
layerId = "DBD9F252-B0AF-4540-AABD-DA467279EDBA";
shapes = (
{
closed = 1;
nodes = (
(474,619,l),
(474,630,o),
(464,640,o),
(453,640,cs),
(277,640,l),
(277,616,o),
(296,597,o),
(319,597,cs),
(431,597,l),
(431,210,ls),
(431,192,o),
(428,174,o),
(423,158,c),
(384,203,o),
(325,231,o),
(264,231,cs),
(190,231,o),
(120,191,o),
(83,126,cs),
(79,119,o),
(79,111,o),
(83,105,cs),
(120,40,o),
(190,0,o),
(264,0,cs),
(325,0,o),
(384,27,o),
(423,73,c),
(424,69,o),
(426,64,o),
(427,60,cs),
(432,37,o),
(451,21,o),
(474,21,c),
(474,54,o),
(466,86,o),
(451,115,c),
(466,145,o),
(474,177,o),
(474,210,c)
);
},
{
closed = 1;
nodes = (
(209,42,o),
(157,70,o),
(126,115,c),
(157,161,o),
(209,188,o),
(264,188,cs),
(319,188,o),
(371,161,o),
(402,115,c),
(371,70,o),
(319,42,o),
(264,42,cs)
);
}
);
width = 554;
}
);
unicode = 61450;
},
{
glyphname = K.alt1;
layers = (
{
layerId = "DBD9F252-B0AF-4540-AABD-DA467279EDBA";
shapes = (
{
closed = 1;
nodes = (
(579,641,o),
(561,625,o),
(556,602,cs),
(528,459,o),
(346,348,o),
(122,340,c),
(122,641,l),
(99,641,o),
(80,622,o),
(80,599,cs),
(80,1,l),
(103,1,o),
(122,20,o),
(122,44,cs),
(122,281,l),
(534,7,ls),
(554,-6,o),
(580,-1,o),
(593,19,c),
(168,301,l),
(413,324,o),
(602,468,o),
(602,641,c)
);
}
);
width = 682;
}
);
unicode = 61451;
},
{
glyphname = L.alt1;
layers = (
{
layerId = "DBD9F252-B0AF-4540-AABD-DA467279EDBA";
shapes = (
{
closed = 1;
nodes = (
(435,189,o),
(371,221,o),
(301,221,cs),
(241,221,o),
(185,197,o),
(144,155,c),
(130,181,o),
(122,210,o),
(122,240,cs),
(122,598,l),
(122,621,o),
(103,640,o),
(80,640,c),
(80,240,ls),
(80,197,o),
(92,156,o),
(116,120,c),
(92,84,o),
(80,43,o),
(80,0,c),
(81,0,ls),
(103,0,o),
(122,16,o),
(126,38,cs),
(130,54,o),
(136,70,o),
(144,85,c),
(185,43,o),
(241,19,o),
(301,19,cs),
(371,19,o),
(435,51,o),
(478,107,cs),
(483,115,o),
(483,125,o),
(478,133,c)
);
},
{
closed = 1;
nodes = (
(250,61,o),
(203,82,o),
(169,120,c),
(203,158,o),
(250,179,o),
(301,179,cs),
(352,179,o),
(400,158,o),
(433,120,c),
(400,82,o),
(352,61,o),
(301,61,cs)
);
}
);
width = 562;
}
);
unicode = 61452;
},
{
glyphname = M.alt1;
layers = (
{
layerId = "DBD9F252-B0AF-4540-AABD-DA467279EDBA";
shapes = (
{
closed = 1;
nodes = (
(534,640,o),
(533,640,o),
(531,640,cs),
(491,639,o),
(451,627,o),
(417,605,c),
(381,628,o),
(339,640,o),
(295,640,cs),
(174,637,o),
(80,535,o),
(80,414,cs),
(80,42,ls),
(80,19,o),
(99,0,o),
(122,0,c),
(122,415,ls),
(122,511,o),
(197,594,o),
(293,597,cs),
(324,598,o),
(355,591,o),
(382,576,c),
(340,535,o),
(317,480,o),
(317,421,cs),
(317,352,o),
(349,288,o),
(405,246,cs),
(412,241,o),
(422,241,o),
(430,246,cs),
(486,288,o),
(517,352,o),
(517,421,cs),
(517,480,o),
(494,535,o),
(453,576,c),
(478,590,o),
(506,597,o),
(536,597,cs),
(537,597,o),
(538,597,o),
(539,598,cs),
(635,596,o),
(712,517,o),
(712,421,cs),
(712,43,ls),
(712,19,o),
(731,0,o),
(754,0,c),
(754,421,ls),
(754,542,o),
(656,640,o),
(536,640,c)
);
},
{
closed = 1;
nodes = (
(475,371,o),
(454,324,o),
(417,291,c),
(380,324,o),
(359,371,o),
(359,421,cs),
(359,471,o),
(380,518,o),
(417,551,c),
(454,518,o),
(475,471,o),
(475,421,cs)
);
}
);
width = 834;
}
);
unicode = 61453;
},
{
glyphname = N.alt1;
layers = (
{
layerId = "DBD9F252-B0AF-4540-AABD-DA467279EDBA";
shapes = (
{
closed = 1;
nodes = (
(560,191,l),
(510,261,o),
(425,283,o),
(346,304,cs),
(228,334,o),
(126,360,o),
(122,523,c),
(122,598,ls),
(122,621,o),
(103,640,o),
(80,640,c),
(80,42,ls),
(80,19,o),
(99,0,o),
(122,0,c),
(122,375,l),
(172,305,o),
(257,283,o),
(336,263,cs),
(454,232,o),
(556,206,o),
(560,43,c),
(560,42,l),
(560,19,o),
(579,0,o),
(602,0,c),
(602,598,ls),
(602,621,o),
(583,640,o),
(560,640,c)
);
}
);
width = 682;
}
);
unicode = 61454;
},
{
glyphname = O.alt1;
layers = (
{
layerId = "DBD9F252-B0AF-4540-AABD-DA467279EDBA";
shapes = (
{
closed = 1;
nodes = (
(772,401,o),
(748,395,o),
(735,377,cs),
(727,365,o),
(717,354,o),
(706,344,c),
(686,395,o),
(648,435,o),
(599,456,cs),
(539,481,o),
(473,475,o),
(416,440,cs),
(408,436,o),
(405,426,o),
(407,417,cs),
(422,352,o),
(464,301,o),
(523,276,cs),
(547,266,o),
(573,261,o),
(599,261,cs),
(625,261,o),
(651,266,o),
(676,276,c),
(654,144,o),
(539,42,o),
(401,42,cs),
(241,42,o),
(112,178,o),
(123,340,cs),
(133,488,o),
(261,604,o),
(410,600,cs),
(454,598,o),
(497,587,o),
(535,565,cs),
(555,554,o),
(580,559,o),
(594,578,c),
(531,625,o),
(454,647,o),
(374,641,cs),
(224,629,o),
(101,511,o),
(83,362,cs),
(58,167,o),
(210,0,o),
(401,0,cs),
(572,0,o),
(712,134,o),
(721,302,c),
(752,325,o),
(777,356,o),
(792,392,c)
);
},
{
closed = 1;
nodes = (
(497,333,o),
(466,368,o),
(452,412,c),
(494,433,o),
(540,434,o),
(582,417,cs),
(624,399,o),
(655,364,o),
(669,320,c),
(628,299,o),
(581,298,o),
(539,315,c)
);
}
);
width = 872;
}
);
unicode = 61455;
},
{
glyphname = P.alt1;
layers = (
{
layerId = "DBD9F252-B0AF-4540-AABD-DA467279EDBA";
shapes = (
{
closed = 1;
nodes = (
(405,600,o),
(485,536,o),
(503,447,c),
(503,447,o),
(503,447,o),
(503,447,c),
(507,425,o),
(526,408,o),
(548,408,c),
(549,408,l),
(549,424,o),
(547,440,o),
(544,455,cs),
(522,564,o),
(425,643,o),
(314,643,cs),
(185,643,o),
(80,537,o),
(80,408,cs),
(80,371,o),
(89,335,o),
(106,302,c),
(89,269,o),
(81,234,o),
(80,198,c),
(80,198,l),
(80,42,ls),
(80,19,o),
(99,0,o),
(122,0,c),
(122,195,ls),
(122,217,o),
(126,239,o),
(134,259,c),
(178,206,o),
(244,174,o),
(314,174,cs),
(398,174,o),
(475,219,o),
(517,291,cs),
(521,297,o),
(521,306,o),
(517,312,cs),
(475,384,o),
(398,429,o),
(314,429,cs),
(244,429,o),
(178,397,o),
(134,344,c),
(126,364,o),
(122,386,o),
(122,408,cs),
(122,514,o),
(209,600,o),
(314,600,cs)
);
},
{
closed = 1;
nodes = (
(379,387,o),
(439,355,o),
(474,302,c),
(439,249,o),
(379,216,o),
(314,216,cs),
(250,216,o),
(190,249,o),
(155,302,c),
(190,355,o),
(250,387,o),
(314,387,cs)
);
}
);
width = 629;
}
);
unicode = 61456;
},
{
glyphname = Q.alt1;
layers = (
{
layerId = "DBD9F252-B0AF-4540-AABD-DA467279EDBA";
shapes = (
{
closed = 1;
nodes = (
(718,509,o),
(575,651,o),
(399,651,cs),
(223,651,o),
(80,509,o),
(80,332,cs),
(80,156,o),
(223,13,o),
(399,13,cs),
(473,13,o),
(541,39,o),
(596,81,c),
(608,67,o),
(617,51,o),
(622,35,cs),
(629,14,o),
(648,0,o),
(670,0,c),
(670,39,o),
(655,77,o),
(627,110,c),
(683,167,o),
(718,246,o),
(718,332,c)
);
},
{
closed = 1;
nodes = (
(122,485,o),
(246,609,o),
(399,609,cs),
(552,609,o),
(676,485,o),
(676,332,cs),
(676,257,o),
(645,189,o),
(596,139,c),
(545,180,o),
(475,203,o),
(399,203,cs),
(323,203,o),
(253,180,o),
(201,139,c),
(153,189,o),
(122,257,o),
(122,332,c)
);
},
{
closed = 1;
nodes = (
(277,142,o),
(337,161,o),
(399,161,cs),
(461,161,o),
(521,142,o),
(564,111,c),
(518,76,o),
(461,56,o),
(399,56,cs),
(337,56,o),
(280,76,o),
(234,111,c)
);
}
);
width = 798;
}
);
unicode = 61457;
},
{
glyphname = R.alt1;
layers = (
{
layerId = "DBD9F252-B0AF-4540-AABD-DA467279EDBA";
shapes = (
{
closed = 1;
nodes = (
(401,318,l),
(489,318,o),
(560,390,o),
(560,477,cs),
(560,565,o),
(489,637,o),
(401,637,cs),
(121,637,ls),
(98,637,o),
(80,618,o),
(80,595,cs),
(80,318,l),
(80,318,l),
(80,0,l),
(104,0,o),
(123,19,o),
(123,42,cs),
(123,318,l),
(203,318,l),
(203,317,l),
(366,317,o),
(500,194,o),
(518,36,c),
(518,36,l),
(518,36,o),
(521,0,o),
(563,0,c),
(563,138,o),
(484,258,o),
(370,318,c)
);
},
{
closed = 1;
nodes = (
(122,594,l),
(401,594,ls),
(465,594,o),
(518,542,o),
(518,477,cs),
(518,413,o),
(465,361,o),
(401,361,cs),
(122,361,l)
);
}
);
width = 643;
}
);
unicode = 61458;
},
{
glyphname = Y.alt1;
layers = (
{
layerId = "DBD9F252-B0AF-4540-AABD-DA467279EDBA";
shapes = (
{
closed = 1;
nodes = (
(560,560,ls),
(560,436,o),
(456,335,o),
(330,341,cs),
(213,347,o),
(122,449,o),
(122,566,cs),
(122,598,l),
(122,621,o),
(103,640,o),
(80,640,c),
(80,566,ls),
(80,429,o),
(184,311,o),
(320,300,c),
(320,0,l),
(343,0,o),
(362,19,o),
(362,42,cs),
(362,300,l),
(496,311,o),
(602,423,o),
(602,560,cs),
(602,640,l),
(579,640,o),
(560,621,o),
(560,598,c)
);
}
);
width = 682;
}
);
unicode = 61463;
},
{
glyphname = oneslashthree.liga;
layers = (
{
layerId = "DBD9F252-B0AF-4540-AABD-DA467279EDBA";
shapes = (
{
closed = 1;
nodes = (
(147,412,l),
(147,244,l),
(170,244,o),
(189,263,o),
(189,286,cs),
(189,463,ls),
(189,472,o),
(184,480,o),
(176,483,cs),
(168,486,o),
(159,484,o),
(153,478,cs),
(80,405,l),
(97,389,o),
(123,389,o),
(140,405,cs)
);
},
{
closed = 1;
nodes = (
(450,144,o),
(458,165,o),
(453,188,cs),
(448,215,o),
(427,236,o),
(400,242,cs),
(356,251,o),
(317,217,o),
(317,175,c),
(344,175,ls),
(352,175,o),
(359,180,o),
(362,187,cs),
(367,195,o),
(376,201,o),
(386,201,cs),
(400,201,o),
(412,189,o),
(412,175,cs),
(412,163,o),
(405,153,o),
(394,150,cs),
(389,148,o),
(386,144,o),
(386,139,cs),
(386,116,ls),
(386,111,o),
(390,106,o),
(395,105,cs),
(410,101,o),
(420,89,o),
(420,74,cs),
(420,57,o),
(405,42,o),
(386,42,cs),
(371,42,o),
(359,51,o),
(354,62,cs),
(351,70,o),
(344,74,o),
(336,74,cs),
(309,74,l),
(309,33,o),
(344,0,o),
(386,0,cs),
(428,0,o),
(462,33,o),
(462,74,cs),
(462,96,o),
(453,116,o),
(437,129,c)
);
},
{
closed = 1;
nodes = (
(124,13,l),
(144,3,o),
(170,11,o),
(180,32,cs),
(401,474,l),
(380,485,o),
(355,476,o),
(345,455,cs)
);
}
);
width = 542;
}
);
unicode = 61464;
},
{
glyphname = oneslashfour.liga;
layers = (
{
layerId = "DBD9F252-B0AF-4540-AABD-DA467279EDBA";
shapes = (
{
closed = 1;
nodes = (
(448,221,ls),
(448,230,o),
(442,238,o),
(433,241,cs),
(424,243,o),
(415,240,o),
(409,233,cs),
(303,86,ls),
(298,80,o),
(297,71,o),
(301,64,cs),
(305,57,o),
(312,52,o),
(320,52,cs),
(405,52,l),
(405,0,l),
(429,0,o),
(448,19,o),
(448,42,cs),
(448,52,l),
(476,52,l),
(476,67,ls),
(476,82,o),
(463,95,o),
(448,95,c)
);
},
{
closed = 1;
nodes = (
(405,95,l),
(361,95,l),
(405,155,l)
);
},
{
closed = 1;
nodes = (
(147,415,l),
(147,246,l),
(170,246,o),
(189,265,o),
(189,289,cs),
(189,466,ls),
(189,474,o),
(184,482,o),
(176,485,cs),
(168,489,o),
(159,487,o),
(153,481,cs),
(80,408,l),
(97,391,o),
(123,391,o),
(140,408,cs)
);
},
{
closed = 1;
nodes = (
(124,16,l),
(144,5,o),
(170,14,o),
(180,35,cs),
(401,477,l),
(380,487,o),
(355,479,o),
(345,458,cs)
);
}
);
width = 556;
}
);
unicode = 61465;
},
{
glyphname = threeslashfour.liga;
layers = (
{
layerId = "DBD9F252-B0AF-4540-AABD-DA467279EDBA";
shapes = (
{
closed = 1;
nodes = (
(462,221,ls),
(462,230,o),
(456,238,o),
(448,241,cs),
(439,243,o),
(429,240,o),
(424,233,cs),
(317,86,ls),
(312,80,o),
(312,71,o),
(315,64,cs),
(319,57,o),
(326,52,o),
(334,52,cs),
(420,52,l),
(420,0,l),
(443,0,o),
(462,19,o),
(462,42,cs),
(462,52,l),
(490,52,l),
(490,67,ls),
(490,82,o),
(478,95,o),
(462,95,c)
);
},
{
closed = 1;
nodes = (
(420,95,l),
(376,95,l),
(420,155,l)
);
},
{
closed = 1;
nodes = (
(233,346,o),
(223,366,o),
(208,379,c),
(221,394,o),
(228,415,o),
(224,438,cs),
(219,465,o),
(197,486,o),
(171,492,cs),
(127,501,o),
(88,467,o),
(88,425,c),
(115,425,ls),
(123,425,o),
(130,430,o),
(133,437,cs),
(138,445,o),
(146,451,o),
(157,451,cs),
(171,451,o),
(183,439,o),
(183,425,cs),
(183,413,o),
(175,403,o),
(165,400,cs),
(160,398,o),
(157,394,o),
(157,389,cs),
(157,366,ls),
(157,361,o),
(160,356,o),
(166,355,cs),
(180,351,o),
(191,339,o),
(191,324,cs),
(191,307,o),
(175,292,o),
(157,292,cs),
(142,292,o),
(130,301,o),
(125,312,cs),
(122,320,o),
(114,324,o),
(107,324,cs),
(80,324,l),
(80,283,o),
(114,250,o),
(157,250,cs),
(199,250,o),
(233,283,o),
(233,324,c)
);
},
{
closed = 1;
nodes = (
(154,16,l),
(175,5,o),
(200,14,o),
(211,35,cs),
(432,477,l),
(411,487,o),
(385,479,o),
(375,458,c)
);
}
);
width = 570;
}
);
unicode = 61466;
},
{
glyphname = twoslashthree.liga;
layers = (
{
layerId = "DBD9F252-B0AF-4540-AABD-DA467279EDBA";
shapes = (
{
closed = 1;
nodes = (
(152,285,l),
(221,354,ls),
(243,376,o),
(250,407,o),
(239,436,cs),
(228,464,o),
(203,483,o),
(174,485,cs),
(172,485,o),
(170,485,o),
(168,485,cs),
(128,485,o),
(93,458,o),
(83,420,c),
(103,414,o),
(123,420,o),
(140,433,cs),
(147,439,o),
(157,443,o),
(168,443,cs),
(169,443,o),
(170,443,o),
(171,443,c),
(184,442,o),
(194,434,o),
(199,422,cs),
(203,411,o),
(203,396,o),
(191,384,cs),
(86,279,ls),
(80,273,o),
(78,264,o),
(82,256,cs),
(85,248,o),
(93,243,o),
(101,243,cs),
(242,243,l),
(242,266,o),
(223,285,o),
(200,285,cs)
);
},
{
closed = 1;
nodes = (
(494,144,o),
(501,165,o),
(497,188,cs),
(491,215,o),
(470,236,o),
(443,242,cs),
(399,251,o),
(361,217,o),
(361,175,c),
(388,175,ls),
(396,175,o),
(402,180,o),
(406,187,cs),
(410,195,o),
(419,201,o),
(429,201,cs),
(444,201,o),
(456,189,o),
(456,175,cs),
(456,163,o),
(448,153,o),
(438,150,cs),
(433,148,o),
(429,144,o),
(429,139,cs),
(429,116,ls),
(429,111,o),
(433,106,o),
(439,105,cs),
(453,101,o),
(463,89,o),
(463,74,cs),
(463,57,o),
(448,42,o),
(429,42,cs),
(415,42,o),
(402,51,o),
(397,62,cs),
(394,70,o),
(387,74,o),
(379,74,cs),
(353,74,l),
(353,33,o),
(387,0,o),
(429,0,cs),
(471,0,o),
(506,33,o),
(506,74,cs),
(506,96,o),
(496,116,o),
(480,129,c)
);
},
{
closed = 1;
nodes = (
(167,13,l),
(188,3,o),
(213,11,o),
(224,32,cs),
(445,474,l),
(424,485,o),
(398,476,o),
(388,455,cs)
);
}
);
width = 586;
}
);
unicode = 61467;
},
{
glyphname = Z.alt1;
layers = (
{
layerId = "DBD9F252-B0AF-4540-AABD-DA467279EDBA";
shapes = (
{
closed = 1;
nodes = (
(371,463,o),
(397,591,o),
(559,596,c),
(561,596,l),
(561,617,ls),
(561,629,o),
(551,638,o),
(539,638,cs),
(81,638,l),
(81,617,ls),
(81,605,o),
(90,596,o),
(102,596,cs),
(422,596,l),
(343,537,o),
(320,425,o),
(299,323,cs),
(268,175,o),
(242,47,o),
(80,42,c),
(80,19,o),
(99,0,o),
(123,0,cs),
(561,0,l),
(561,21,ls),
(561,33,o),
(551,42,o),
(539,42,cs),
(216,42,l),
(296,101,o),
(319,213,o),
(340,315,c)
);
}
);
width = 641;
}
);
unicode = 61470;
},
{
glyphname = X.alt1;
layers = (
{
layerId = "DBD9F252-B0AF-4540-AABD-DA467279EDBA";
shapes = (
{
closed = 1;
nodes = (
(561,61,o),
(449,166,o),
(437,297,c),
(450,295,o),
(464,294,o),
(477,294,cs),
(547,294,o),
(615,321,o),
(665,369,cs),
(732,434,o),
(759,529,o),
(734,618,cs),
(731,629,l),
(719,633,ls),
(628,656,o),
(529,631,o),
(463,566,cs),
(432,537,o),
(410,501,o),
(398,463,c),
(344,570,o),
(231,643,o),
(101,643,c),
(101,620,o),
(118,601,o),
(140,598,cs),
(269,581,o),
(371,481,o),
(386,355,cs),
(387,353,o),
(387,350,o),
(387,348,c),
(387,347,o),
(387,347,o),
(387,347,c),
(304,359,o),
(218,333,o),
(158,275,cs),
(91,211,o),
(64,115,o),
(89,27,cs),
(92,15,l),
(104,12,ls),
(127,6,o),
(150,3,o),
(172,3,cs),
(242,3,o),
(310,29,o),
(361,78,cs),
(392,108,o),
(414,145,o),
(427,184,c),
(483,76,o),
(602,0,o),
(741,0,c),
(741,23,o),
(724,42,o),
(702,45,c)
);
},
{
closed = 1;
nodes = (
(545,587,o),
(623,609,o),
(696,594,c),
(711,524,o),
(689,450,o),
(636,400,cs),
(583,348,o),
(505,326,o),
(431,341,c),
(431,345,o),
(430,349,o),
(429,352,cs),
(429,358,o),
(428,363,o),
(428,368,cs),
(423,429,o),
(446,491,o),
(492,536,cs)
);
},
{
closed = 1;
nodes = (
(278,57,o),
(201,35,o),
(127,50,c),
(112,120,o),
(134,194,o),
(187,245,cs),
(241,296,o),
(318,318,o),
(392,303,c),
(407,233,o),
(384,159,o),
(331,108,c)
);
}
);
width = 823;
}
);
unicode = 61471;
},
{
glyphname = W.alt1;
layers = (
{
layerId = "DBD9F252-B0AF-4540-AABD-DA467279EDBA";
shapes = (
{
closed = 1;
nodes = (
(712,225,ls),
(712,129,o),
(638,46,o),
(541,43,cs),
(510,42,o),
(479,49,o),
(452,64,c),
(494,105,o),
(517,160,o),
(517,219,cs),
(517,288,o),
(485,352,o),
(430,394,cs),
(422,399,o),
(412,399,o),
(404,394,cs),
(349,352,o),
(317,288,o),
(317,219,cs),
(317,160,o),
(340,105,o),
(382,64,c),
(356,50,o),
(328,43,o),
(298,43,cs),
(297,43,o),
(296,43,o),
(295,42,cs),
(199,44,o),
(122,123,o),
(122,219,cs),
(122,597,ls),
(122,621,o),
(103,640,o),
(80,640,c),
(80,219,ls),
(80,98,o),
(178,0,o),
(299,0,cs),
(300,0,o),
(301,0,o),
(303,0,cs),
(344,1,o),
(383,13,o),
(417,35,c),
(454,12,o),
(496,0,o),
(540,0,cs),
(660,3,o),
(754,105,o),
(754,226,cs),
(754,598,ls),
(754,621,o),
(735,640,o),
(712,640,c)
);
},
{
closed = 1;
nodes = (
(359,269,o),
(380,316,o),
(417,349,c),
(454,316,o),
(475,269,o),
(475,219,cs),
(475,169,o),
(454,122,o),
(417,89,c),
(380,122,o),
(359,169,o),
(359,219,cs)
);
}
);
width = 834;
}
);
unicode = 61472;
},
{
glyphname = V.alt1;
layers = (
{
layerId = "DBD9F252-B0AF-4540-AABD-DA467279EDBA";
shapes = (
{
closed = 1;
nodes = (
(454,412,l),
(476,404,o),
(500,415,o),
(509,437,cs),
(580,627,l),
(558,636,o),
(534,625,o),
(525,603,cs)
);
},
{
closed = 1;
nodes = (
(330,81,l),
(134,603,ls),
(126,625,o),
(102,636,o),
(80,627,c),
(310,14,ls),
(313,5,o),
(321,0,o),
(330,0,cs),
(339,0,o),
(347,5,o),
(350,14,cs),
(406,165,l),
(385,173,o),
(360,162,o),
(352,140,c)
);
}
);
width = 660;
}
);
unicode = 61473;
},
{
glyphname = U.alt1;
layers = (
{
layerId = "DBD9F252-B0AF-4540-AABD-DA467279EDBA";
shapes = (
{
closed = 1;
nodes = (
(164,97,o),
(122,168,o),
(122,245,cs),
(122,598,ls),
(122,621,o),
(103,640,o),
(80,640,c),
(80,245,ls),
(80,137,o),
(148,39,o),
(250,1,c),
(258,23,o),
(249,46,o),
(229,58,c)
);
},
{
closed = 1;
nodes = (
(556,245,ls),
(556,166,o),
(514,94,o),
(447,56,cs),
(427,45,o),
(417,22,o),
(425,0,c),
(529,36,o),
(599,135,o),
(599,245,cs),
(599,640,l),
(575,640,o),
(556,621,o),
(556,598,c)
);
}
);
width = 679;
}
);
unicode = 61474;
},
{
glyphname = T.alt1;
layers = (
{
layerId = "DBD9F252-B0AF-4540-AABD-DA467279EDBA";
shapes = (
{
closed = 1;
nodes = (
(492,640,ls),
(394,640,o),
(314,561,o),
(314,462,cs),
(314,0,l),
(337,0,o),
(356,19,o),
(356,42,cs),
(356,462,ls),
(356,537,o),
(417,598,o),
(492,598,cs),
(533,598,ls),
(556,598,o),
(575,617,o),
(575,640,c)
);
},
{
closed = 1;
nodes = (
(80,497,l),
(97,481,o),
(123,481,o),
(140,497,cs),
(270,628,l),
(253,645,o),
(227,645,o),
(210,628,c)
);
}
);
width = 655;
}
);
unicode = 61475;
},
{
glyphname = S.alt1;
layers = (
{
layerId = "DBD9F252-B0AF-4540-AABD-DA467279EDBA";
shapes = (
{
closed = 1;
nodes = (
(329,227,o),
(312,246,o),
(290,249,cs),
(195,265,o),
(123,337,o),
(123,422,cs),
(123,519,o),
(216,598,o),
(329,598,cs),
(429,598,o),
(512,537,o),
(531,457,cs),
(536,437,o),
(553,422,o),
(574,422,cs),
(578,422,l),
(578,542,o),
(466,640,o),
(329,640,cs),
(192,640,o),
(81,542,o),
(81,422,cs),
(81,302,o),
(192,204,o),
(329,204,c)
);
},
{
closed = 1;
nodes = (
(328,413,o),
(345,394,o),
(368,391,cs),
(463,375,o),
(534,303,o),
(534,218,cs),
(534,121,o),
(442,42,o),
(328,42,cs),
(229,42,o),
(146,103,o),
(127,183,cs),
(122,203,o),
(104,218,o),
(83,218,cs),
(80,218,l),
(80,98,o),
(191,0,o),
(328,0,cs),
(465,0,o),
(577,98,o),
(577,218,cs),
(577,338,o),
(465,436,o),
(328,436,c)
);
}
);
width = 658;
}
);
unicode = 61476;
},
{
glyphname = fish.liga;
layers = (
{
layerId = "DBD9F252-B0AF-4540-AABD-DA467279EDBA";
shapes = (
{
closed = 1;
nodes = (
(435,389,o),
(371,421,o),
(301,421,cs),
(241,421,o),
(185,397,o),
(144,355,c),
(136,370,o),
(130,386,o),
(126,402,cs),
(122,424,o),
(103,440,o),
(81,440,cs),
(80,440,l),
(80,397,o),
(92,356,o),
(116,320,c),
(92,284,o),
(80,243,o),
(80,200,c),
(81,200,ls),
(103,200,o),
(122,216,o),
(126,238,cs),
(130,254,o),
(136,270,o),
(144,285,c),
(185,243,o),
(241,219,o),
(301,219,cs),
(371,219,o),
(435,251,o),
(478,307,cs),
(483,315,o),
(483,325,o),
(478,333,cs)
);
},
{
closed = 1;
nodes = (
(250,261,o),
(203,282,o),
(169,320,c),
(203,358,o),
(250,379,o),
(301,379,cs),
(352,379,o),
(400,358,o),
(433,320,c),
(400,282,o),
(352,261,o),
(301,261,cs)
);
}
